SplineFontDB: 3.0
FontName: Mikhak-Light
FullName: Mikhak Light
FamilyName: Mikhak Light
Weight: Light
Copyright: Copyright (c) 2018 by www.opentypeshop.com (Amin Abedi(@aminabedi68)) with Reserved Font Name Mikhak. All rights reserved.
Version: 1.00
ItalicAngle: 0
UnderlinePosition: 0
UnderlineWidth: 0
Ascent: 1638
Descent: 410
InvalidEm: 0
sfntRevision: 0x00010003
LayerCount: 2
Layer: 0 0 "Back" 1
Layer: 1 0 "Fore" 0
PreferredKerning: 4
XUID: [1021 89 1101065813 17353]
StyleMap: 0x0040
FSType: 0
OS2Version: 4
OS2_WeightWidthSlopeOnly: 0
OS2_UseTypoMetrics: 1
CreationTime: 1497005464
ModificationTime: 1531663366
PfmFamily: 33
TTFWeight: 300
TTFWidth: 5
LineGap: 0
VLineGap: 0
OS2TypoAscent: 600
OS2TypoAOffset: 1
OS2TypoDescent: -550
OS2TypoDOffset: 1
OS2TypoLinegap: 0
OS2WinAscent: -200
OS2WinAOffset: 1
OS2WinDescent: -50
OS2WinDOffset: 1
HheadAscent: -200
HheadAOffset: 1
HheadDescent: 50
HheadDOffset: 1
OS2SubXSize: 1277
OS2SubYSize: 1185
OS2SubXOff: 0
OS2SubYOff: 256
OS2SupXSize: 1277
OS2SupYSize: 1185
OS2SupXOff: 0
OS2SupYOff: 870
OS2StrikeYSize: 91
OS2StrikeYPos: 766
OS2CapHeight: 1400
OS2XHeight: 1012
OS2Vendor: 'AA68'
Lookup: 4 1 0 "'ccmp' Glyph Composition/Decomposition in Arabic lookup 0" { "'ccmp' Glyph Composition/Decomposition in Arabic lookup 0 subtable 0"  } ['ccmp' ('arab' <'FAR ' 'dflt' > ) ]
Lookup: 1 9 0 "Single Substitution 1" { "Single Substitution 1 subtable"  } []
Lookup: 2 9 0 "Multiple Substitution 2" { "Multiple Substitution 2 subtable"  } []
Lookup: 2 9 0 "Multiple Substitution 3" { "Multiple Substitution 3 subtable"  } []
Lookup: 1 9 0 "'fina' Terminal Forms in Arabic lookup 4" { "'fina' Terminal Forms in Arabic lookup 4 subtable"  } ['fina' ('arab' <'FAR ' 'dflt' > ) ]
Lookup: 1 9 0 "'medi' Medial Forms in Arabic lookup 5" { "'medi' Medial Forms in Arabic lookup 5 subtable"  } ['medi' ('arab' <'FAR ' 'dflt' > ) ]

StartChar: a
Encoding: 97 97 0
Width: 1229
VWidth: 2426
Flags: HMW
LayerCount: 2
Fore
SplineSet
882 876 m 0
 882 848 860 827 833 827 c 0
 821 827 809 831 800 839 c 0
 748 885 675 913 605 913 c 0
 383 913 210 660 210 419 c 0
 210 222 316 95 480 95 c 0
 711 95 855 296 900 528 c 0
 915 610 945 830 962 961 c 0
 966 990 988 1003 1011 1003 c 0
 1037 1003 1062 986 1062 956 c 2
 1062 949 l 1
 1000 459 l 2
 996 407 990 351 990 293 c 0
 990 158 1020 95 1069 95 c 0
 1096 95 1119 72 1119 45 c 0
 1119 18 1096 -5 1069 -5 c 0
 933 -5 899 132 892 235 c 1
 805 98 666 -5 480 -5 c 0
 248 -5 110 186 110 419 c 0
 110 694 303 1013 605 1013 c 0
 701 1013 796 975 866 913 c 0
 877 903 882 890 882 876 c 0
EndSplineSet
Colour: ffff
EndChar

StartChar: c
Encoding: 99 99 1
Width: 1031
VWidth: 2426
Flags: HMW
LayerCount: 2
Fore
SplineSet
905 877 m 0
 905 849 882 827 855 827 c 0
 843 827 832 831 822 839 c 0
 762 891 695 921 611 921 c 0
 372 921 210 655 210 411 c 0
 210 234 285 95 528 95 c 0
 658 95 754 131 845 186 c 0
 853 191 861 193 870 193 c 0
 896 193 921 173 921 144 c 0
 921 127 912 109 897 100 c 0
 795 39 678 -5 528 -5 c 0
 225 -5 110 196 110 411 c 0
 110 683 290 1021 611 1021 c 0
 721 1021 814 979 888 915 c 0
 899 905 905 891 905 877 c 0
EndSplineSet
Colour: ffff
EndChar

StartChar: e
Encoding: 101 101 2
Width: 1141
VWidth: 2426
Flags: HMW
LayerCount: 2
Fore
SplineSet
982 231 m 0
 1009 231 1031 209 1031 181 c 0
 1031 167 1026 153 1015 144 c 0
 910 49 772 -5 630 -5 c 0
 414 -5 237 113 188 309 c 1
 183 309 178 308 173 308 c 0
 138 308 110 320 110 359 c 0
 110 393 140 405 175 408 c 1
 175 712 391 1021 713 1021 c 0
 850 1021 999 935 999 775 c 0
 999 632 878 551 804 507 c 0
 646 413 470 350 289 321 c 1
 330 185 456 95 630 95 c 0
 746 95 861 139 948 218 c 0
 957 227 970 231 982 231 c 0
275 420 m 1
 443 447 606 506 752 593 c 0
 826 637 899 696 899 775 c 0
 899 859 818 921 713 921 c 0
 466 921 280 680 275 420 c 1
EndSplineSet
Colour: ffff
EndChar

StartChar: f
Encoding: 102 102 3
Width: 773
VWidth: 2426
Flags: HMW
LayerCount: 2
Fore
SplineSet
661 1273 m 0
 661 1246 640 1224 612 1224 c 0
 598 1224 585 1229 575 1240 c 0
 545 1273 526 1278 519 1278 c 0
 492 1278 427 1187 413 1024 c 0
 400 882 391 742 385 602 c 1
 463 600 540 594 619 585 c 0
 648 582 661 559 661 536 c 0
 661 510 645 485 614 485 c 2
 607 485 l 1
 530 494 456 500 381 502 c 1
 375 335 373 168 373 -4 c 0
 373 -36 348 -52 323 -52 c 0
 298 -52 273 -36 273 -4 c 0
 273 168 275 336 281 503 c 1
 242 503 204 502 164 499 c 2
 159 499 l 2
 128 499 112 525 112 550 c 0
 112 573 126 597 156 599 c 0
 201 602 244 603 285 603 c 1
 291 745 300 887 313 1032 c 0
 325 1181 378 1378 519 1378 c 0
 568 1378 611 1349 649 1306 c 0
 657 1297 661 1285 661 1273 c 0
EndSplineSet
Colour: ffff
EndChar

StartChar: g
Encoding: 103 103 4
Width: 1137
VWidth: 2426
Flags: HMW
LayerCount: 2
Fore
SplineSet
800 967 m 0
 817 957 823 942 823 927 c 0
 823 900 802 873 774 873 c 0
 766 873 757 876 748 881 c 0
 707 906 645 921 593 921 c 0
 366 921 219 672 219 420 c 0
 219 236 351 95 516 95 c 0
 866 95 924 544 924 971 c 0
 924 999 947 1021 974 1021 c 2
 978 1021 l 2
 1004 1019 1023 995 1024 973 c 0
 1026 924 1027 842 1027 764 c 0
 1027 747 1027 730 1027 713 c 0
 1027 224 1019 -415 521 -415 c 0
 327 -415 184 -311 117 -196 c 0
 112 -187 110 -179 110 -171 c 0
 110 -144 137 -122 163 -122 c 0
 178 -122 193 -129 203 -146 c 0
 253 -231 365 -315 521 -315 c 0
 780 -315 876 -87 910 251 c 1
 837 103 710 -5 516 -5 c 0
 289 -5 119 188 119 420 c 0
 119 696 282 1021 593 1021 c 0
 661 1021 739 1004 800 967 c 0
EndSplineSet
Colour: ffff
EndChar

StartChar: o
Encoding: 111 111 5
Width: 1109
VWidth: 2426
Flags: HMW
LayerCount: 2
Fore
SplineSet
567 921 m 0
 336 921 210 731 210 486 c 0
 210 253 326 95 520 95 c 0
 735 95 899 300 899 538 c 0
 899 750 778 921 567 921 c 0
567 1021 m 0
 846 1021 999 786 999 538 c 0
 999 260 805 -5 520 -5 c 0
 254 -5 110 223 110 486 c 0
 110 761 264 1021 567 1021 c 0
EndSplineSet
Colour: ffff
EndChar

StartChar: s
Encoding: 115 115 6
Width: 980
VWidth: 2426
Flags: HMW
LayerCount: 2
Fore
SplineSet
110 171 m 0
 110 197 131 221 160 221 c 0
 176 221 193 213 202 199 c 0
 232 154 358 95 488 95 c 0
 656 95 770 152 770 239 c 0
 770 358 651 409 514 443 c 0
 385 475 137 531 137 760 c 2
 137 764 l 1
 151 941 341 1022 501 1022 c 0
 644 1022 802 957 837 796 c 0
 838 792 838 788 838 784 c 0
 838 754 812 736 786 736 c 0
 765 736 745 748 739 774 c 0
 718 869 622 922 501 922 c 0
 361 922 246 852 237 758 c 1
 239 624 390 578 538 541 c 0
 667 509 870 444 870 239 c 0
 870 50 654 -5 488 -5 c 0
 338 -5 180 50 118 143 c 0
 112 152 110 161 110 171 c 0
EndSplineSet
Colour: ffff
EndChar

StartChar: t
Encoding: 116 116 7
Width: 775
VWidth: 2426
Flags: HMW
LayerCount: 2
Fore
SplineSet
600 95 m 0
 633 95 663 88 663 47 c 0
 663 25 646 4 624 -2 c 0
 602 -7 585 -5 576 -5 c 0
 362 -5 293 174 293 355 c 0
 293 499 299 640 309 781 c 1
 261 779 213 776 166 770 c 1
 159 770 l 2
 129 770 112 795 112 821 c 0
 112 844 125 866 154 870 c 0
 208 876 262 880 317 882 c 1
 327 996 339 1109 352 1222 c 0
 355 1251 377 1264 400 1264 c 0
 426 1264 452 1247 452 1216 c 0
 452 1214 452 1212 452 1210 c 0
 439 1101 428 992 418 883 c 1
 488 882 556 878 621 870 c 0
 650 866 663 844 663 821 c 0
 663 795 646 770 616 770 c 2
 609 770 l 1
 546 778 479 782 410 783 c 1
 399 641 393 499 393 355 c 0
 393 188 442 95 576 95 c 0
 584 95 592 95 600 95 c 0
EndSplineSet
Colour: ffff
EndChar

StartChar: v
Encoding: 118 118 8
Width: 1084
VWidth: 2426
Flags: HMW
LayerCount: 2
Fore
SplineSet
115 950 m 0
 112 957 110 964 110 971 c 0
 110 999 137 1020 163 1020 c 0
 180 1020 196 1012 205 992 c 0
 316 757 448 465 523 177 c 1
 665 421 793 699 876 985 c 0
 883 1009 903 1020 922 1020 c 0
 948 1020 974 1001 974 972 c 0
 974 967 974 962 972 957 c 0
 873 617 715 294 545 19 c 0
 536 4 519 -4 502 -4 c 0
 480 -4 458 9 453 35 c 0
 392 347 241 683 115 950 c 0
EndSplineSet
Colour: ffff
EndChar

StartChar: w
Encoding: 119 119 9
Width: 1501
VWidth: 2426
Flags: HMW
LayerCount: 2
Fore
SplineSet
258 979 m 0
 268 996 284 1003 299 1003 c 0
 326 1003 353 981 353 953 c 0
 353 945 351 937 346 929 c 0
 294 836 210 577 210 374 c 0
 210 201 262 95 406 95 c 0
 596 95 729 472 729 681 c 0
 729 713 754 729 779 729 c 0
 804 729 829 713 829 682 c 0
 833 410 857 95 1038 95 c 0
 1214 95 1291 268 1291 513 c 0
 1291 668 1255 831 1206 929 c 0
 1202 937 1200 944 1200 951 c 0
 1200 979 1227 1000 1254 1000 c 0
 1270 1000 1286 992 1296 973 c 0
 1355 855 1391 682 1391 513 c 0
 1391 264 1308 -5 1038 -5 c 0
 856 -5 784 162 755 321 c 1
 693 163 583 -5 406 -5 c 0
 180 -5 110 187 110 374 c 0
 110 601 194 866 258 979 c 0
EndSplineSet
Colour: ffff
EndChar

StartChar: x
Encoding: 120 120 10
Width: 1137
VWidth: 2426
Flags: HMW
LayerCount: 2
Fore
SplineSet
160 -50 m 0
 131 -50 110 -27 110 0 c 0
 110 11 114 23 121 32 c 2
 486 478 l 1
 370 628 265 785 190 935 c 0
 186 943 184 951 184 958 c 0
 184 986 212 1006 238 1006 c 0
 254 1006 270 998 280 979 c 0
 347 843 443 698 551 557 c 1
 916 1003 l 2
 926 1015 940 1021 955 1021 c 0
 984 1021 1005 998 1005 971 c 0
 1005 960 1001 948 994 939 c 2
 615 476 l 1
 745 314 886 161 1012 35 c 0
 1022 25 1026 13 1026 0 c 0
 1026 -27 1004 -49 977 -49 c 0
 964 -49 952 -45 942 -35 c 0
 819 88 680 238 550 397 c 1
 199 -32 l 2
 189 -44 175 -50 160 -50 c 0
EndSplineSet
Colour: ffff
EndChar

StartChar: y
Encoding: 121 121 11
Width: 1093
VWidth: 2426
Flags: HMW
LayerCount: 2
Fore
SplineSet
974 538 m 0
 967 98 937 -415 469 -415 c 0
 278 -415 169 -330 115 -221 c 0
 111 -213 110 -206 110 -199 c 0
 110 -171 137 -150 163 -150 c 0
 179 -150 195 -158 205 -177 c 0
 243 -254 310 -315 469 -315 c 0
 738 -315 826 -104 858 215 c 1
 794 89 688 -5 531 -5 c 0
 190 -5 155 320 155 589 c 0
 155 717 162 849 176 977 c 0
 179 1006 201 1019 224 1019 c 0
 250 1019 276 1002 276 971 c 0
 276 969 276 967 276 965 c 0
 262 841 255 713 255 589 c 0
 255 306 290 95 531 95 c 0
 719 95 809 277 851 541 c 0
 873 678 878 814 883 959 c 0
 884 990 909 1006 933 1006 c 0
 958 1006 983 990 983 958 c 0
 983 820 976 679 974 538 c 0
EndSplineSet
Colour: ffff
EndChar

StartChar: z
Encoding: 122 122 12
Width: 1054
VWidth: 2426
Flags: HMW
LayerCount: 2
Fore
SplineSet
246 -67 m 0
 185 -67 121 -35 121 37 c 0
 121 71 135 101 157 129 c 0
 346 361 508 546 745 764 c 0
 770 786 772 803 772 813 c 0
 772 827 708 864 538 864 c 0
 389 864 250 847 168 833 c 0
 165 832 161 832 158 832 c 0
 128 832 112 858 112 883 c 0
 112 905 124 926 152 931 c 0
 238 945 381 964 538 964 c 0
 670 964 872 957 872 813 c 0
 872 775 854 729 811 690 c 0
 579 477 420 295 235 67 c 0
 222 50 221 41 221 37 c 0
 224 36 231 33 246 33 c 0
 255 33 265 35 274 36 c 0
 393 55 678 75 893 79 c 1
 894 79 l 2
 926 79 942 53 942 28 c 0
 942 3 927 -21 895 -21 c 0
 687 -25 401 -45 291 -62 c 0
 275 -65 259 -67 246 -67 c 0
EndSplineSet
Colour: ffff
EndChar

StartChar: A
Encoding: 65 65 13
Width: 1416
VWidth: 1823
Flags: HMW
LayerCount: 2
Fore
SplineSet
452 560 m 1
 1002 510 l 1
 735 1187 l 1
 452 560 l 1
206 11 m 2
 197 -9 181 -17 164 -17 c 0
 137 -17 109 3 109 32 c 0
 109 39 111 46 114 53 c 2
 307 480 l 1
 296 489 290 504 290 519 c 0
 290 544 306 571 334 571 c 0
 338 571 342 570 347 569 c 1
 692 1337 l 2
 701 1357 718 1365 736 1365 c 0
 756 1365 777 1354 785 1334 c 2
 1115 494 l 1
 1132 483 1138 462 1135 443 c 1
 1303 18 l 2
 1306 11 1307 5 1307 -1 c 0
 1307 -29 1280 -49 1254 -49 c 0
 1236 -49 1218 -40 1209 -18 c 2
 1042 406 l 1
 409 463 l 1
 206 11 l 2
EndSplineSet
Colour: ffff
EndChar

StartChar: B
Encoding: 66 66 14
Width: 1098
VWidth: 2426
Flags: HMW
LayerCount: 2
Fore
SplineSet
888 406 m 0
 888 606 692 689 446 689 c 0
 379 689 287 680 235 677 c 1
 234 504 228 307 216 126 c 1
 290 107 378 95 461 95 c 0
 697 95 888 181 888 406 c 0
235 779 m 1
 277 783 325 785 369 787 c 0
 414 792 463 800 510 810 c 0
 682 847 807 915 807 1028 c 0
 807 1195 679 1266 493 1266 c 0
 403 1266 304 1247 213 1216 c 1
 225 1072 233 957 235 779 c 1
687 758 m 1
 850 712 988 602 988 406 c 0
 988 97 711 -5 461 -5 c 0
 353 -5 243 11 148 41 c 0
 126 48 113 69 113 89 c 0
 113 287 135 515 135 706 c 0
 135 937 110 1066 110 1250 c 0
 110 1270 123 1290 142 1297 c 0
 250 1339 375 1366 493 1366 c 0
 699 1366 907 1273 907 1028 c 0
 907 888 801 805 687 758 c 1
EndSplineSet
Colour: ffff
EndChar

StartChar: C
Encoding: 67 67 15
Width: 1271
VWidth: 2426
Flags: HMW
LayerCount: 2
Fore
SplineSet
1096 1324 m 0
 1116 1315 1125 1298 1125 1281 c 0
 1125 1255 1105 1227 1077 1227 c 0
 1071 1227 1063 1229 1056 1232 c 0
 980 1266 898 1282 814 1282 c 0
 463 1282 210 1013 210 662 c 0
 210 320 457 95 810 95 c 0
 906 95 1002 118 1088 163 c 0
 1096 167 1104 169 1111 169 c 0
 1139 169 1160 142 1160 116 c 0
 1160 100 1152 85 1134 75 c 0
 1034 22 922 -5 810 -5 c 0
 411 -5 110 262 110 662 c 0
 110 1063 407 1382 814 1382 c 0
 910 1382 1006 1364 1096 1324 c 0
EndSplineSet
Colour: ffff
EndChar

StartChar: D
Encoding: 68 68 16
Width: 1239
VWidth: 2426
Flags: HMW
LayerCount: 2
Fore
SplineSet
231 1255 m 1
 248 1092 255 994 255 811 c 0
 255 575 241 345 215 126 c 1
 279 106 345 95 412 95 c 0
 767 95 1029 344 1029 701 c 0
 1029 1098 778 1266 366 1266 c 0
 321 1266 276 1263 231 1255 c 1
166 1344 m 0
 231 1359 299 1366 366 1366 c 0
 808 1366 1129 1164 1129 701 c 0
 1129 288 819 -5 412 -5 c 0
 320 -5 228 12 142 45 c 0
 122 53 110 73 110 92 c 0
 110 94 110 96 110 98 c 0
 139 322 155 565 155 811 c 0
 155 1009 127 1100 127 1295 c 0
 127 1319 146 1339 166 1344 c 0
EndSplineSet
Colour: ffff
EndChar

StartChar: E
Encoding: 69 69 17
Width: 1098
VWidth: 2426
Flags: HMW
LayerCount: 2
Fore
SplineSet
927 1408 m 0
 931 1409 935 1409 939 1409 c 0
 969 1409 987 1383 987 1357 c 0
 987 1336 975 1316 949 1310 c 0
 809 1278 633 1266 472 1266 c 0
 406 1266 339 1269 275 1272 c 1
 287 1167 292 1084 292 960 c 0
 292 906 291 851 289 797 c 1
 358 802 427 804 500 804 c 0
 624 804 745 797 865 783 c 0
 894 779 907 757 907 734 c 0
 907 708 890 683 860 683 c 2
 853 683 l 1
 737 697 620 704 500 704 c 0
 425 704 356 702 285 697 c 1
 278 573 266 453 250 341 c 0
 247 324 247 310 247 295 c 0
 247 106 455 95 768 95 c 0
 821 95 872 95 921 96 c 2
 922 96 l 2
 954 96 970 70 970 45 c 0
 970 20 955 -4 923 -4 c 0
 872 -5 821 -5 768 -5 c 0
 756 -5 744 -5 732 -5 c 0
 464 -5 147 1 147 295 c 0
 147 314 148 332 152 355 c 0
 166 458 177 571 184 687 c 1
 178 686 172 686 166 685 c 2
 159 685 l 2
 129 685 112 710 112 736 c 0
 112 759 125 781 154 785 c 0
 166 786 178 788 189 789 c 1
 191 846 192 903 192 960 c 0
 192 1104 168 1188 168 1323 c 0
 168 1344 186 1375 218 1375 c 0
 219 1375 220 1375 221 1375 c 0
 305 1370 389 1366 472 1366 c 0
 627 1366 799 1378 927 1408 c 0
EndSplineSet
Colour: ffff
EndChar

StartChar: F
Encoding: 70 70 18
Width: 1092
VWidth: 2426
Flags: HMW
LayerCount: 2
Fore
SplineSet
921 1387 m 0
 925 1388 929 1388 933 1388 c 0
 963 1388 981 1362 981 1336 c 0
 981 1315 969 1295 943 1289 c 0
 803 1257 626 1246 466 1246 c 0
 400 1246 333 1248 269 1251 c 1
 286 1092 293 946 296 784 c 1
 360 788 425 791 489 791 c 0
 609 791 730 783 849 769 c 0
 878 765 891 743 891 720 c 0
 891 694 874 669 844 669 c 2
 837 669 l 1
 722 683 605 691 489 691 c 0
 425 691 362 689 298 684 c 1
 298 583 l 2
 298 376 287 174 267 -6 c 0
 264 -35 242 -48 219 -48 c 0
 193 -48 167 -31 167 -0 c 0
 167 2 167 4 167 6 c 0
 187 182 198 380 198 583 c 2
 198 675 l 1
 187 674 177 672 166 671 c 2
 159 671 l 2
 129 671 112 696 112 722 c 0
 112 745 125 767 154 771 c 0
 168 773 183 774 197 775 c 1
 194 959 163 1121 163 1301 c 0
 163 1322 180 1354 213 1354 c 0
 214 1354 215 1354 216 1354 c 0
 298 1349 382 1346 466 1346 c 0
 622 1346 793 1357 921 1387 c 0
EndSplineSet
Colour: ffff
EndChar

StartChar: G
Encoding: 71 71 19
Width: 1352
VWidth: 2426
Flags: HMW
LayerCount: 2
Fore
SplineSet
1087 1226 m 0
 1087 1198 1063 1176 1037 1176 c 0
 1026 1176 1016 1179 1007 1186 c 0
 938 1237 850 1266 763 1266 c 0
 384 1266 214 999 210 645 c 0
 210 643 210 641 210 639 c 0
 210 322 437 95 716 95 c 0
 1041 95 1142 222 1142 500 c 0
 1142 538 1141 578 1138 622 c 1
 1094 617 1041 615 990 615 c 0
 898 615 804 623 732 636 c 0
 705 641 692 662 692 683 c 0
 692 709 710 735 740 735 c 0
 743 735 747 735 750 734 c 0
 814 723 904 715 990 715 c 0
 1058 715 1127 720 1176 728 c 0
 1179 728 1181 729 1184 729 c 0
 1211 729 1232 705 1234 683 c 0
 1239 618 1242 557 1242 500 c 0
 1242 178 1087 -5 716 -5 c 0
 377 -5 110 272 110 639 c 0
 110 641 110 643 110 645 c 0
 114 1031 318 1366 763 1366 c 0
 872 1366 980 1331 1067 1266 c 0
 1080 1257 1087 1241 1087 1226 c 0
EndSplineSet
Colour: ffff
EndChar

StartChar: H
Encoding: 72 72 20
Width: 1239
VWidth: 2426
Flags: HMW
LayerCount: 2
Fore
SplineSet
182 1316 m 0
 183 1348 208 1364 233 1364 c 0
 258 1364 282 1349 282 1317 c 0
 282 1120 276 921 268 725 c 1
 463 723 729 718 944 710 c 1
 917 1314 l 2
 915 1347 941 1364 967 1364 c 0
 991 1364 1016 1349 1017 1318 c 2
 1044 706 l 1
 1057 705 1069 705 1081 704 c 0
 1112 703 1127 678 1127 654 c 0
 1127 629 1112 604 1080 604 c 0
 1079 604 1078 604 1077 604 c 0
 1068 604 1058 605 1048 605 c 1
 1076 -19 l 2
 1078 -52 1052 -69 1026 -69 c 0
 1002 -69 977 -54 976 -23 c 2
 948 609 l 1
 731 617 459 623 263 625 c 1
 253 412 239 201 218 -5 c 0
 215 -35 192 -48 169 -48 c 0
 143 -48 118 -31 118 -0 c 2
 118 5 l 1
 138 208 153 416 163 626 c 1
 162 626 161 626 160 626 c 0
 133 626 110 649 110 676 c 0
 110 703 133 726 160 726 c 2
 168 726 l 1
 176 922 180 1119 182 1316 c 0
EndSplineSet
Colour: ffff
EndChar

StartChar: I
Encoding: 73 73 21
Width: 355
VWidth: 2426
Flags: HMW
LayerCount: 2
Fore
SplineSet
210 -1 m 2
 209 -33 184 -48 159 -48 c 0
 134 -48 109 -32 110 1 c 2
 145 1362 l 2
 146 1394 171 1409 196 1409 c 0
 221 1409 246 1393 245 1360 c 2
 210 -1 l 2
EndSplineSet
Colour: ffff
EndChar

StartChar: J
Encoding: 74 74 22
Width: 680
VWidth: 2426
Flags: HMW
LayerCount: 2
Fore
SplineSet
233 -5 m 2
 217 -5 l 2
 165 -5 110 -3 110 46 c 0
 110 48 110 50 110 52 c 0
 113 90 141 97 176 97 c 0
 194 97 214 95 233 95 c 0
 384 95 425 164 425 330 c 0
 425 680 415 947 375 1267 c 1
 173 1267 l 2
 146 1267 123 1290 123 1317 c 0
 123 1344 146 1367 173 1367 c 2
 520 1367 l 2
 552 1367 568 1342 568 1317 c 0
 568 1292 552 1267 520 1267 c 2
 476 1267 l 1
 516 947 525 677 525 330 c 0
 525 140 450 -5 233 -5 c 2
EndSplineSet
Colour: ffff
EndChar

StartChar: K
Encoding: 75 75 23
Width: 1177
VWidth: 2426
Flags: HMW
LayerCount: 2
Fore
SplineSet
946 1411 m 0
 974 1411 996 1387 996 1361 c 0
 996 1350 993 1340 986 1331 c 0
 789 1065 504 861 239 706 c 1
 450 461 767 228 1044 49 c 0
 1060 39 1066 24 1066 10 c 0
 1066 -17 1045 -43 1017 -43 c 0
 1008 -43 999 -41 990 -35 c 0
 734 130 443 342 225 573 c 1
 210 -1 l 2
 209 -33 184 -48 159 -48 c 0
 134 -48 109 -32 110 1 c 2
 128 684 l 1
 119 693 114 707 114 721 c 0
 114 734 118 747 129 757 c 1
 145 1361 l 2
 146 1393 171 1408 196 1408 c 0
 221 1408 246 1392 245 1359 c 2
 231 818 l 1
 478 967 732 1156 906 1391 c 0
 915 1404 931 1411 946 1411 c 0
EndSplineSet
Colour: ffff
EndChar

StartChar: L
Encoding: 76 76 24
Width: 1126
VWidth: 2426
Flags: HMW
LayerCount: 2
Fore
SplineSet
128 1317 m 0
 128 1348 154 1364 179 1364 c 0
 203 1364 226 1350 228 1319 c 0
 239 1151 244 989 244 830 c 0
 244 582 232 338 214 93 c 1
 967 72 l 2
 999 71 1014 46 1014 21 c 0
 1014 -4 999 -28 967 -28 c 2
 965 -28 l 1
 159 -5 l 2
 134 -4 110 18 110 46 c 0
 110 47 110 48 110 49 c 0
 130 312 144 568 144 830 c 0
 144 988 128 1150 128 1317 c 0
EndSplineSet
Colour: ffff
EndChar

StartChar: M
Encoding: 77 77 25
Width: 1539
VWidth: 2426
Flags: HMW
LayerCount: 2
Fore
SplineSet
210 -5 m 2
 207 -35 184 -48 161 -48 c 0
 136 -48 110 -31 110 -1 c 0
 110 1 110 3 110 5 c 2
 247 1305 l 2
 250 1334 273 1348 296 1348 c 0
 317 1348 339 1336 345 1313 c 0
 408 1083 548 779 651 602 c 0
 708 504 748 479 757 479 c 0
 766 479 801 495 854 586 c 0
 972 785 1114 1141 1151 1326 c 0
 1156 1349 1177 1366 1200 1366 c 0
 1231 1366 1249 1338 1250 1318 c 0
 1268 806 1324 466 1428 23 c 0
 1429 19 1430 14 1430 10 c 0
 1430 -19 1404 -37 1378 -37 c 0
 1357 -37 1336 -25 1330 1 c 0
 1246 360 1192 655 1165 1027 c 1
 1103 857 1018 667 940 536 c 0
 887 447 834 379 757 379 c 0
 672 379 618 460 565 552 c 0
 488 684 395 876 323 1065 c 1
 210 -5 l 2
EndSplineSet
Colour: ffff
EndChar

StartChar: N
Encoding: 78 78 26
Width: 1227
VWidth: 2426
Flags: HMW
LayerCount: 2
Fore
SplineSet
210 -2 m 0
 209 -33 184 -48 160 -48 c 0
 135 -48 110 -33 110 -1 c 0
 110 445 149 865 155 1317 c 0
 156 1347 181 1365 206 1365 c 0
 221 1365 235 1359 245 1346 c 0
 525 979 780 582 1004 191 c 1
 1017 1362 l 2
 1017 1394 1042 1409 1067 1409 c 0
 1092 1409 1118 1393 1117 1360 c 2
 1102 3 l 2
 1101 -26 1076 -45 1050 -45 c 0
 1034 -45 1018 -37 1008 -20 c 0
 786 380 533 788 253 1169 c 1
 245 771 228 395 210 -2 c 0
EndSplineSet
Colour: ffff
EndChar

StartChar: O
Encoding: 79 79 27
Width: 1485
VWidth: 2426
Flags: HMW
LayerCount: 2
Fore
SplineSet
713 95 m 0
 1035 95 1275 322 1275 684 c 0
 1275 1011 1089 1266 799 1266 c 0
 460 1266 210 977 210 613 c 0
 210 285 419 95 713 95 c 0
713 -5 m 0
 367 -5 110 233 110 613 c 0
 110 1021 396 1366 799 1366 c 0
 1161 1366 1375 1045 1375 684 c 0
 1375 270 1089 -5 713 -5 c 0
EndSplineSet
Colour: ffff
EndChar

StartChar: P
Encoding: 80 80 28
Width: 1269
VWidth: 2426
Flags: HMW
LayerCount: 2
Fore
SplineSet
159 1087 m 0
 131 1087 110 1112 110 1138 c 0
 110 1150 114 1161 122 1170 c 0
 230 1293 451 1366 636 1366 c 0
 929 1366 1159 1160 1159 862 c 0
 1159 552 843 359 560 359 c 0
 507 359 418 364 342 378 c 1
 308 -4 l 2
 305 -34 282 -48 258 -48 c 0
 233 -48 208 -31 208 -1 c 2
 208 4 l 1
 244 409 l 1
 233 418 228 432 228 445 c 0
 228 463 237 480 251 490 c 1
 306 1105 l 2
 309 1135 332 1149 356 1149 c 0
 381 1149 406 1132 406 1102 c 2
 406 1097 l 1
 351 479 l 1
 417 467 512 459 560 459 c 0
 809 459 1059 630 1059 862 c 0
 1059 1102 881 1266 636 1266 c 0
 473 1266 276 1193 198 1104 c 0
 188 1093 173 1087 159 1087 c 0
EndSplineSet
Colour: ffff
EndChar

StartChar: Q
Encoding: 81 81 29
Width: 1485
VWidth: 1823
Flags: HMW
LayerCount: 2
Fore
SplineSet
833 438 m 0
 833 464 853 489 882 489 c 0
 898 489 914 482 924 468 c 0
 1056 286 1173 150 1341 3 c 0
 1352 -7 1358 -22 1358 -36 c 0
 1358 -64 1333 -85 1307 -85 c 0
 1295 -85 1284 -81 1275 -73 c 0
 1101 80 976 224 842 410 c 0
 836 418 833 428 833 438 c 0
EndSplineSet
Refer: 27 79 N 1 0 0 1 0 0 2
Colour: ffff
EndChar

StartChar: R
Encoding: 82 82 30
Width: 1270
VWidth: 1823
Flags: HMW
LayerCount: 2
Fore
SplineSet
261 431 m 1
 240 443 221 456 221 482 c 0
 221 507 239 531 268 533 c 1
 306 1105 l 2
 308 1136 331 1150 355 1150 c 0
 381 1150 408 1132 406 1099 c 2
 365 494 l 1
 431 469 497 457 560 457 c 0
 817 457 1027 643 1027 862 c 0
 1027 1105 865 1266 622 1266 c 0
 460 1266 277 1194 198 1104 c 0
 188 1093 173 1087 159 1087 c 0
 131 1087 110 1112 110 1138 c 0
 110 1150 114 1161 122 1170 c 0
 229 1292 436 1366 622 1366 c 0
 917 1366 1127 1157 1127 862 c 0
 1127 584 876 371 588 358 c 1
 1135 43 l 2
 1152 33 1159 18 1159 3 c 0
 1159 -23 1138 -50 1110 -50 c 0
 1102 -50 1094 -48 1085 -43 c 2
 357 375 l 1
 332 -3 l 2
 330 -34 307 -48 283 -48 c 0
 257 -48 230 -30 232 3 c 2
 261 431 l 1
EndSplineSet
Colour: ffff
EndChar

StartChar: S
Encoding: 83 83 31
Width: 1182
VWidth: 2426
Flags: HMW
LayerCount: 2
Fore
SplineSet
985 1274 m 0
 1003 1264 1010 1249 1010 1233 c 0
 1010 1206 989 1179 961 1179 c 0
 953 1179 945 1181 937 1186 c 0
 843 1238 732 1266 619 1266 c 0
 398 1266 215 1137 215 960 c 0
 215 843 373 781 596 714 c 0
 802 652 1072 578 1072 343 c 0
 1072 78 808 -5 578 -5 c 0
 414 -5 248 32 136 94 c 0
 118 104 111 119 111 135 c 0
 111 162 132 189 160 189 c 0
 168 189 176 187 184 182 c 0
 274 132 430 95 578 95 c 0
 802 95 972 170 972 343 c 0
 972 482 798 548 568 618 c 0
 371 677 115 745 115 960 c 0
 115 1217 370 1366 619 1366 c 0
 748 1366 875 1336 985 1274 c 0
EndSplineSet
Colour: ffff
EndChar

StartChar: T
Encoding: 84 84 32
Width: 1423
VWidth: 2426
Flags: HMW
LayerCount: 2
Fore
SplineSet
159 1266 m 2
 127 1266 112 1291 112 1316 c 0
 112 1341 128 1366 160 1366 c 2
 161 1366 l 1
 1264 1347 l 2
 1296 1347 1311 1322 1311 1297 c 0
 1311 1272 1295 1247 1263 1247 c 2
 1262 1247 l 1
 764 1256 l 1
 753 1021 748 790 748 551 c 0
 748 368 758 187 758 3 c 0
 758 -29 732 -45 707 -45 c 0
 683 -45 659 -30 658 1 c 0
 652 184 648 367 648 551 c 0
 648 790 653 1022 664 1257 c 1
 159 1266 l 2
EndSplineSet
Colour: ffff
EndChar

StartChar: U
Encoding: 85 85 33
Width: 1230
VWidth: 2426
Flags: HMW
LayerCount: 2
Fore
SplineSet
185 1345 m 0
 191 1371 211 1383 232 1383 c 0
 258 1383 284 1365 284 1335 c 0
 284 1331 284 1327 283 1323 c 0
 241 1131 210 946 210 734 c 0
 210 367 280 95 591 95 c 0
 978 95 1020 649 1020 1095 c 0
 1020 1184 1012 1274 1012 1362 c 0
 1012 1393 1037 1409 1062 1409 c 0
 1086 1409 1111 1394 1112 1363 c 0
 1116 1276 1120 1185 1120 1095 c 0
 1120 687 1102 -5 591 -5 c 0
 184 -5 110 373 110 734 c 0
 110 956 143 1151 185 1345 c 0
EndSplineSet
Colour: ffff
EndChar

StartChar: V
Encoding: 86 86 34
Width: 1368
VWidth: 2426
Flags: HMW
LayerCount: 2
Fore
SplineSet
114 1297 m 2
 111 1304 110 1311 110 1317 c 0
 110 1346 137 1365 163 1365 c 0
 180 1365 197 1356 206 1335 c 2
 670 176 l 1
 1162 1336 l 2
 1171 1356 1187 1365 1204 1365 c 0
 1230 1365 1258 1345 1258 1316 c 0
 1258 1310 1257 1303 1254 1296 c 2
 715 25 l 2
 707 6 687 -5 668 -5 c 0
 650 -5 631 5 623 26 c 2
 114 1297 l 2
EndSplineSet
Colour: ffff
EndChar

StartChar: W
Encoding: 87 87 35
Width: 2006
VWidth: 2426
Flags: HMW
LayerCount: 2
Fore
SplineSet
112 1335 m 2
 110 1340 110 1346 110 1351 c 0
 110 1380 136 1398 162 1398 c 0
 181 1398 201 1387 208 1363 c 2
 561 192 l 1
 984 1198 l 2
 993 1219 1011 1228 1029 1228 c 0
 1050 1228 1070 1216 1077 1195 c 2
 1415 201 l 1
 1799 1332 l 2
 1807 1355 1825 1365 1844 1365 c 0
 1870 1365 1896 1346 1896 1317 c 0
 1896 1312 1895 1306 1893 1300 c 2
 1462 29 l 2
 1455 8 1434 -4 1414 -4 c 0
 1395 -4 1376 7 1368 29 c 2
 1025 1038 l 1
 599 26 l 2
 591 7 571 -3 552 -3 c 0
 532 -3 512 8 505 31 c 2
 112 1335 l 2
EndSplineSet
Colour: ffff
EndChar

StartChar: X
Encoding: 88 88 36
Width: 1267
VWidth: 2426
Flags: HMW
LayerCount: 2
Fore
SplineSet
153 1276 m 0
 153 1302 173 1327 202 1327 c 0
 218 1327 234 1320 244 1306 c 2
 623 769 l 1
 1029 1366 l 2
 1038 1380 1053 1388 1069 1388 c 0
 1097 1388 1120 1365 1120 1339 c 0
 1120 1329 1117 1319 1111 1310 c 2
 684 682 l 1
 1148 25 l 2
 1154 17 1157 7 1157 -3 c 0
 1157 -29 1137 -54 1108 -54 c 0
 1092 -54 1076 -47 1066 -33 c 2
 624 594 l 1
 201 -28 l 2
 192 -42 177 -50 161 -50 c 0
 133 -50 110 -27 110 -1 c 0
 110 9 113 19 119 28 c 2
 563 681 l 1
 162 1248 l 2
 156 1256 153 1266 153 1276 c 0
EndSplineSet
Colour: ffff
EndChar

StartChar: Y
Encoding: 89 89 37
Width: 1267
VWidth: 2426
Flags: HMW
LayerCount: 2
Fore
SplineSet
1108 1387 m 0
 1137 1387 1156 1363 1156 1337 c 0
 1156 1327 1154 1318 1148 1310 c 2
 675 618 l 1
 686 1 l 2
 687 -32 660 -48 635 -48 c 0
 610 -48 586 -33 586 -1 c 2
 575 617 l 1
 119 1258 l 2
 113 1266 110 1276 110 1286 c 0
 110 1312 130 1337 159 1337 c 0
 175 1337 191 1330 201 1316 c 2
 624 720 l 1
 1066 1366 l 2
 1075 1380 1092 1387 1108 1387 c 0
EndSplineSet
Colour: ffff
EndChar

StartChar: Z
Encoding: 90 90 38
Width: 1422
VWidth: 2426
Flags: HMW
LayerCount: 2
Fore
SplineSet
172 1191 m 0
 167 1190 163 1189 159 1189 c 0
 130 1189 111 1216 111 1242 c 0
 111 1262 122 1283 148 1289 c 0
 351 1340 534 1366 745 1366 c 2
 777 1366 l 2
 901 1366 1150 1359 1150 1211 c 0
 1150 1172 1130 1137 1100 1105 c 0
 788 761 538 477 303 108 c 1
 594 138 885 154 1197 154 c 2
 1262 154 l 2
 1289 154 1312 131 1312 104 c 0
 1312 77 1289 54 1262 54 c 2
 1197 54 l 2
 853 54 532 33 212 -3 c 0
 210 -3 208 -3 206 -3 c 0
 176 -3 156 22 156 48 c 0
 156 57 158 65 163 73 c 0
 421 496 688 801 1026 1173 c 0
 1048 1197 1050 1210 1050 1211 c 0
 1050 1228 906 1266 745 1266 c 0
 542 1266 369 1240 172 1191 c 0
EndSplineSet
Colour: ffff
EndChar

StartChar: zero
Encoding: 48 48 39
Width: 1141
VWidth: 2426
Flags: HMW
LayerCount: 2
Fore
SplineSet
210 516 m 0
 210 274 278 95 490 95 c 0
 820 95 931 498 931 873 c 0
 931 1117 815 1311 600 1311 c 0
 315 1311 210 855 210 516 c 0
110 516 m 0
 110 835 197 1411 600 1411 c 0
 895 1411 1031 1141 1031 873 c 0
 1031 506 926 -5 490 -5 c 0
 190 -5 110 268 110 516 c 0
EndSplineSet
Colour: ffff
EndChar

StartChar: one
Encoding: 49 49 40
Width: 616
VWidth: 2426
Flags: HMW
LayerCount: 2
Fore
SplineSet
429 -3 m 2
 427 -34 404 -48 380 -48 c 0
 354 -48 327 -30 329 3 c 2
 401 1230 l 1
 334 1172 261 1119 185 1075 c 0
 176 1070 168 1068 160 1068 c 0
 132 1068 111 1095 111 1121 c 0
 111 1136 118 1151 135 1161 c 0
 224 1213 313 1283 388 1353 c 0
 395 1360 409 1366 422 1366 c 2
 456 1366 l 2
 483 1366 508 1342 506 1313 c 2
 429 -3 l 2
EndSplineSet
Colour: ffff
EndChar

StartChar: two
Encoding: 50 50 41
Width: 1171
VWidth: 2426
Flags: HMW
LayerCount: 2
Fore
SplineSet
208 824 m 0
 181 824 158 847 158 874 c 0
 158 1128 333 1366 609 1366 c 0
 852 1366 1003 1180 1003 991 c 0
 1003 747 799 560 571 352 c 2
 302 107 l 1
 410 114 517 117 626 117 c 0
 753 117 883 112 1013 106 c 0
 1044 105 1059 80 1059 56 c 0
 1059 31 1044 6 1012 6 c 0
 1011 6 1010 6 1009 6 c 0
 879 12 751 17 626 17 c 0
 469 17 318 11 165 -5 c 1
 161 -5 l 2
 134 -5 110 20 110 47 c 0
 110 59 115 72 126 82 c 2
 503 426 l 2
 737 640 903 807 903 991 c 0
 903 1128 796 1266 609 1266 c 0
 399 1266 258 1086 258 874 c 0
 258 847 235 824 208 824 c 0
EndSplineSet
Colour: ffff
EndChar

StartChar: three
Encoding: 51 51 42
Width: 1078
VWidth: 2426
Flags: HMW
LayerCount: 2
Fore
SplineSet
110 156 m 0
 110 185 133 206 160 206 c 0
 171 206 183 202 192 195 c 0
 272 129 378 95 484 95 c 0
 701 95 867 222 868 432 c 1
 862 576 752 623 571 638 c 0
 559 639 546 640 534 640 c 0
 475 640 418 628 368 621 c 0
 365 621 363 620 360 620 c 0
 330 620 313 646 313 671 c 0
 313 693 325 715 352 720 c 0
 426 733 514 744 583 762 c 0
 730 801 820 860 820 978 c 0
 820 1192 705 1266 581 1266 c 0
 449 1266 307 1174 274 1026 c 0
 268 1000 248 988 227 988 c 0
 201 988 175 1006 175 1036 c 0
 175 1040 175 1044 176 1048 c 0
 221 1248 407 1366 581 1366 c 0
 757 1366 920 1240 920 978 c 0
 920 845 837 760 736 711 c 1
 861 675 962 592 968 434 c 1
 968 156 740 -5 484 -5 c 0
 358 -5 228 35 128 117 c 0
 116 127 110 141 110 156 c 0
EndSplineSet
Colour: ffff
EndChar

StartChar: four
Encoding: 52 52 43
Width: 1268
VWidth: 2426
Flags: HMW
LayerCount: 2
Fore
SplineSet
784 930 m 2
 787 959 809 972 832 972 c 0
 858 972 884 955 884 924 c 0
 884 922 884 920 884 918 c 2
 821 373 l 1
 915 388 1007 408 1096 430 c 0
 1100 431 1105 432 1109 432 c 0
 1139 432 1157 404 1157 378 c 0
 1157 358 1146 338 1120 332 c 0
 1020 308 915 287 809 270 c 1
 778 -6 l 2
 775 -35 753 -48 730 -48 c 0
 704 -48 678 -31 678 -0 c 0
 678 2 678 4 678 6 c 2
 707 256 l 1
 594 242 481 234 368 234 c 0
 325 234 282 236 237 242 c 0
 196 246 110 271 110 359 c 0
 110 399 126 429 142 450 c 0
 361 746 532 977 676 1335 c 0
 685 1356 702 1365 719 1365 c 0
 745 1365 772 1346 772 1317 c 0
 772 1311 771 1304 768 1297 c 0
 618 927 442 688 222 390 c 0
 217 383 210 367 210 359 c 0
 210 335 338 334 368 334 c 0
 484 334 602 343 719 358 c 1
 784 930 l 2
EndSplineSet
Colour: ffff
EndChar

StartChar: five
Encoding: 53 53 44
Width: 1133
VWidth: 2426
Flags: HMW
LayerCount: 2
Fore
SplineSet
110 151 m 0
 110 179 135 200 161 200 c 0
 172 200 182 196 191 189 c 0
 280 118 389 83 496 83 c 0
 718 83 923 227 923 510 c 0
 923 777 737 916 538 916 c 0
 440 916 335 881 252 807 c 0
 242 798 231 794 220 794 c 0
 193 794 167 817 169 848 c 2
 205 1345 l 2
 207 1369 230 1391 256 1391 c 0
 259 1391 262 1391 265 1390 c 0
 343 1374 494 1366 637 1366 c 0
 768 1366 895 1374 953 1386 c 0
 957 1387 960 1387 964 1387 c 0
 994 1387 1011 1361 1011 1335 c 0
 1011 1314 1000 1293 973 1288 c 0
 899 1272 772 1266 637 1266 c 0
 517 1266 392 1271 301 1283 c 1
 277 947 l 1
 361 995 450 1016 538 1016 c 0
 787 1016 1023 833 1023 510 c 0
 1023 167 762 -17 496 -17 c 0
 367 -17 236 26 129 111 c 0
 117 121 110 136 110 151 c 0
EndSplineSet
Colour: ffff
EndChar

StartChar: six
Encoding: 54 54 45
Width: 1130
VWidth: 2426
Flags: HMW
LayerCount: 2
Fore
SplineSet
623 941 m 0
 865 941 1020 747 1020 490 c 0
 1020 243 829 -5 564 -5 c 0
 288 -5 157 198 143 437 c 1
 123 444 110 465 110 485 c 0
 110 489 111 494 112 498 c 0
 122 532 133 563 146 593 c 1
 148 627 152 661 157 695 c 0
 196 961 318 1227 588 1373 c 0
 596 1377 604 1379 612 1379 c 0
 640 1379 662 1352 662 1326 c 0
 662 1310 654 1295 636 1285 c 0
 437 1178 328 995 277 790 c 1
 377 890 503 941 623 941 c 0
245 569 m 1
 243 540 242 513 242 483 c 0
 242 253 340 95 564 95 c 0
 761 95 920 287 920 490 c 0
 920 666 844 769 747 814 c 0
 709 832 667 841 622 841 c 0
 506 841 378 779 288 646 c 0
 272 623 258 597 245 569 c 1
EndSplineSet
Colour: ffff
EndChar

StartChar: eight
Encoding: 56 56 46
Width: 1079
VWidth: 2426
Flags: HMW
LayerCount: 2
Fore
SplineSet
887 1215 m 0
 887 1187 863 1165 837 1165 c 0
 826 1165 816 1168 807 1175 c 0
 731 1232 625 1266 512 1266 c 0
 310 1266 210 1146 210 994 c 0
 210 891 284 811 378 753 c 1
 539 880 747 975 899 1042 c 0
 906 1045 914 1047 920 1047 c 0
 948 1047 968 1019 968 993 c 0
 968 976 959 959 939 950 c 0
 801 889 621 806 478 703 c 1
 637 638 881 546 881 350 c 0
 881 138 709 -5 506 -5 c 0
 297 -5 138 142 138 354 c 0
 138 483 207 593 300 684 c 1
 204 749 110 851 110 994 c 0
 110 1200 260 1366 512 1366 c 0
 645 1366 771 1326 867 1255 c 0
 880 1246 887 1230 887 1215 c 0
391 632 m 1
 296 545 238 452 238 354 c 0
 238 198 347 95 506 95 c 0
 663 95 781 200 781 350 c 0
 781 451 624 538 448 607 c 0
 430 614 411 623 391 632 c 1
EndSplineSet
Colour: ffff
EndChar

StartChar: period
Encoding: 46 46 47
Width: 399
VWidth: 1823
Flags: HMW
LayerCount: 2
Fore
SplineSet
116 97 m 0
 116 140 159 173 208 173 c 0
 257 173 284 141 284 92 c 0
 284 43 252 0 203 0 c 0
 154 0 116 49 116 97 c 0
EndSplineSet
Colour: ff0000
EndChar

StartChar: comma
Encoding: 44 44 49
Width: 478
VWidth: 1823
Flags: HMW
LayerCount: 2
Fore
SplineSet
155 -232 m 2
 145 -249 130 -256 115 -256 c 0
 89 -256 62 -235 62 -207 c 0
 62 -199 64 -191 69 -182 c 2
 299 214 l 2
 309 231 324 238 339 238 c 0
 365 238 392 217 392 189 c 0
 392 181 390 173 385 164 c 2
 155 -232 l 2
EndSplineSet
Colour: ffff
EndChar

StartChar: bracketleft
Encoding: 91 91 51
Width: 562
VWidth: 2426
Flags: HMW
LayerCount: 2
Fore
SplineSet
84 266 m 0
 84 496 108 738 108 972 c 0
 108 1087 88 1203 88 1319 c 0
 88 1340 107 1371 138 1371 c 2
 142 1371 l 1
 193 1367 243 1366 295 1366 c 0
 347 1366 397 1367 445 1371 c 1
 450 1371 l 2
 481 1371 497 1345 497 1320 c 0
 497 1297 483 1273 453 1271 c 0
 401 1267 349 1266 295 1266 c 0
 261 1266 226 1267 194 1268 c 1
 204 1167 208 1071 208 972 c 0
 208 735 184 496 184 266 c 0
 184 120 246 104 446 95 c 0
 477 94 492 69 492 45 c 0
 492 20 477 -5 445 -5 c 0
 444 -5 443 -5 442 -5 c 0
 244 4 84 40 84 266 c 0
EndSplineSet
Colour: ffff
EndChar

StartChar: bracketright
Encoding: 93 93 52
Width: 735
VWidth: 2426
Flags: HMW
LayerCount: 2
Fore
SplineSet
376 285 m 0
 376 477 322 679 322 875 c 0
 322 1040 323 1132 349 1268 c 1
 261 1272 171 1281 92 1294 c 0
 64 1298 52 1319 52 1341 c 0
 52 1366 68 1393 99 1393 c 0
 102 1393 105 1392 108 1392 c 0
 201 1377 306 1368 411 1366 c 0
 440 1365 460 1339 460 1314 c 0
 460 1311 460 1308 459 1305 c 0
 424 1144 422 1063 422 875 c 0
 422 682 476 480 476 285 c 0
 476 46 293 -5 107 -5 c 0
 80 -5 57 18 57 45 c 0
 57 72 80 95 107 95 c 0
 285 95 376 126 376 285 c 0
EndSplineSet
Colour: ffff
EndChar

StartChar: braceleft
Encoding: 123 123 53
Width: 564
VWidth: 1839
Flags: HMW
LayerCount: 2
Fore
SplineSet
311 1186 m 0
 311 1134 317 1090 317 1028 c 2
 317 983 l 2
 317 881 313 788 269 730 c 1
 309 652 322 525 322 413 c 0
 322 340 308 279 308 215 c 0
 308 128 331 95 458 95 c 0
 485 95 508 72 508 45 c 0
 508 18 485 -5 458 -5 c 0
 295 -5 208 74 208 215 c 0
 208 281 222 337 222 413 c 0
 222 522 203 647 178 690 c 1
 146 695 113 710 113 746 c 0
 113 779 145 799 175 799 c 0
 181 799 188 798 194 797 c 1
 208 823 217 894 217 983 c 0
 217 1057 211 1128 211 1186 c 0
 211 1320 287 1411 455 1411 c 0
 482 1411 505 1388 505 1361 c 0
 505 1334 482 1311 455 1311 c 0
 331 1311 311 1274 311 1186 c 0
EndSplineSet
Colour: ffff
EndChar

StartChar: grave
Encoding: 96 96 55
Width: 525
VWidth: 2426
Flags: HMW
LayerCount: 2
Fore
SplineSet
131 1481 m 0
 131 1507 152 1532 180 1532 c 0
 195 1532 210 1525 220 1513 c 0
 284 1432 358 1295 406 1190 c 0
 409 1183 411 1176 411 1169 c 0
 411 1140 383 1120 357 1120 c 0
 340 1120 324 1128 315 1148 c 0
 270 1247 196 1382 142 1451 c 0
 135 1460 131 1470 131 1481 c 0
EndSplineSet
Colour: ffff
EndChar

StartChar: bar
Encoding: 124 124 56
Width: 356
VWidth: 2426
Flags: HMW
LayerCount: 2
Fore
SplineSet
176 1509 m 0
 203 1509 226 1486 226 1459 c 0
 226 1039 216 366 209 -1 c 0
 209 -33 184 -48 159 -48 c 0
 134 -48 109 -32 109 0 c 0
 109 367 126 1041 126 1459 c 0
 126 1486 149 1509 176 1509 c 0
EndSplineSet
Colour: ffff
EndChar

StartChar: asciicircum
Encoding: 94 94 57
Width: 703
VWidth: 2426
Flags: HMW
LayerCount: 2
Fore
SplineSet
208 1143 m 2
 198 1126 183 1120 168 1120 c 0
 141 1120 114 1141 114 1169 c 0
 114 1177 117 1186 122 1195 c 2
 288 1464 l 2
 298 1479 314 1487 331 1487 c 0
 342 1487 354 1484 363 1476 c 0
 457 1397 522 1308 578 1191 c 0
 582 1183 583 1176 583 1169 c 0
 583 1141 556 1120 530 1120 c 0
 514 1120 497 1128 488 1147 c 0
 446 1236 402 1301 342 1360 c 1
 208 1143 l 2
EndSplineSet
Colour: ffff
EndChar

StartChar: hyphen
Encoding: 45 45 58
Width: 1037
VWidth: 2426
Flags: HMW
LayerCount: 2
Fore
SplineSet
164 387 m 1
 159 387 l 2
 129 387 112 412 112 437 c 0
 112 461 126 484 156 487 c 0
 411 509 632 511 877 511 c 0
 904 511 927 488 927 461 c 0
 927 434 904 411 877 411 c 0
 632 411 415 409 164 387 c 1
EndSplineSet
Colour: ffff
EndChar

StartChar: plus
Encoding: 43 43 59
Width: 1033
VWidth: 2426
Flags: HMW
LayerCount: 2
Fore
SplineSet
166 591 m 1
 159 591 l 2
 129 591 112 616 112 642 c 0
 112 665 125 687 154 691 c 0
 259 704 360 710 461 714 c 1
 454 829 439 947 418 1042 c 0
 417 1046 417 1050 417 1054 c 0
 417 1084 443 1102 469 1102 c 0
 490 1102 510 1090 516 1064 c 0
 539 961 554 837 561 717 c 1
 580 717 599 717 618 717 c 0
 703 717 788 715 875 711 c 0
 906 710 921 685 921 661 c 0
 921 636 906 611 874 611 c 0
 873 611 872 611 871 611 c 0
 786 615 701 617 618 617 c 2
 565 617 l 1
 565 600 566 583 566 566 c 0
 566 447 558 345 534 277 c 0
 526 254 508 244 489 244 c 0
 463 244 437 263 437 292 c 0
 437 297 438 303 440 309 c 0
 456 355 466 453 466 566 c 0
 466 582 465 598 465 614 c 1
 366 611 268 603 166 591 c 1
EndSplineSet
Colour: ffff
EndChar

StartChar: exclam
Encoding: 33 33 60
Width: 583
VWidth: 0
Flags: HMW
LayerCount: 2
Fore
SplineSet
200 1354 m 0
 200 1357 199 1359 199 1362 c 0
 199 1392 225 1410 251 1410 c 0
 273 1410 296 1397 300 1368 c 0
 336 1101 345 837 345 547 c 0
 345 508 345 466 344 423 c 0
 344 391 319 376 294 376 c 0
 269 376 244 392 244 424 c 0
 244 465 245 508 245 547 c 0
 245 835 236 1093 200 1354 c 0
383 85 m 0
 383 44 355 -5 298 -5 c 0
 258 -5 200 20 200 84 c 0
 200 136 242 178 294 178 c 0
 350 178 383 130 383 85 c 0
EndSplineSet
Colour: ffff
EndChar

StartChar: quotesingle
Encoding: 39 39 62
Width: 331
VWidth: 2426
Flags: HMW
LayerCount: 2
Fore
SplineSet
195 906 m 0
 193 885 177 876 161 876 c 0
 143 876 125 887 125 909 c 0
 125 974 136 1048 136 1126 c 0
 136 1205 125 1288 125 1362 c 0
 125 1384 142 1395 160 1395 c 0
 176 1395 193 1385 195 1364 c 0
 202 1289 206 1206 206 1126 c 0
 206 1048 202 971 195 906 c 0
EndSplineSet
Colour: ffff00
EndChar

StartChar: parenleft
Encoding: 40 40 63
Width: 636
VWidth: 1839
Flags: HMW
LayerCount: 2
Fore
SplineSet
330 1434 m 0
 339 1453 356 1461 372 1461 c 0
 398 1461 425 1440 425 1412 c 0
 425 1405 424 1398 420 1390 c 0
 295 1133 265 963 265 682 c 0
 265 407 338 239 466 -24 c 0
 470 -32 471 -39 471 -46 c 0
 471 -74 444 -95 418 -95 c 0
 402 -95 385 -87 376 -68 c 0
 248 195 165 387 165 682 c 0
 165 971 199 1165 330 1434 c 0
EndSplineSet
Colour: ffff
EndChar

StartChar: less
Encoding: 60 60 65
Width: 585
VWidth: 1839
Flags: HMW
LayerCount: 2
Fore
SplineSet
475 414 m 0
 475 388 455 363 426 363 c 0
 409 363 391 372 382 387 c 0
 311 505 225 605 127 691 c 0
 116 701 111 714 111 727 c 0
 111 743 118 758 128 767 c 0
 226 849 312 947 382 1070 c 0
 392 1087 407 1094 422 1094 c 0
 449 1094 476 1073 476 1045 c 0
 476 1037 474 1028 469 1020 c 0
 403 905 324 810 235 728 c 1
 323 645 402 548 468 439 c 0
 473 431 475 423 475 414 c 0
EndSplineSet
Colour: ffff
EndChar

StartChar: backslash
Encoding: 92 92 66
Width: 967
VWidth: 2426
Flags: HMW
LayerCount: 2
Fore
SplineSet
94 1316 m 0
 94 1342 116 1366 144 1366 c 0
 159 1366 175 1359 184 1346 c 0
 497 924 743 568 936 17 c 0
 938 11 939 5 939 -0 c 0
 939 -29 912 -49 886 -49 c 0
 868 -49 850 -40 842 -17 c 0
 653 522 417 866 104 1286 c 0
 97 1295 94 1305 94 1316 c 0
EndSplineSet
Colour: ffff
EndChar

StartChar: asterisk
Encoding: 42 42 67
Width: 1108
VWidth: 1839
Flags: HMW
LayerCount: 2
Fore
SplineSet
200 620 m 0
 173 620 150 641 150 670 c 0
 150 685 156 699 168 709 c 0
 259 784 354 852 454 914 c 1
 356 966 252 1013 143 1054 c 0
 121 1062 112 1080 112 1098 c 0
 112 1124 132 1152 160 1152 c 0
 166 1152 172 1150 178 1148 c 0
 292 1105 400 1056 503 1001 c 1
 499 1111 488 1222 468 1336 c 0
 467 1339 467 1343 467 1346 c 0
 467 1376 493 1394 519 1394 c 0
 540 1394 561 1381 566 1354 c 0
 587 1234 599 1116 603 1000 c 1
 707 1055 816 1105 931 1148 c 0
 937 1150 943 1152 949 1152 c 0
 977 1152 997 1124 997 1098 c 0
 997 1080 988 1062 966 1054 c 0
 857 1013 753 967 654 914 c 1
 754 852 848 784 939 709 c 0
 951 699 957 685 957 670 c 0
 957 641 934 620 907 620 c 0
 896 620 884 624 875 631 c 0
 788 703 698 768 603 828 c 1
 599 708 586 591 566 474 c 0
 561 446 540 434 518 434 c 0
 493 434 467 450 467 480 c 0
 467 483 467 487 468 490 c 0
 487 602 498 713 502 826 c 1
 407 767 318 702 232 631 c 0
 223 624 211 620 200 620 c 0
EndSplineSet
Colour: ffff
EndChar

StartChar: numbersign
Encoding: 35 35 68
Width: 1734
VWidth: 1823
Flags: HMW
LayerCount: 2
Fore
SplineSet
1174 899 m 1
 705 885 l 1
 599 529 l 1
 1100 511 l 1
 1174 899 l 1
436 -14 m 2
 429 -38 410 -49 390 -49 c 0
 364 -49 338 -31 338 -2 c 0
 338 3 338 9 340 14 c 2
 466 434 l 1
 158 446 l 2
 127 447 112 471 112 495 c 0
 112 520 128 546 160 546 c 2
 162 546 l 1
 495 533 l 1
 600 882 l 1
 253 872 l 1
 251 872 l 2
 220 872 204 897 204 922 c 0
 204 947 219 971 251 972 c 2
 630 983 l 1
 747 1375 l 2
 754 1399 773 1410 793 1410 c 0
 819 1410 845 1392 845 1363 c 0
 845 1358 845 1352 843 1347 c 2
 735 986 l 1
 1193 1000 l 1
 1264 1370 l 2
 1269 1397 1291 1409 1312 1409 c 0
 1337 1409 1363 1392 1363 1362 c 0
 1363 1359 1363 1356 1362 1352 c 2
 1295 1003 l 1
 1573 1011 l 1
 1575 1011 l 2
 1606 1011 1622 986 1622 961 c 0
 1622 936 1607 912 1575 911 c 2
 1276 902 l 1
 1201 507 l 1
 1512 495 l 2
 1543 494 1558 470 1558 446 c 0
 1558 421 1542 395 1510 395 c 2
 1508 395 l 1
 1182 407 l 1
 1102 -9 l 2
 1097 -36 1075 -48 1054 -48 c 0
 1029 -48 1003 -31 1003 -1 c 0
 1003 2 1003 5 1004 9 c 2
 1081 411 l 1
 569 431 l 1
 436 -14 l 2
EndSplineSet
Colour: ffff
EndChar

StartChar: percent
Encoding: 37 37 69
Width: 1348
VWidth: 1823
Flags: HMW
LayerCount: 2
Fore
SplineSet
432 -12 m 0
 425 -37 406 -48 385 -48 c 0
 359 -48 332 -30 332 -1 c 0
 332 3 333 7 334 12 c 0
 475 574 708 979 950 1387 c 0
 960 1404 975 1411 990 1411 c 0
 1017 1411 1043 1389 1043 1361 c 0
 1043 1353 1041 1344 1036 1335 c 0
 794 927 569 536 432 -12 c 0
967 136 m 0
 1056 136 1138 206 1138 283 c 0
 1138 363 1069 424 979 424 c 0
 891 424 843 378 843 293 c 0
 843 201 905 136 967 136 c 0
967 36 m 0
 833 36 743 161 743 293 c 0
 743 432 843 524 979 524 c 0
 1113 524 1238 427 1238 283 c 0
 1238 136 1098 36 967 36 c 0
210 1158 m 0
 210 1070 280 988 357 988 c 0
 437 988 497 1055 497 1145 c 0
 497 1233 452 1281 367 1281 c 0
 274 1281 210 1220 210 1158 c 0
110 1158 m 0
 110 1292 236 1381 367 1381 c 0
 506 1381 597 1281 597 1145 c 0
 597 1011 501 888 357 888 c 0
 210 888 110 1026 110 1158 c 0
EndSplineSet
Colour: ffff
EndChar

StartChar: slash
Encoding: 47 47 70
Width: 965
VWidth: 1839
Flags: HMW
LayerCount: 2
Fore
SplineSet
243 -26 m 0
 233 -43 218 -49 203 -49 c 0
 176 -49 150 -27 150 1 c 0
 150 9 152 17 157 26 c 0
 426 473 619 908 716 1371 c 0
 721 1398 742 1409 763 1409 c 0
 789 1409 815 1392 815 1362 c 0
 815 1358 815 1355 814 1351 c 0
 714 874 516 427 243 -26 c 0
EndSplineSet
Colour: ffff
EndChar

StartChar: equal
Encoding: 61 61 72
Width: 1037
VWidth: 1839
Flags: HMW
LayerCount: 2
Fore
SplineSet
156 825 m 0
 126 828 112 851 112 875 c 0
 112 900 129 925 159 925 c 2
 164 925 l 1
 276 915 466 911 557 911 c 0
 666 911 781 917 873 925 c 1
 878 925 l 2
 909 925 925 899 925 874 c 0
 925 851 911 828 881 825 c 0
 787 817 670 811 557 811 c 0
 464 811 274 815 156 825 c 0
150 422 m 0
 123 427 112 447 112 468 c 0
 112 494 130 521 160 521 c 0
 163 521 166 521 170 520 c 0
 215 511 395 506 498 506 c 0
 603 506 744 511 873 521 c 1
 878 521 l 2
 909 521 925 495 925 470 c 0
 925 447 911 423 881 421 c 0
 749 411 607 406 498 406 c 0
 391 406 217 409 150 422 c 0
EndSplineSet
Colour: ffff
EndChar

StartChar: AE
Encoding: 198 198 75
Width: 1909
VWidth: 2426
Flags: HMW
LayerCount: 2
Fore
SplineSet
1771 1423 m 0
 1775 1424 1780 1425 1784 1425 c 0
 1813 1425 1831 1399 1831 1373 c 0
 1831 1352 1819 1331 1793 1325 c 0
 1623 1285 1444 1267 1258 1267 c 0
 1234 1267 1178 1267 1110 1268 c 1
 1111 1222 1111 1172 1111 1119 c 0
 1111 1008 1111 885 1108 761 c 1
 1123 761 1138 761 1153 761 c 0
 1354 761 1552 755 1701 743 c 0
 1731 741 1745 717 1745 694 c 0
 1745 669 1729 643 1698 643 c 2
 1693 643 l 1
 1548 655 1352 661 1153 661 c 2
 1105 661 l 1
 1099 494 1088 333 1066 208 c 0
 1063 194 1062 181 1062 173 c 0
 1062 103 1141 58 1283 50 c 0
 1409 42 1509 37 1636 37 c 2
 1698 37 l 2
 1718 37 1738 37 1758 38 c 0
 1759 38 1760 38 1761 38 c 0
 1792 38 1808 13 1808 -12 c 0
 1808 -36 1793 -61 1762 -62 c 0
 1740 -63 1719 -63 1698 -63 c 2
 1636 -63 l 2
 1507 -63 1403 -58 1277 -50 c 0
 1137 -42 962 7 962 173 c 0
 962 191 964 207 968 226 c 0
 988 341 999 497 1005 660 c 1
 856 658 687 653 566 646 c 1
 457 388 319 142 172 -32 c 0
 161 -44 148 -49 136 -49 c 0
 109 -49 84 -26 84 1 c 0
 84 11 87 22 96 32 c 0
 229 190 358 419 462 661 c 1
 456 670 453 682 453 693 c 0
 453 716 466 739 496 742 c 1
 579 948 644 1157 676 1334 c 0
 680 1355 701 1375 726 1375 c 2
 728 1375 l 1
 799 1371 1187 1367 1258 1367 c 0
 1438 1367 1609 1385 1771 1423 c 0
607 749 m 1
 726 755 874 758 1007 760 c 1
 1010 884 1011 1118 1011 1119 c 0
 1011 1173 1011 1224 1010 1270 c 1
 918 1271 823 1273 766 1274 c 1
 733 1112 677 930 607 749 c 1
EndSplineSet
Colour: ffff
EndChar

StartChar: cedilla
Encoding: 184 184 77
Width: 729
VWidth: 2426
Flags: HMW
LayerCount: 2
Fore
SplineSet
277 1 m 0
 277 29 302 50 328 50 c 0
 339 50 349 46 358 39 c 0
 452 -37 607 -208 607 -361 c 0
 607 -480 503 -551 319 -551 c 0
 253 -551 190 -542 146 -529 c 0
 122 -522 111 -504 111 -484 c 0
 111 -458 130 -431 159 -431 c 0
 164 -431 169 -431 174 -433 c 0
 207 -442 263 -451 319 -451 c 0
 487 -451 507 -402 507 -361 c 0
 507 -270 380 -107 296 -39 c 0
 284 -29 277 -14 277 1 c 0
EndSplineSet
Colour: ffff
EndChar

StartChar: Oslash
Encoding: 216 216 78
Width: 1485
VWidth: 1823
Flags: HMW
LayerCount: 2
Fore
SplineSet
170 -5 m 0
 141 -5 120 19 120 45 c 0
 120 55 122 64 128 73 c 0
 482 603 861 954 1301 1353 c 0
 1310 1362 1323 1366 1335 1366 c 0
 1362 1366 1384 1344 1384 1316 c 0
 1384 1302 1379 1288 1368 1279 c 0
 928 880 558 537 212 17 c 0
 203 3 186 -5 170 -5 c 0
EndSplineSet
Refer: 27 79 N 1 0 0 1 0 0 2
Colour: ffff
EndChar

StartChar: uni0627
Encoding: 1575 1575 80
Width: 445
VWidth: 1839
Flags: HMW
AnchorPoint: "Anchor-3" 269 1459 basechar 0
AnchorPoint: "Anchor-1" 144 0 basechar 0
LayerCount: 2
Fore
SplineSet
150 1309 m 1
 150 1316 l 2
 150 1347 176 1365 202 1365 c 0
 224 1365 246 1352 250 1323 c 0
 282 1080 295 796 295 531 c 0
 295 365 288 164 274 -3 c 0
 272 -33 248 -47 225 -47 c 0
 200 -47 174 -31 174 0 c 0
 174 165 195 365 195 531 c 0
 195 792 182 1072 150 1309 c 1
EndSplineSet
PairPos2: "'kern' Horizontal Kerning in Arabic lookup 2 per glyph data 0" uni063A dx=-267 dy=0 dh=-267 dv=0 dx=0 dy=0 dh=0 dv=0
PairPos2: "'kern' Horizontal Kerning in Arabic lookup 2 per glyph data 0" uni0639 dx=-267 dy=0 dh=-267 dv=0 dx=0 dy=0 dh=0 dv=0
Substitution2: "'fina' Terminal Forms in Arabic lookup 4 subtable" uniFE8E
PairPos2: "'kern' Horizontal Kerning in Arabic lookup 2 per glyph data 1" uni0639 dx=-200 dy=0 dh=-200 dv=0 dx=0 dy=0 dh=0 dv=0
PairPos2: "'kern' Horizontal Kerning in Arabic lookup 2 per glyph data 1" uni063A dx=-200 dy=0 dh=-200 dv=0 dx=0 dy=0 dh=0 dv=0
Colour: ffff
EndChar

StartChar: uni066E
Encoding: 1646 1646 81
Width: 1706
VWidth: 2370
Flags: HMW
AnchorPoint: "Anchor-3" 829 519 basechar 0
AnchorPoint: "Anchor-1" 794 0 basechar 0
LayerCount: 2
Fore
SplineSet
1398 643 m 0
 1398 671 1422 693 1448 693 c 0
 1459 693 1469 690 1478 683 c 0
 1559 623 1606 508 1606 400 c 0
 1606 44 1096 -5 821 -5 c 0
 531 -5 100 29 100 389 c 0
 100 458 118 550 163 610 c 0
 172 623 188 630 203 630 c 0
 231 630 253 606 253 580 c 0
 253 569 250 559 243 550 c 0
 220 518 200 440 200 389 c 0
 200 143 505 95 821 95 c 0
 1124 95 1506 166 1506 400 c 0
 1506 480 1465 567 1418 603 c 0
 1405 612 1398 628 1398 643 c 0
EndSplineSet
Substitution2: "'fina' Terminal Forms in Arabic lookup 4 subtable" uniFBE8
Colour: ffff
EndChar

StartChar: uni0631
Encoding: 1585 1585 82
Width: 885
VWidth: 2370
Flags: HMW
AnchorPoint: "Anchor-1" 505 -394 basechar 0
AnchorPoint: "Anchor-3" 648 624 basechar 0
LayerCount: 2
Fore
SplineSet
207 -507 m 0
 204 -507 202 -508 199 -508 c 0
 169 -508 151 -482 151 -456 c 0
 151 -434 164 -411 193 -407 c 0
 511 -363 685 -192 685 181 c 0
 685 293 665 415 627 508 c 0
 624 515 623 522 623 528 c 0
 623 556 650 576 676 576 c 0
 693 576 710 567 719 546 c 0
 764 437 785 305 785 181 c 0
 785 -236 567 -457 207 -507 c 0
EndSplineSet
PairPos2: "'kern' Horizontal Kerning in Arabic lookup 2 per glyph data 2" uniFBFE dx=-134 dy=0 dh=-134 dv=0 dx=0 dy=0 dh=0 dv=0
PairPos2: "'kern' Horizontal Kerning in Arabic lookup 2 per glyph data 2" uniFEF3 dx=-134 dy=0 dh=-134 dv=0 dx=0 dy=0 dh=0 dv=0
PairPos2: "'kern' Horizontal Kerning in Arabic lookup 2 per glyph data 2" uniFB58 dx=-134 dy=0 dh=-134 dv=0 dx=0 dy=0 dh=0 dv=0
Substitution2: "'fina' Terminal Forms in Arabic lookup 4 subtable" uniFEAE
PairPos2: "'kern' Horizontal Kerning in Arabic lookup 2 per glyph data 3" uni06A9 dx=-267 dy=0 dh=-267 dv=0 dx=0 dy=0 dh=0 dv=0
PairPos2: "'kern' Horizontal Kerning in Arabic lookup 2 per glyph data 3" uni06AF dx=-267 dy=0 dh=-267 dv=0 dx=0 dy=0 dh=0 dv=0
PairPos2: "'kern' Horizontal Kerning in Arabic lookup 2 per glyph data 3" uniFB90 dx=-267 dy=0 dh=-267 dv=0 dx=0 dy=0 dh=0 dv=0
PairPos2: "'kern' Horizontal Kerning in Arabic lookup 2 per glyph data 3" uniFB94 dx=-267 dy=0 dh=-267 dv=0 dx=0 dy=0 dh=0 dv=0
PairPos2: "'kern' Horizontal Kerning in Arabic lookup 2 per glyph data 3" uniFEDB dx=-267 dy=0 dh=-267 dv=0 dx=0 dy=0 dh=0 dv=0
PairPos2: "'kern' Horizontal Kerning in Arabic lookup 2 per glyph data 2" uni0622 dx=-267 dy=0 dh=-267 dv=0 dx=0 dy=0 dh=0 dv=0
PairPos2: "'kern' Horizontal Kerning in Arabic lookup 2 per glyph data 2" uni0623 dx=-267 dy=0 dh=-267 dv=0 dx=0 dy=0 dh=0 dv=0
PairPos2: "'kern' Horizontal Kerning in Arabic lookup 2 per glyph data 2" uni0624 dx=-233 dy=0 dh=-233 dv=0 dx=0 dy=0 dh=0 dv=0
PairPos2: "'kern' Horizontal Kerning in Arabic lookup 2 per glyph data 2" uni0627 dx=-267 dy=0 dh=-267 dv=0 dx=0 dy=0 dh=0 dv=0
PairPos2: "'kern' Horizontal Kerning in Arabic lookup 2 per glyph data 2" uni0628 dx=-334 dy=0 dh=-334 dv=0 dx=0 dy=0 dh=0 dv=0
PairPos2: "'kern' Horizontal Kerning in Arabic lookup 2 per glyph data 2" uni0629 dx=-334 dy=0 dh=-334 dv=0 dx=0 dy=0 dh=0 dv=0
PairPos2: "'kern' Horizontal Kerning in Arabic lookup 2 per glyph data 2" uni062A dx=-334 dy=0 dh=-334 dv=0 dx=0 dy=0 dh=0 dv=0
PairPos2: "'kern' Horizontal Kerning in Arabic lookup 2 per glyph data 2" uni062B dx=-334 dy=0 dh=-334 dv=0 dx=0 dy=0 dh=0 dv=0
PairPos2: "'kern' Horizontal Kerning in Arabic lookup 2 per glyph data 2" uni062C dx=-111 dy=0 dh=-111 dv=0 dx=0 dy=0 dh=0 dv=0
PairPos2: "'kern' Horizontal Kerning in Arabic lookup 2 per glyph data 2" uni062D dx=-111 dy=0 dh=-111 dv=0 dx=0 dy=0 dh=0 dv=0
PairPos2: "'kern' Horizontal Kerning in Arabic lookup 2 per glyph data 2" uni062E dx=-111 dy=0 dh=-111 dv=0 dx=0 dy=0 dh=0 dv=0
PairPos2: "'kern' Horizontal Kerning in Arabic lookup 2 per glyph data 2" uni062F dx=-334 dy=0 dh=-334 dv=0 dx=0 dy=0 dh=0 dv=0
PairPos2: "'kern' Horizontal Kerning in Arabic lookup 2 per glyph data 2" uni0630 dx=-334 dy=0 dh=-334 dv=0 dx=0 dy=0 dh=0 dv=0
PairPos2: "'kern' Horizontal Kerning in Arabic lookup 2 per glyph data 2" uni0631 dx=-233 dy=0 dh=-233 dv=0 dx=0 dy=0 dh=0 dv=0
PairPos2: "'kern' Horizontal Kerning in Arabic lookup 2 per glyph data 2" uni0632 dx=-233 dy=0 dh=-233 dv=0 dx=0 dy=0 dh=0 dv=0
PairPos2: "'kern' Horizontal Kerning in Arabic lookup 2 per glyph data 2" uni0633 dx=-334 dy=0 dh=-334 dv=0 dx=0 dy=0 dh=0 dv=0
PairPos2: "'kern' Horizontal Kerning in Arabic lookup 2 per glyph data 2" uni0634 dx=-334 dy=0 dh=-334 dv=0 dx=0 dy=0 dh=0 dv=0
PairPos2: "'kern' Horizontal Kerning in Arabic lookup 2 per glyph data 2" uni0635 dx=-334 dy=0 dh=-334 dv=0 dx=0 dy=0 dh=0 dv=0
PairPos2: "'kern' Horizontal Kerning in Arabic lookup 2 per glyph data 2" uni0636 dx=-334 dy=0 dh=-334 dv=0 dx=0 dy=0 dh=0 dv=0
PairPos2: "'kern' Horizontal Kerning in Arabic lookup 2 per glyph data 2" uni0637 dx=-334 dy=0 dh=-334 dv=0 dx=0 dy=0 dh=0 dv=0
PairPos2: "'kern' Horizontal Kerning in Arabic lookup 2 per glyph data 2" uni0638 dx=-334 dy=0 dh=-334 dv=0 dx=0 dy=0 dh=0 dv=0
PairPos2: "'kern' Horizontal Kerning in Arabic lookup 2 per glyph data 2" uni0641 dx=-334 dy=0 dh=-334 dv=0 dx=0 dy=0 dh=0 dv=0
PairPos2: "'kern' Horizontal Kerning in Arabic lookup 2 per glyph data 2" uni0642 dx=-134 dy=0 dh=-134 dv=0 dx=0 dy=0 dh=0 dv=0
PairPos2: "'kern' Horizontal Kerning in Arabic lookup 2 per glyph data 2" uni0643 dx=-334 dy=0 dh=-334 dv=0 dx=0 dy=0 dh=0 dv=0
PairPos2: "'kern' Horizontal Kerning in Arabic lookup 2 per glyph data 2" uni0644 dx=-100 dy=0 dh=-100 dv=0 dx=0 dy=0 dh=0 dv=0
PairPos2: "'kern' Horizontal Kerning in Arabic lookup 2 per glyph data 2" uni0645 dx=-334 dy=0 dh=-334 dv=0 dx=0 dy=0 dh=0 dv=0
PairPos2: "'kern' Horizontal Kerning in Arabic lookup 2 per glyph data 2" uni0646 dx=-134 dy=0 dh=-134 dv=0 dx=0 dy=0 dh=0 dv=0
PairPos2: "'kern' Horizontal Kerning in Arabic lookup 2 per glyph data 2" uni0647 dx=-334 dy=0 dh=-334 dv=0 dx=0 dy=0 dh=0 dv=0
PairPos2: "'kern' Horizontal Kerning in Arabic lookup 2 per glyph data 2" uni0648 dx=-233 dy=0 dh=-233 dv=0 dx=0 dy=0 dh=0 dv=0
PairPos2: "'kern' Horizontal Kerning in Arabic lookup 2 per glyph data 2" uni067E dx=-334 dy=0 dh=-334 dv=0 dx=0 dy=0 dh=0 dv=0
PairPos2: "'kern' Horizontal Kerning in Arabic lookup 2 per glyph data 2" uni0686 dx=-111 dy=0 dh=-111 dv=0 dx=0 dy=0 dh=0 dv=0
PairPos2: "'kern' Horizontal Kerning in Arabic lookup 2 per glyph data 2" uni0698 dx=-233 dy=0 dh=-233 dv=0 dx=0 dy=0 dh=0 dv=0
PairPos2: "'kern' Horizontal Kerning in Arabic lookup 2 per glyph data 2" uni06A9 dx=-601 dy=0 dh=-601 dv=0 dx=0 dy=0 dh=0 dv=0
PairPos2: "'kern' Horizontal Kerning in Arabic lookup 2 per glyph data 2" uni06AF dx=-601 dy=0 dh=-601 dv=0 dx=0 dy=0 dh=0 dv=0
PairPos2: "'kern' Horizontal Kerning in Arabic lookup 2 per glyph data 2" uni06C0 dx=-334 dy=0 dh=-334 dv=0 dx=0 dy=0 dh=0 dv=0
PairPos2: "'kern' Horizontal Kerning in Arabic lookup 2 per glyph data 2" uni06CA dx=-233 dy=0 dh=-233 dv=0 dx=0 dy=0 dh=0 dv=0
PairPos2: "'kern' Horizontal Kerning in Arabic lookup 2 per glyph data 2" uniFB7C dx=-334 dy=0 dh=-334 dv=0 dx=0 dy=0 dh=0 dv=0
PairPos2: "'kern' Horizontal Kerning in Arabic lookup 2 per glyph data 2" uniFB90 dx=-601 dy=0 dh=-601 dv=0 dx=0 dy=0 dh=0 dv=0
PairPos2: "'kern' Horizontal Kerning in Arabic lookup 2 per glyph data 2" uniFB94 dx=-601 dy=0 dh=-601 dv=0 dx=0 dy=0 dh=0 dv=0
PairPos2: "'kern' Horizontal Kerning in Arabic lookup 2 per glyph data 2" uniFE8B dx=-334 dy=0 dh=-334 dv=0 dx=0 dy=0 dh=0 dv=0
PairPos2: "'kern' Horizontal Kerning in Arabic lookup 2 per glyph data 2" uniFE91 dx=-334 dy=0 dh=-334 dv=0 dx=0 dy=0 dh=0 dv=0
PairPos2: "'kern' Horizontal Kerning in Arabic lookup 2 per glyph data 2" uniFE97 dx=-334 dy=0 dh=-334 dv=0 dx=0 dy=0 dh=0 dv=0
PairPos2: "'kern' Horizontal Kerning in Arabic lookup 2 per glyph data 2" uniFE9B dx=-334 dy=0 dh=-334 dv=0 dx=0 dy=0 dh=0 dv=0
PairPos2: "'kern' Horizontal Kerning in Arabic lookup 2 per glyph data 2" uniFE9F dx=-334 dy=0 dh=-334 dv=0 dx=0 dy=0 dh=0 dv=0
PairPos2: "'kern' Horizontal Kerning in Arabic lookup 2 per glyph data 2" uniFEA3 dx=-334 dy=0 dh=-334 dv=0 dx=0 dy=0 dh=0 dv=0
PairPos2: "'kern' Horizontal Kerning in Arabic lookup 2 per glyph data 2" uniFEA7 dx=-334 dy=0 dh=-334 dv=0 dx=0 dy=0 dh=0 dv=0
PairPos2: "'kern' Horizontal Kerning in Arabic lookup 2 per glyph data 2" uniFEB3 dx=-334 dy=0 dh=-334 dv=0 dx=0 dy=0 dh=0 dv=0
PairPos2: "'kern' Horizontal Kerning in Arabic lookup 2 per glyph data 2" uniFEB7 dx=-334 dy=0 dh=-334 dv=0 dx=0 dy=0 dh=0 dv=0
PairPos2: "'kern' Horizontal Kerning in Arabic lookup 2 per glyph data 2" uniFEBB dx=-334 dy=0 dh=-334 dv=0 dx=0 dy=0 dh=0 dv=0
PairPos2: "'kern' Horizontal Kerning in Arabic lookup 2 per glyph data 2" uniFEBF dx=-334 dy=0 dh=-334 dv=0 dx=0 dy=0 dh=0 dv=0
PairPos2: "'kern' Horizontal Kerning in Arabic lookup 2 per glyph data 2" uniFEC3 dx=-334 dy=0 dh=-334 dv=0 dx=0 dy=0 dh=0 dv=0
PairPos2: "'kern' Horizontal Kerning in Arabic lookup 2 per glyph data 2" uniFEC7 dx=-334 dy=0 dh=-334 dv=0 dx=0 dy=0 dh=0 dv=0
PairPos2: "'kern' Horizontal Kerning in Arabic lookup 2 per glyph data 2" uniFECB dx=-334 dy=0 dh=-334 dv=0 dx=0 dy=0 dh=0 dv=0
PairPos2: "'kern' Horizontal Kerning in Arabic lookup 2 per glyph data 2" uniFECF dx=-334 dy=0 dh=-334 dv=0 dx=0 dy=0 dh=0 dv=0
PairPos2: "'kern' Horizontal Kerning in Arabic lookup 2 per glyph data 2" uniFED3 dx=-334 dy=0 dh=-334 dv=0 dx=0 dy=0 dh=0 dv=0
PairPos2: "'kern' Horizontal Kerning in Arabic lookup 2 per glyph data 2" uniFED7 dx=-334 dy=0 dh=-334 dv=0 dx=0 dy=0 dh=0 dv=0
PairPos2: "'kern' Horizontal Kerning in Arabic lookup 2 per glyph data 2" uniFEDB dx=-601 dy=0 dh=-601 dv=0 dx=0 dy=0 dh=0 dv=0
PairPos2: "'kern' Horizontal Kerning in Arabic lookup 2 per glyph data 2" uniFEDF dx=-334 dy=0 dh=-334 dv=0 dx=0 dy=0 dh=0 dv=0
PairPos2: "'kern' Horizontal Kerning in Arabic lookup 2 per glyph data 2" uniFEE3 dx=-334 dy=0 dh=-334 dv=0 dx=0 dy=0 dh=0 dv=0
PairPos2: "'kern' Horizontal Kerning in Arabic lookup 2 per glyph data 2" uniFEE7 dx=-334 dy=0 dh=-334 dv=0 dx=0 dy=0 dh=0 dv=0
PairPos2: "'kern' Horizontal Kerning in Arabic lookup 2 per glyph data 2" uniFEEB dx=-334 dy=0 dh=-334 dv=0 dx=0 dy=0 dh=0 dv=0
PairPos2: "'kern' Horizontal Kerning in Arabic lookup 2 per glyph data 2" uniFEF5 dx=-334 dy=0 dh=-334 dv=0 dx=0 dy=0 dh=0 dv=0
PairPos2: "'kern' Horizontal Kerning in Arabic lookup 2 per glyph data 2" uniFEF7 dx=-334 dy=0 dh=-334 dv=0 dx=0 dy=0 dh=0 dv=0
PairPos2: "'kern' Horizontal Kerning in Arabic lookup 2 per glyph data 2" uniFEF9 dx=-334 dy=0 dh=-334 dv=0 dx=0 dy=0 dh=0 dv=0
PairPos2: "'kern' Horizontal Kerning in Arabic lookup 2 per glyph data 2" uniFEFB dx=-334 dy=0 dh=-334 dv=0 dx=0 dy=0 dh=0 dv=0
PairPos2: "'kern' Horizontal Kerning in Arabic lookup 2 per glyph data 1" uni0639 dx=-134 dy=0 dh=-134 dv=0 dx=0 dy=0 dh=0 dv=0
PairPos2: "'kern' Horizontal Kerning in Arabic lookup 2 per glyph data 1" uni063A dx=-134 dy=0 dh=-134 dv=0 dx=0 dy=0 dh=0 dv=0
Colour: ffff
EndChar

StartChar: uni0633
Encoding: 1587 1587 83
Width: 2426
VWidth: 2315
Flags: HMW
AnchorPoint: "Anchor-1" 720 -526 basechar 0
AnchorPoint: "Anchor-3" 1751 565 basechar 0
LayerCount: 2
Fore
SplineSet
1172 443 m 0
 1172 468 1192 493 1221 493 c 0
 1242 493 1260 478 1267 464 c 0
 1284 428 1297 383 1309 334 c 1
 1327 282 1346 237 1365 200 c 0
 1421 89 1472 54 1553 54 c 0
 1668 54 1748 168 1787 433 c 0
 1791 461 1813 474 1835 474 c 0
 1860 474 1887 457 1887 427 c 0
 1887 424 1886 422 1886 419 c 0
 1881 384 1878 354 1878 326 c 0
 1878 133 1978 55 2051 55 c 0
 2153 55 2226 182 2226 359 c 0
 2226 472 2198 587 2154 654 c 0
 2148 663 2146 671 2146 680 c 0
 2146 708 2172 730 2199 730 c 0
 2213 730 2228 724 2238 708 c 0
 2298 617 2326 486 2326 359 c 0
 2326 174 2249 -45 2051 -45 c 0
 1949 -45 1856 27 1810 142 c 1
 1757 29 1672 -46 1553 -46 c 0
 1472 -46 1402 -15 1348 45 c 1
 1345 -314 1038 -537 689 -537 c 0
 411 -537 100 -389 100 -68 c 0
 100 202 307 414 464 503 c 0
 472 508 480 510 488 510 c 0
 516 510 538 483 538 456 c 0
 538 440 530 425 513 415 c 0
 376 338 200 150 200 -68 c 0
 200 -307 433 -437 689 -437 c 0
 1000 -437 1248 -244 1248 50 c 0
 1248 128 1230 233 1213 306 c 1
 1200 344 1187 385 1174 429 c 0
 1173 434 1172 439 1172 443 c 0
EndSplineSet
Substitution2: "'init' Initial Forms in Arabic lookup 6 subtable" uniFEB3
Substitution2: "'medi' Medial Forms in Arabic lookup 5 subtable" uniFEB4
Substitution2: "'fina' Terminal Forms in Arabic lookup 4 subtable" uniFEB2
Colour: ffff
EndChar

StartChar: uni066F
Encoding: 1647 1647 84
Width: 1441
VWidth: 2370
Flags: HMW
AnchorPoint: "Anchor-1" 720 -526 basechar 0
AnchorPoint: "Anchor-3" 997 823 basechar 0
LayerCount: 2
Fore
SplineSet
1239 118 m 1
 1235 350 1172 593 1008 593 c 0
 886 593 783 442 783 293 c 0
 783 152 889 71 1046 71 c 0
 1123 71 1182 90 1239 118 c 1
344 485 m 0
 371 485 394 462 394 435 c 0
 394 422 389 409 379 399 c 0
 281 304 200 150 200 -28 c 0
 200 -271 436 -436 705 -436 c 0
 998 -436 1199 -263 1234 7 c 1
 1180 -14 1118 -29 1046 -29 c 0
 853 -29 683 84 683 293 c 0
 683 470 802 693 1008 693 c 0
 1282 693 1339 343 1339 113 c 0
 1339 94 1339 76 1338 59 c 0
 1324 -297 1065 -536 705 -536 c 0
 404 -536 100 -347 100 -28 c 0
 100 180 193 358 309 471 c 0
 319 480 331 485 344 485 c 0
EndSplineSet
Substitution2: "'fina' Terminal Forms in Arabic lookup 4 subtable" uniE005
Colour: ffff
EndChar

StartChar: uni06BA
Encoding: 1722 1722 85
Width: 1453
VWidth: 2370
Flags: HMW
AnchorPoint: "Anchor-3" 735 443 basechar 0
AnchorPoint: "Anchor-1" 735 -526 basechar 0
LayerCount: 2
Fore
SplineSet
331 519 m 0
 360 519 381 495 381 469 c 0
 381 459 379 450 373 441 c 0
 255 265 200 140 200 -37 c 0
 200 -242 360 -431 732 -431 c 0
 1005 -431 1253 -289 1253 -1 c 0
 1253 143 1214 299 1138 432 c 0
 1133 441 1131 449 1131 457 c 0
 1131 485 1158 506 1184 506 c 0
 1199 506 1214 499 1224 482 c 0
 1308 333 1353 161 1353 -1 c 0
 1353 -365 1033 -531 732 -531 c 0
 324 -531 100 -308 100 -37 c 0
 100 164 168 315 290 497 c 0
 299 511 315 519 331 519 c 0
EndSplineSet
Colour: ffff
EndChar

StartChar: uni06A1
Encoding: 1697 1697 86
Width: 1699
VWidth: 2370
Flags: HMW
AnchorPoint: "Anchor-1" 801 0 basechar 0
AnchorPoint: "Anchor-3" 1288 1201 basechar 0
LayerCount: 2
Fore
SplineSet
1498 518 m 1
 1486 749 1396 986 1231 986 c 0
 1109 986 1021 843 1021 687 c 0
 1021 543 1110 467 1263 467 c 0
 1352 467 1430 488 1498 518 c 1
202 601 m 0
 231 601 251 576 251 550 c 0
 251 540 248 530 242 522 c 0
 214 483 200 437 200 386 c 0
 200 143 494 95 806 95 c 0
 1132 95 1455 161 1495 409 c 1
 1427 384 1349 367 1263 367 c 0
 1068 367 921 483 921 687 c 0
 921 863 1021 1086 1231 1086 c 0
 1524 1086 1599 693 1599 467 c 0
 1599 60 1140 -5 806 -5 c 0
 518 -5 100 29 100 386 c 0
 100 455 120 523 160 580 c 0
 170 594 186 601 202 601 c 0
EndSplineSet
Substitution2: "'medi' Medial Forms in Arabic lookup 5 subtable" uniE006
Substitution2: "'fina' Terminal Forms in Arabic lookup 4 subtable" uniE005
Colour: ffff
EndChar

StartChar: uni0644
Encoding: 1604 1604 87
Width: 1356
VWidth: 2370
Flags: HMW
AnchorPoint: "Anchor-3" 665 420 basechar 0
AnchorPoint: "Anchor-1" 698 -526 basechar 0
LayerCount: 2
Fore
SplineSet
1104 1362 m 0
 1104 1393 1130 1409 1155 1409 c 0
 1178 1409 1202 1395 1204 1365 c 0
 1230 1058 1256 527 1256 206 c 0
 1256 -180 1057 -477 655 -477 c 0
 376 -477 100 -313 100 25 c 0
 100 202 197 399 336 478 c 0
 345 483 353 485 361 485 c 0
 389 485 410 458 410 432 c 0
 410 417 403 402 386 392 c 0
 289 337 200 170 200 25 c 0
 200 -243 410 -377 655 -377 c 0
 991 -377 1156 -146 1156 206 c 0
 1156 525 1104 1057 1104 1362 c 0
EndSplineSet
Substitution2: "'init' Initial Forms in Arabic lookup 6 subtable" uniFEDF
Substitution2: "'medi' Medial Forms in Arabic lookup 5 subtable" uniFEE0
Substitution2: "'fina' Terminal Forms in Arabic lookup 4 subtable" uniFEDE
Colour: ffff
EndChar

StartChar: uni0645
Encoding: 1605 1605 88
Width: 1201
VWidth: 2370
Flags: HMW
AnchorPoint: "Anchor-3" 737 753 basechar 0
AnchorPoint: "Anchor-1" 654 -170 basechar 0
LayerCount: 2
Fore
SplineSet
483 128 m 1
 564 117 667 95 747 95 c 0
 904 95 1001 158 1001 297 c 0
 1001 464 915 585 768 585 c 0
 579 585 478 427 478 207 c 0
 478 181 480 154 483 128 c 1
442 32 m 0
 440 32 438 32 436 32 c 0
 413 32 385 37 363 37 c 0
 260 37 200 16 200 -144 c 2
 200 -168 l 1
 230 -902 l 2
 232 -935 206 -952 180 -952 c 0
 156 -952 131 -937 130 -906 c 2
 100 -170 l 1
 100 -144 l 2
 100 68 222 137 363 137 c 0
 369 137 375 137 381 137 c 1
 379 160 378 184 378 207 c 0
 378 453 503 685 768 685 c 0
 987 685 1101 496 1101 297 c 0
 1101 86 932 -5 747 -5 c 0
 648 -5 537 21 442 32 c 0
EndSplineSet
Substitution2: "'init' Initial Forms in Arabic lookup 6 subtable" uniFEE3
Substitution2: "'medi' Medial Forms in Arabic lookup 5 subtable" uniFEE4
Substitution2: "'fina' Terminal Forms in Arabic lookup 4 subtable" uniFEE2
Colour: ffff
EndChar

StartChar: uni0635
Encoding: 1589 1589 89
Width: 2493
VWidth: 2315
Flags: HMW
AnchorPoint: "Anchor-1" 720 -526 basechar 0
AnchorPoint: "Anchor-3" 1997 811 basechar 0
LayerCount: 2
Fore
SplineSet
1179 305 m 0
 1179 332 1199 355 1228 355 c 0
 1244 355 1260 348 1269 334 c 0
 1381 172 1507 69 1775 69 c 0
 2011 69 2293 183 2293 372 c 0
 2293 483 2198 564 2071 564 c 0
 1851 564 1670 406 1547 195 c 0
 1537 178 1522 171 1507 171 c 0
 1481 171 1454 192 1454 220 c 0
 1454 228 1456 236 1461 245 c 0
 1592 470 1798 664 2071 664 c 0
 2240 664 2393 549 2393 372 c 0
 2393 77 2013 -31 1775 -31 c 0
 1587 -31 1450 19 1345 102 c 1
 1347 83 1348 68 1348 50 c 0
 1348 -312 1041 -537 689 -537 c 0
 411 -537 100 -389 100 -68 c 0
 100 254 435 423 638 505 c 0
 645 508 652 509 658 509 c 0
 687 509 706 482 706 456 c 0
 706 439 697 422 676 413 c 0
 469 329 200 176 200 -68 c 0
 200 -307 433 -437 689 -437 c 0
 1001 -437 1248 -244 1248 50 c 0
 1248 130 1226 210 1185 280 c 0
 1181 287 1179 295 1179 305 c 0
EndSplineSet
Substitution2: "'init' Initial Forms in Arabic lookup 6 subtable" uniFEBB
Substitution2: "'medi' Medial Forms in Arabic lookup 5 subtable" uniFEBC
Substitution2: "'fina' Terminal Forms in Arabic lookup 4 subtable" uniFEBA
Colour: ffff
EndChar

StartChar: uni0648
Encoding: 1608 1608 90
Width: 857
VWidth: 2370
Flags: HMW
AnchorPoint: "Anchor-1" 458 -408 basechar 0
AnchorPoint: "Anchor-3" 504 811 basechar 0
LayerCount: 2
Fore
SplineSet
646 131 m 0
 647 143 647 156 647 169 c 0
 647 386 589 626 438 626 c 0
 343 626 233 483 233 290 c 0
 233 152 317 96 454 96 c 0
 511 96 575 107 640 129 c 0
 642 130 644 131 646 131 c 0
633 22 m 1
 572 5 511 -4 454 -4 c 0
 283 -4 133 88 133 290 c 0
 133 503 251 726 438 726 c 0
 707 726 747 364 747 169 c 0
 747 -245 486 -445 128 -506 c 0
 125 -507 121 -507 118 -507 c 0
 88 -507 72 -481 72 -456 c 0
 72 -434 84 -413 112 -408 c 0
 396 -360 582 -227 633 22 c 1
EndSplineSet
PairPos2: "'kern' Horizontal Kerning in Arabic lookup 2 per glyph data 4" uni063A dx=178 dy=0 dh=178 dv=0 dx=0 dy=0 dh=0 dv=0
PairPos2: "'kern' Horizontal Kerning in Arabic lookup 2 per glyph data 4" uni0639 dx=178 dy=0 dh=178 dv=0 dx=0 dy=0 dh=0 dv=0
PairPos2: "'kern' Horizontal Kerning in Arabic lookup 2 per glyph data 4" uni0625 dx=223 dy=0 dh=223 dv=0 dx=0 dy=0 dh=0 dv=0
PairPos2: "'kern' Horizontal Kerning in Arabic lookup 2 per glyph data 4" uni06CC dx=89 dy=0 dh=89 dv=0 dx=0 dy=0 dh=0 dv=0
PairPos2: "'kern' Horizontal Kerning in Arabic lookup 2 per glyph data 4" uni0626 dx=89 dy=0 dh=89 dv=0 dx=0 dy=0 dh=0 dv=0
PairPos2: "'kern' Horizontal Kerning in Arabic lookup 2 per glyph data 4" uni064A dx=89 dy=0 dh=89 dv=0 dx=0 dy=0 dh=0 dv=0
PairPos2: "'kern' Horizontal Kerning in Arabic lookup 2 per glyph data 4" uni0649 dx=89 dy=0 dh=89 dv=0 dx=0 dy=0 dh=0 dv=0
Substitution2: "'fina' Terminal Forms in Arabic lookup 4 subtable" uniFEEE
PairPos2: "'kern' Horizontal Kerning in Arabic lookup 2 per glyph data 3" uni06A9 dx=-233 dy=0 dh=-233 dv=0 dx=0 dy=0 dh=0 dv=0
PairPos2: "'kern' Horizontal Kerning in Arabic lookup 2 per glyph data 3" uni06AF dx=-233 dy=0 dh=-233 dv=0 dx=0 dy=0 dh=0 dv=0
PairPos2: "'kern' Horizontal Kerning in Arabic lookup 2 per glyph data 3" uniFB90 dx=-233 dy=0 dh=-233 dv=0 dx=0 dy=0 dh=0 dv=0
PairPos2: "'kern' Horizontal Kerning in Arabic lookup 2 per glyph data 3" uniFB94 dx=-233 dy=0 dh=-233 dv=0 dx=0 dy=0 dh=0 dv=0
PairPos2: "'kern' Horizontal Kerning in Arabic lookup 2 per glyph data 3" uniFEDB dx=-233 dy=0 dh=-233 dv=0 dx=0 dy=0 dh=0 dv=0
Colour: ffff
EndChar

StartChar: uni0637
Encoding: 1591 1591 91
Width: 1491
VWidth: 2370
Flags: HMW
AnchorPoint: "Anchor-3" 1125 811 basechar 0
AnchorPoint: "Anchor-1" 387 0 basechar 0
LayerCount: 2
Fore
SplineSet
476 112 m 1
 553 103 632 98 713 98 c 0
 965 98 1291 256 1291 469 c 0
 1291 587 1195 673 1067 673 c 0
 818 673 583 383 476 112 c 1
328 -46 m 0
 328 -20 337 7 341 31 c 1
 273 43 205 59 137 77 c 0
 112 84 102 103 102 123 c 0
 102 149 120 175 149 175 c 0
 154 175 158 174 163 173 c 0
 227 156 292 142 356 130 c 1
 378 304 386 495 386 678 c 0
 386 948 359 1199 359 1361 c 0
 359 1392 385 1409 410 1409 c 0
 434 1409 457 1394 459 1364 c 0
 470 1204 487 954 487 683 c 0
 487 570 484 453 476 338 c 1
 606 559 814 773 1067 773 c 0
 1241 773 1391 649 1391 469 c 0
 1391 156 977 -2 713 -2 c 0
 621 -2 531 4 443 15 c 1
 436 -9 432 -31 427 -55 c 0
 421 -82 401 -93 380 -93 c 0
 354 -93 328 -76 328 -46 c 0
EndSplineSet
Substitution2: "'init' Initial Forms in Arabic lookup 6 subtable" uniFEC3
Substitution2: "'medi' Medial Forms in Arabic lookup 5 subtable" uniFEC4
Substitution2: "'fina' Terminal Forms in Arabic lookup 4 subtable" uniFEC2
Colour: ffff
EndChar

StartChar: uni06A9
Encoding: 1705 1705 92
Width: 1932
VWidth: 2370
Flags: HMW
AnchorPoint: "Anchor-3" 1331 1342 basechar 0
AnchorPoint: "Anchor-1" 752 0 basechar 0
LayerCount: 2
Fore
SplineSet
1758 1446 m 2
 1766 1451 1774 1453 1782 1453 c 0
 1810 1453 1831 1426 1831 1399 c 0
 1831 1383 1824 1368 1806 1358 c 2
 1053 941 l 1
 1212 788 1379 564 1379 345 c 0
 1379 85 1064 -5 760 -5 c 0
 488 -5 100 39 100 405 c 0
 100 449 107 497 120 548 c 0
 127 573 147 584 167 584 c 0
 193 584 219 567 219 538 c 0
 219 534 218 529 217 524 c 0
 206 479 200 439 200 405 c 0
 200 145 472 95 760 95 c 0
 1072 95 1279 191 1279 345 c 0
 1279 533 1100 769 935 913 c 0
 924 922 919 937 919 951 c 0
 919 968 927 986 944 995 c 2
 1758 1446 l 2
EndSplineSet
Substitution2: "'init' Initial Forms in Arabic lookup 6 subtable" uniFB90
Substitution2: "'medi' Medial Forms in Arabic lookup 5 subtable" uniFB91
Substitution2: "'fina' Terminal Forms in Arabic lookup 4 subtable" uniFB8F
Colour: ffff
EndChar

StartChar: uni062F
Encoding: 1583 1583 93
Width: 880
VWidth: 2370
Flags: HMW
AnchorPoint: "Anchor-3" 483 1006 basechar 0
AnchorPoint: "Anchor-1" 367 0 basechar 0
LayerCount: 2
Fore
SplineSet
345 741 m 0
 325 750 316 767 316 784 c 0
 316 810 336 838 364 838 c 0
 370 838 378 836 385 833 c 0
 552 761 780 543 780 299 c 0
 780 98 596 -5 387 -5 c 0
 309 -5 222 8 134 38 c 0
 111 46 101 64 101 83 c 0
 101 109 120 135 149 135 c 0
 154 135 160 134 166 132 c 0
 244 106 319 95 387 95 c 0
 572 95 680 176 680 299 c 0
 680 481 486 679 345 741 c 0
EndSplineSet
Substitution2: "'fina' Terminal Forms in Arabic lookup 4 subtable" uniFEAA
PairPos2: "'kern' Horizontal Kerning in Arabic lookup 2 per glyph data 3" uni06A9 dx=-267 dy=0 dh=-267 dv=0 dx=0 dy=0 dh=0 dv=0
PairPos2: "'kern' Horizontal Kerning in Arabic lookup 2 per glyph data 3" uni06AF dx=-267 dy=0 dh=-267 dv=0 dx=0 dy=0 dh=0 dv=0
PairPos2: "'kern' Horizontal Kerning in Arabic lookup 2 per glyph data 3" uniFB90 dx=-267 dy=0 dh=-267 dv=0 dx=0 dy=0 dh=0 dv=0
PairPos2: "'kern' Horizontal Kerning in Arabic lookup 2 per glyph data 3" uniFB94 dx=-267 dy=0 dh=-267 dv=0 dx=0 dy=0 dh=0 dv=0
PairPos2: "'kern' Horizontal Kerning in Arabic lookup 2 per glyph data 3" uniFEDB dx=-267 dy=0 dh=-267 dv=0 dx=0 dy=0 dh=0 dv=0
PairPos2: "'kern' Horizontal Kerning in Arabic lookup 2 per glyph data 1" uni0639 dx=-334 dy=0 dh=-334 dv=0 dx=0 dy=0 dh=0 dv=0
PairPos2: "'kern' Horizontal Kerning in Arabic lookup 2 per glyph data 1" uni063A dx=-334 dy=0 dh=-334 dv=0 dx=0 dy=0 dh=0 dv=0
Colour: ffff
EndChar

StartChar: uni062D
Encoding: 1581 1581 94
Width: 1232
VWidth: 2370
Flags: HMW
AnchorPoint: "Anchor-3" 434 811 basechar 0
AnchorPoint: "Anchor-1" 699 -744 basechar 0
LayerCount: 2
Fore
SplineSet
1055 -482 m 0
 1063 -478 1071 -476 1078 -476 c 0
 1106 -476 1127 -503 1127 -529 c 0
 1127 -545 1119 -560 1101 -570 c 0
 973 -638 828 -673 683 -673 c 0
 410 -673 100 -543 100 -231 c 0
 100 208 641 434 910 516 c 1
 739 597 556 715 423 715 c 0
 342 715 271 679 218 527 c 0
 210 504 192 494 173 494 c 0
 147 494 121 513 121 542 c 0
 121 547 122 553 124 559 c 0
 186 737 295 815 423 815 c 0
 658 815 930 587 1092 555 c 0
 1118 550 1131 528 1131 506 c 0
 1131 483 1117 459 1088 456 c 0
 963 442 200 215 200 -231 c 0
 200 -457 426 -573 683 -573 c 0
 812 -573 941 -542 1055 -482 c 0
EndSplineSet
Substitution2: "'init' Initial Forms in Arabic lookup 6 subtable" uniFEA3
Substitution2: "'medi' Medial Forms in Arabic lookup 5 subtable" uniFEA4
Substitution2: "'fina' Terminal Forms in Arabic lookup 4 subtable" uniFEA2
Colour: ffff
EndChar

StartChar: uni0639
Encoding: 1593 1593 95
Width: 1277
VWidth: 2370
Flags: HMW
AnchorPoint: "Anchor-3" 600 1249 basechar 0
AnchorPoint: "Anchor-1" 668 -744 basechar 0
LayerCount: 2
Fore
SplineSet
810 1061 m 0
 810 1033 786 1012 759 1012 c 0
 747 1012 735 1016 726 1025 c 0
 681 1066 617 1090 554 1090 c 0
 404 1090 259 952 259 790 c 0
 259 642 376 554 540 554 c 0
 642 554 730 575 826 582 c 1
 830 582 l 2
 861 582 878 556 878 530 c 0
 878 507 864 484 834 482 c 0
 779 478 731 467 678 446 c 0
 431 351 200 88 200 -169 c 0
 200 -462 429 -592 697 -592 c 0
 838 -592 986 -553 1101 -483 c 0
 1109 -478 1117 -476 1126 -476 c 0
 1152 -476 1177 -496 1177 -525 c 0
 1177 -542 1168 -560 1153 -569 c 0
 1020 -651 856 -692 697 -692 c 0
 399 -692 100 -534 100 -169 c 0
 100 84 274 319 484 457 c 1
 308 477 159 595 159 790 c 0
 159 1010 348 1190 554 1190 c 0
 641 1190 729 1160 794 1099 c 0
 805 1089 810 1075 810 1061 c 0
EndSplineSet
Substitution2: "'init' Initial Forms in Arabic lookup 6 subtable" uniFECB
Substitution2: "'medi' Medial Forms in Arabic lookup 5 subtable" uniFECC
Substitution2: "'fina' Terminal Forms in Arabic lookup 4 subtable" uniFECA
Colour: ffff
EndChar

StartChar: uni0622
Encoding: 1570 1570 97
Width: 460
VWidth: 1823
Flags: HMW
AnchorPoint: "Anchor-1" 202 0 basechar 0
AnchorPoint: "Anchor-3" 339 1953 basechar 0
LayerCount: 2
Fore
SplineSet
-91 1743 m 0
 -91 1725 -87 1711 -87 1695 c 0
 -87 1665 -113 1648 -139 1648 c 0
 -184 1648 -191 1693 -191 1743 c 0
 -191 1937 -46 2069 130 2069 c 0
 248 2069 336 2026 410 1979 c 0
 475 1939 542 1905 628 1905 c 0
 696 1905 754 1951 761 2034 c 0
 764 2064 787 2078 810 2078 c 0
 835 2078 860 2061 860 2031 c 2
 860 2026 l 1
 848 1895 748 1805 628 1805 c 0
 514 1805 427 1851 357 1894 c 0
 289 1937 223 1969 130 1969 c 0
 6 1969 -91 1882 -91 1743 c 0
EndSplineSet
Refer: 80 1575 N 1 0 0 1 78 0 2
Substitution2: "Single Substitution 1 subtable" uniE00A
PairPos2: "'kern' Horizontal Kerning in Arabic lookup 2 per glyph data 0" uni063A dx=-267 dy=0 dh=-267 dv=0 dx=0 dy=0 dh=0 dv=0
PairPos2: "'kern' Horizontal Kerning in Arabic lookup 2 per glyph data 0" uni0639 dx=-267 dy=0 dh=-267 dv=0 dx=0 dy=0 dh=0 dv=0
Ligature2: "'liga' Standard Ligatures in Arabic lookup 10 subtable" uni0627 uni0653
Substitution2: "'fina' Terminal Forms in Arabic lookup 4 subtable" uniFE82
PairPos2: "'kern' Horizontal Kerning in Arabic lookup 2 per glyph data 1" uni0639 dx=-200 dy=0 dh=-200 dv=0 dx=0 dy=0 dh=0 dv=0
PairPos2: "'kern' Horizontal Kerning in Arabic lookup 2 per glyph data 1" uni063A dx=-200 dy=0 dh=-200 dv=0 dx=0 dy=0 dh=0 dv=0
LCarets2: 1 0
Colour: ffff
EndChar

StartChar: uni0647
Encoding: 1607 1607 113
Width: 795
VWidth: 2370
Flags: HMW
AnchorPoint: "Anchor-1" 223 89 basechar 0
AnchorPoint: "Anchor-3" 366 1006 basechar 0
LayerCount: 2
Fore
SplineSet
394 697 m 1
 260 570 200 410 200 292 c 0
 200 185 255 95 389 95 c 0
 527 95 595 188 595 307 c 0
 595 407 528 550 394 697 c 1
245 863 m 0
 245 891 268 913 295 913 c 0
 307 913 318 909 328 901 c 0
 365 869 400 836 432 803 c 0
 596 634 695 458 695 307 c 0
 695 144 587 -5 389 -5 c 0
 191 -5 100 147 100 292 c 0
 100 441 172 624 324 769 c 1
 304 788 283 807 262 825 c 0
 251 835 245 849 245 863 c 0
EndSplineSet
Substitution2: "'init' Initial Forms in Arabic lookup 6 subtable" uniFEEB
Substitution2: "'medi' Medial Forms in Arabic lookup 5 subtable" uniFEEC
Substitution2: "'fina' Terminal Forms in Arabic lookup 4 subtable" uniFEEA
Colour: ffff
EndChar

StartChar: uniFEB3
Encoding: 65203 65203 114
Width: 1544
VWidth: 2370
Flags: HMW
AnchorPoint: "Anchor-1" 844 0 basechar 0
AnchorPoint: "Anchor-3" 911 565 basechar 0
LayerCount: 2
Fore
SplineSet
391 583 m 0
 430 583 444 553 444 519 c 0
 444 490 435 456 431 430 c 0
 426 385 424 343 424 295 c 0
 424 177 499 95 612 95 c 0
 765 95 856 258 856 449 c 0
 856 471 854 494 854 514 c 0
 854 548 861 574 899 577 c 2
 903 577 l 2
 931 577 948 555 952 528 c 0
 980 330 1048 77 1192 77 c 0
 1293 77 1344 184 1344 324 c 0
 1344 422 1317 541 1273 626 c 0
 1269 634 1267 642 1267 649 c 0
 1267 677 1294 698 1320 698 c 0
 1336 698 1351 690 1361 672 c 0
 1415 569 1444 438 1444 324 c 0
 1444 178 1387 -23 1192 -23 c 0
 1043 -23 963 107 918 232 c 1
 870 106 769 -5 612 -5 c 0
 483 -5 383 72 343 183 c 1
 274 72 160 -5 0 -5 c 0
 -27 -5 -50 18 -50 45 c 0
 -50 72 -27 95 0 95 c 0
 206 95 297 250 332 444 c 0
 338 495 337 583 391 583 c 0
EndSplineSet
Colour: ffff
EndChar

StartChar: uniFEB4
Encoding: 65204 65204 115
Width: 1747
VWidth: 2370
Flags: HMW
AnchorPoint: "Anchor-3" 893 565 basechar 0
AnchorPoint: "Anchor-1" 891 0 basechar 0
LayerCount: 2
Fore
SplineSet
1331 598 m 0
 1331 622 1348 649 1380 649 c 0
 1403 649 1424 632 1429 609 c 0
 1479 359 1551 95 1747 95 c 0
 1774 95 1797 72 1797 45 c 0
 1797 18 1774 -5 1747 -5 c 0
 1594 -5 1498 99 1440 217 c 1
 1414 92 1339 -20 1195 -20 c 0
 1045 -20 960 91 918 214 c 1
 873 95 782 -4 626 -4 c 0
 491 -4 411 93 371 207 c 1
 308 70 185 -5 0 -5 c 0
 -27 -5 -50 18 -50 45 c 0
 -50 72 -27 95 0 95 c 0
 250 95 326 236 326 532 c 1
 326 559.599609375 348.400390625 582 376 582 c 0
 403.599609375 582 426 559.599609375 426 532 c 1
 426 280 487 96 626 96 c 0
 811 96 860 295 872 523 c 0
 873 542 890 567 917 570 c 2
 922 570 l 2
 949 570 971 548 972 521 c 0
 976 291 1037 80 1195 80 c 0
 1301 80 1355 185 1355 365 c 0
 1355 411 1351 459 1344 506 c 2
 1331 592 l 2
 1331 594 1331 596 1331 598 c 0
EndSplineSet
Colour: ffff
EndChar

StartChar: uniFEB2
Encoding: 65202 65202 116
Width: 2551
VWidth: 2370
Flags: HMW
AnchorPoint: "Anchor-3" 1773 565 basechar 0
AnchorPoint: "Anchor-1" 749 -526 basechar 0
LayerCount: 2
Fore
SplineSet
504 570 m 0
 530 570 554 548 554 520 c 0
 554 505 547 489 534 480 c 0
 337 334 200 207 200 -43 c 0
 200 -273 424 -399 672 -399 c 0
 973 -399 1212 -211 1212 71 c 0
 1212 159 1198 272 1159 441 c 0
 1158 445 1158 449 1158 453 c 0
 1158 483 1184 501 1210 501 c 0
 1230 501 1250 489 1257 464 c 0
 1326 186 1413 95 1544 95 c 0
 1650 95 1750 209 1787 472 c 0
 1790 492 1810 515 1837 515 c 0
 1865 515 1887 492 1887 465 c 0
 1887 427 1883 391 1883 359 c 0
 1883 162 1939 78 2039 78 c 0
 2143 78 2182 203 2182 363 c 0
 2182 423 2172 533 2162 598 c 1
 2162 605 l 2
 2162 630 2181 653 2208 655 c 2
 2213 655 l 2
 2262 655 2263 600 2269 554 c 0
 2279 493 2290 433 2303 378 c 0
 2346 200 2410 95 2551 95 c 0
 2578 95 2601 72 2601 45 c 0
 2601 18 2578 -5 2551 -5 c 0
 2409 -5 2317 77 2263 186 c 1
 2238 83 2173 -22 2039 -22 c 0
 1915 -22 1836 60 1804 178 c 1
 1745 67 1656 -5 1544 -5 c 0
 1452 -5 1373 31 1312 99 c 1
 1312 71 l 2
 1312 -279 1013 -499 672 -499 c 0
 402 -499 100 -355 100 -43 c 0
 100 255 275 412 474 560 c 0
 483 567 493 570 504 570 c 0
EndSplineSet
Colour: ffff
EndChar

StartChar: uniFE8E
Encoding: 65166 65166 134
Width: 600
VWidth: 2370
Flags: HMW
AnchorPoint: "Anchor-3" 308 1459 basechar 0
AnchorPoint: "Anchor-1" 356 0 basechar 0
LayerCount: 2
Fore
SplineSet
214 1411 m 0
 241 1411 264 1388 264 1361 c 0
 264 1080 250 840 250 648 c 0
 250 256 297 95 598 95 c 2
 600 95 l 2
 627 95 650 72 650 45 c 0
 650 18 627 -5 600 -5 c 2
 598 -5 l 2
 215 -5 150 257 150 648 c 0
 150 845 164 1083 164 1361 c 0
 164 1388 187 1411 214 1411 c 0
EndSplineSet
PairPos2: "'kern' Horizontal Kerning in Arabic lookup 2 per glyph data 1" uni0639 dx=-200 dy=0 dh=-200 dv=0 dx=0 dy=0 dh=0 dv=0
PairPos2: "'kern' Horizontal Kerning in Arabic lookup 2 per glyph data 1" uni063A dx=-200 dy=0 dh=-200 dv=0 dx=0 dy=0 dh=0 dv=0
Colour: ffff
EndChar

StartChar: uniFEA2
Encoding: 65186 65186 142
Width: 1332
VWidth: 1255
Flags: HMW
AnchorPoint: "Anchor-3" 449 811 basechar 0
AnchorPoint: "Anchor-1" 714 -744 basechar 0
LayerCount: 2
Fore
SplineSet
1382 45 m 0
 1382 18 1359 -5 1332 -5 c 0
 1052 -5 842 199 842 458 c 0
 842 490 867 506 892 506 c 0
 917 506 942 490 942 458 c 0
 942 257 1102 95 1332 95 c 0
 1359 95 1382 72 1382 45 c 0
EndSplineSet
Refer: 94 1581 N 1 0 0 1 0 0 2
Colour: ffff
EndChar

StartChar: uniFEA3
Encoding: 65187 65187 143
Width: 1223
VWidth: 2370
Flags: HMW
AnchorPoint: "Anchor-1" 590 0 basechar 0
AnchorPoint: "Anchor-3" 405 811 basechar 0
LayerCount: 2
Fore
SplineSet
179 519 m 0
 173 494 153 483 133 483 c 0
 107 483 81 501 81 531 c 0
 81 535 82 540 83 545 c 0
 129 722 263 817 396 817 c 0
 612 817 912 563 1139 488 c 0
 1162 480 1172 461 1172 442 c 0
 1172 419 1158 396 1132 392 c 0
 844 340 564 -5 0 -5 c 0
 -32 -5 -48 20 -48 45 c 0
 -48 70 -32 95 0 95 c 0
 451 95 690 335 974 449 c 1
 754 555 520 717 396 717 c 0
 313 717 215 658 179 519 c 0
EndSplineSet
Colour: ffff
EndChar

StartChar: uniFEA4
Encoding: 65188 65188 144
Width: 1335
VWidth: 1373
Flags: HMW
AnchorPoint: "Anchor-3" 396 811 basechar 0
AnchorPoint: "Anchor-1" 510 0 basechar 0
LayerCount: 2
Fore
SplineSet
937 427 m 0
 964 427 987 404 987 377 c 0
 987 203 1121 95 1335 95 c 0
 1362 95 1385 72 1385 45 c 0
 1385 18 1362 -5 1335 -5 c 0
 1087 -5 887 135 887 377 c 0
 887 404 910 427 937 427 c 0
EndSplineSet
Refer: 143 65187 N 1 0 0 1 0 0 2
Colour: ffff
EndChar

StartChar: uniFEAA
Encoding: 65194 65194 148
Width: 1114
VWidth: 1437
Flags: HMW
AnchorPoint: "Anchor-1" 435 -144 basechar 0
AnchorPoint: "Anchor-3" 561 1047 basechar 0
LayerCount: 2
Fore
SplineSet
1164 45 m 0
 1164 18 1141 -5 1114 -5 c 0
 930.258936169 -5 830.997918725 94.8800548438 766.308336716 215.253368163 c 1
 703.667925434 65.7742027874 535.526084042 -4.99999999997 363 -5 c 0
 280 -5 196 8 116 38 c 0
 94 46 85 64 85 82 c 0
 85 108 105 136 134 136 c 0
 140 136 146 134 152 132 c 0
 220 106 290 95 363 95 c 0
 555 95 692 184 692 350 c 0
 692 378.114581301 687.60872399 404.472652199 678.826170543 430.720330699 c 0
 632.557064675 563.440979487 576.791846289 693.416310756 514 819 c 0
 510 827 508 834 508 841 c 0
 508 869 535 890 562 890 c 0
 578 890 594 882 604 863 c 0
 666.954191055 737.091617889 721.584017121 607.021053284 768.648977312 474.307302683 c 0
 776.128662401 461.364495871 781.315647802 445.031804053 784.864521893 427.858677454 c 0
 849.853133989 243.602825492 913.938346901 95.0000002503 1114 95 c 0
 1141 95 1164 72 1164 45 c 0
EndSplineSet
PairPos2: "'kern' Horizontal Kerning in Arabic lookup 2 per glyph data 3" uni06A9 dx=-267 dy=0 dh=-267 dv=0 dx=0 dy=0 dh=0 dv=0
PairPos2: "'kern' Horizontal Kerning in Arabic lookup 2 per glyph data 3" uni06AF dx=-267 dy=0 dh=-267 dv=0 dx=0 dy=0 dh=0 dv=0
PairPos2: "'kern' Horizontal Kerning in Arabic lookup 2 per glyph data 3" uniFB90 dx=-267 dy=0 dh=-267 dv=0 dx=0 dy=0 dh=0 dv=0
PairPos2: "'kern' Horizontal Kerning in Arabic lookup 2 per glyph data 3" uniFB94 dx=-267 dy=0 dh=-267 dv=0 dx=0 dy=0 dh=0 dv=0
PairPos2: "'kern' Horizontal Kerning in Arabic lookup 2 per glyph data 3" uniFEDB dx=-267 dy=0 dh=-267 dv=0 dx=0 dy=0 dh=0 dv=0
PairPos2: "'kern' Horizontal Kerning in Arabic lookup 2 per glyph data 1" uni0639 dx=-334 dy=0 dh=-334 dv=0 dx=0 dy=0 dh=0 dv=0
PairPos2: "'kern' Horizontal Kerning in Arabic lookup 2 per glyph data 1" uni063A dx=-334 dy=0 dh=-334 dv=0 dx=0 dy=0 dh=0 dv=0
Colour: ffff
EndChar

StartChar: uniFEAE
Encoding: 65198 65198 150
Width: 1027
VWidth: 2370
Flags: HMW
AnchorPoint: "Anchor-1" 505 -394 basechar 0
AnchorPoint: "Anchor-3" 755 624 basechar 0
LayerCount: 2
Fore
SplineSet
1077 45 m 0
 1077 18 1054 -5 1027 -5 c 0
 879 -5 773 52 701 137 c 1
 701 -195 544 -420 196 -506 c 0
 192 -507 187 -508 183 -508 c 0
 153 -508 135 -480 135 -454 c 0
 135 -434 146 -414 172 -408 c 0
 480 -332 601 -157 601 137 c 0
 601 254 574 376 544 469 c 0
 542 475 541 481 541 486 c 0
 541 515 568 533 594 533 c 0
 613 533 631 523 639 501 c 0
 711 299 764 95 1027 95 c 0
 1054 95 1077 72 1077 45 c 0
EndSplineSet
PairPos2: "'kern' Horizontal Kerning in Arabic lookup 2 per glyph data 2" uniFBFE dx=-134 dy=0 dh=-134 dv=0 dx=0 dy=0 dh=0 dv=0
PairPos2: "'kern' Horizontal Kerning in Arabic lookup 2 per glyph data 2" uniFEF3 dx=-134 dy=0 dh=-134 dv=0 dx=0 dy=0 dh=0 dv=0
PairPos2: "'kern' Horizontal Kerning in Arabic lookup 2 per glyph data 2" uniFB58 dx=-134 dy=0 dh=-134 dv=0 dx=0 dy=0 dh=0 dv=0
PairPos2: "'kern' Horizontal Kerning in Arabic lookup 2 per glyph data 3" uni06A9 dx=-267 dy=0 dh=-267 dv=0 dx=0 dy=0 dh=0 dv=0
PairPos2: "'kern' Horizontal Kerning in Arabic lookup 2 per glyph data 3" uni06AF dx=-267 dy=0 dh=-267 dv=0 dx=0 dy=0 dh=0 dv=0
PairPos2: "'kern' Horizontal Kerning in Arabic lookup 2 per glyph data 3" uniFB90 dx=-267 dy=0 dh=-267 dv=0 dx=0 dy=0 dh=0 dv=0
PairPos2: "'kern' Horizontal Kerning in Arabic lookup 2 per glyph data 3" uniFB94 dx=-267 dy=0 dh=-267 dv=0 dx=0 dy=0 dh=0 dv=0
PairPos2: "'kern' Horizontal Kerning in Arabic lookup 2 per glyph data 3" uniFEDB dx=-267 dy=0 dh=-267 dv=0 dx=0 dy=0 dh=0 dv=0
PairPos2: "'kern' Horizontal Kerning in Arabic lookup 2 per glyph data 2" uni0622 dx=-267 dy=0 dh=-267 dv=0 dx=0 dy=0 dh=0 dv=0
PairPos2: "'kern' Horizontal Kerning in Arabic lookup 2 per glyph data 2" uni0623 dx=-267 dy=0 dh=-267 dv=0 dx=0 dy=0 dh=0 dv=0
PairPos2: "'kern' Horizontal Kerning in Arabic lookup 2 per glyph data 2" uni0624 dx=-233 dy=0 dh=-233 dv=0 dx=0 dy=0 dh=0 dv=0
PairPos2: "'kern' Horizontal Kerning in Arabic lookup 2 per glyph data 2" uni0627 dx=-267 dy=0 dh=-267 dv=0 dx=0 dy=0 dh=0 dv=0
PairPos2: "'kern' Horizontal Kerning in Arabic lookup 2 per glyph data 2" uni0628 dx=-334 dy=0 dh=-334 dv=0 dx=0 dy=0 dh=0 dv=0
PairPos2: "'kern' Horizontal Kerning in Arabic lookup 2 per glyph data 2" uni0629 dx=-334 dy=0 dh=-334 dv=0 dx=0 dy=0 dh=0 dv=0
PairPos2: "'kern' Horizontal Kerning in Arabic lookup 2 per glyph data 2" uni062A dx=-334 dy=0 dh=-334 dv=0 dx=0 dy=0 dh=0 dv=0
PairPos2: "'kern' Horizontal Kerning in Arabic lookup 2 per glyph data 2" uni062B dx=-334 dy=0 dh=-334 dv=0 dx=0 dy=0 dh=0 dv=0
PairPos2: "'kern' Horizontal Kerning in Arabic lookup 2 per glyph data 2" uni062C dx=-111 dy=0 dh=-111 dv=0 dx=0 dy=0 dh=0 dv=0
PairPos2: "'kern' Horizontal Kerning in Arabic lookup 2 per glyph data 2" uni062D dx=-111 dy=0 dh=-111 dv=0 dx=0 dy=0 dh=0 dv=0
PairPos2: "'kern' Horizontal Kerning in Arabic lookup 2 per glyph data 2" uni062E dx=-111 dy=0 dh=-111 dv=0 dx=0 dy=0 dh=0 dv=0
PairPos2: "'kern' Horizontal Kerning in Arabic lookup 2 per glyph data 2" uni062F dx=-334 dy=0 dh=-334 dv=0 dx=0 dy=0 dh=0 dv=0
PairPos2: "'kern' Horizontal Kerning in Arabic lookup 2 per glyph data 2" uni0630 dx=-334 dy=0 dh=-334 dv=0 dx=0 dy=0 dh=0 dv=0
PairPos2: "'kern' Horizontal Kerning in Arabic lookup 2 per glyph data 2" uni0631 dx=-233 dy=0 dh=-233 dv=0 dx=0 dy=0 dh=0 dv=0
PairPos2: "'kern' Horizontal Kerning in Arabic lookup 2 per glyph data 2" uni0632 dx=-233 dy=0 dh=-233 dv=0 dx=0 dy=0 dh=0 dv=0
PairPos2: "'kern' Horizontal Kerning in Arabic lookup 2 per glyph data 2" uni0633 dx=-334 dy=0 dh=-334 dv=0 dx=0 dy=0 dh=0 dv=0
PairPos2: "'kern' Horizontal Kerning in Arabic lookup 2 per glyph data 2" uni0634 dx=-334 dy=0 dh=-334 dv=0 dx=0 dy=0 dh=0 dv=0
PairPos2: "'kern' Horizontal Kerning in Arabic lookup 2 per glyph data 2" uni0635 dx=-334 dy=0 dh=-334 dv=0 dx=0 dy=0 dh=0 dv=0
PairPos2: "'kern' Horizontal Kerning in Arabic lookup 2 per glyph data 2" uni0636 dx=-334 dy=0 dh=-334 dv=0 dx=0 dy=0 dh=0 dv=0
PairPos2: "'kern' Horizontal Kerning in Arabic lookup 2 per glyph data 2" uni0637 dx=-334 dy=0 dh=-334 dv=0 dx=0 dy=0 dh=0 dv=0
PairPos2: "'kern' Horizontal Kerning in Arabic lookup 2 per glyph data 2" uni0638 dx=-334 dy=0 dh=-334 dv=0 dx=0 dy=0 dh=0 dv=0
PairPos2: "'kern' Horizontal Kerning in Arabic lookup 2 per glyph data 2" uni0641 dx=-334 dy=0 dh=-334 dv=0 dx=0 dy=0 dh=0 dv=0
PairPos2: "'kern' Horizontal Kerning in Arabic lookup 2 per glyph data 2" uni0642 dx=-134 dy=0 dh=-134 dv=0 dx=0 dy=0 dh=0 dv=0
PairPos2: "'kern' Horizontal Kerning in Arabic lookup 2 per glyph data 2" uni0643 dx=-334 dy=0 dh=-334 dv=0 dx=0 dy=0 dh=0 dv=0
PairPos2: "'kern' Horizontal Kerning in Arabic lookup 2 per glyph data 2" uni0644 dx=-100 dy=0 dh=-100 dv=0 dx=0 dy=0 dh=0 dv=0
PairPos2: "'kern' Horizontal Kerning in Arabic lookup 2 per glyph data 2" uni0645 dx=-334 dy=0 dh=-334 dv=0 dx=0 dy=0 dh=0 dv=0
PairPos2: "'kern' Horizontal Kerning in Arabic lookup 2 per glyph data 2" uni0646 dx=-134 dy=0 dh=-134 dv=0 dx=0 dy=0 dh=0 dv=0
PairPos2: "'kern' Horizontal Kerning in Arabic lookup 2 per glyph data 2" uni0647 dx=-334 dy=0 dh=-334 dv=0 dx=0 dy=0 dh=0 dv=0
PairPos2: "'kern' Horizontal Kerning in Arabic lookup 2 per glyph data 2" uni0648 dx=-233 dy=0 dh=-233 dv=0 dx=0 dy=0 dh=0 dv=0
PairPos2: "'kern' Horizontal Kerning in Arabic lookup 2 per glyph data 2" uni067E dx=-334 dy=0 dh=-334 dv=0 dx=0 dy=0 dh=0 dv=0
PairPos2: "'kern' Horizontal Kerning in Arabic lookup 2 per glyph data 2" uni0686 dx=-111 dy=0 dh=-111 dv=0 dx=0 dy=0 dh=0 dv=0
PairPos2: "'kern' Horizontal Kerning in Arabic lookup 2 per glyph data 2" uni0698 dx=-233 dy=0 dh=-233 dv=0 dx=0 dy=0 dh=0 dv=0
PairPos2: "'kern' Horizontal Kerning in Arabic lookup 2 per glyph data 2" uni06A9 dx=-601 dy=0 dh=-601 dv=0 dx=0 dy=0 dh=0 dv=0
PairPos2: "'kern' Horizontal Kerning in Arabic lookup 2 per glyph data 2" uni06AF dx=-601 dy=0 dh=-601 dv=0 dx=0 dy=0 dh=0 dv=0
PairPos2: "'kern' Horizontal Kerning in Arabic lookup 2 per glyph data 2" uni06C0 dx=-334 dy=0 dh=-334 dv=0 dx=0 dy=0 dh=0 dv=0
PairPos2: "'kern' Horizontal Kerning in Arabic lookup 2 per glyph data 2" uni06CA dx=-233 dy=0 dh=-233 dv=0 dx=0 dy=0 dh=0 dv=0
PairPos2: "'kern' Horizontal Kerning in Arabic lookup 2 per glyph data 2" uniFB7C dx=-334 dy=0 dh=-334 dv=0 dx=0 dy=0 dh=0 dv=0
PairPos2: "'kern' Horizontal Kerning in Arabic lookup 2 per glyph data 2" uniFB90 dx=-601 dy=0 dh=-601 dv=0 dx=0 dy=0 dh=0 dv=0
PairPos2: "'kern' Horizontal Kerning in Arabic lookup 2 per glyph data 2" uniFB94 dx=-601 dy=0 dh=-601 dv=0 dx=0 dy=0 dh=0 dv=0
PairPos2: "'kern' Horizontal Kerning in Arabic lookup 2 per glyph data 2" uniFE8B dx=-334 dy=0 dh=-334 dv=0 dx=0 dy=0 dh=0 dv=0
PairPos2: "'kern' Horizontal Kerning in Arabic lookup 2 per glyph data 2" uniFE91 dx=-334 dy=0 dh=-334 dv=0 dx=0 dy=0 dh=0 dv=0
PairPos2: "'kern' Horizontal Kerning in Arabic lookup 2 per glyph data 2" uniFE97 dx=-334 dy=0 dh=-334 dv=0 dx=0 dy=0 dh=0 dv=0
PairPos2: "'kern' Horizontal Kerning in Arabic lookup 2 per glyph data 2" uniFE9B dx=-334 dy=0 dh=-334 dv=0 dx=0 dy=0 dh=0 dv=0
PairPos2: "'kern' Horizontal Kerning in Arabic lookup 2 per glyph data 2" uniFE9F dx=-334 dy=0 dh=-334 dv=0 dx=0 dy=0 dh=0 dv=0
PairPos2: "'kern' Horizontal Kerning in Arabic lookup 2 per glyph data 2" uniFEA3 dx=-334 dy=0 dh=-334 dv=0 dx=0 dy=0 dh=0 dv=0
PairPos2: "'kern' Horizontal Kerning in Arabic lookup 2 per glyph data 2" uniFEA7 dx=-334 dy=0 dh=-334 dv=0 dx=0 dy=0 dh=0 dv=0
PairPos2: "'kern' Horizontal Kerning in Arabic lookup 2 per glyph data 2" uniFEB3 dx=-334 dy=0 dh=-334 dv=0 dx=0 dy=0 dh=0 dv=0
PairPos2: "'kern' Horizontal Kerning in Arabic lookup 2 per glyph data 2" uniFEB7 dx=-334 dy=0 dh=-334 dv=0 dx=0 dy=0 dh=0 dv=0
PairPos2: "'kern' Horizontal Kerning in Arabic lookup 2 per glyph data 2" uniFEBB dx=-334 dy=0 dh=-334 dv=0 dx=0 dy=0 dh=0 dv=0
PairPos2: "'kern' Horizontal Kerning in Arabic lookup 2 per glyph data 2" uniFEBF dx=-334 dy=0 dh=-334 dv=0 dx=0 dy=0 dh=0 dv=0
PairPos2: "'kern' Horizontal Kerning in Arabic lookup 2 per glyph data 2" uniFEC3 dx=-334 dy=0 dh=-334 dv=0 dx=0 dy=0 dh=0 dv=0
PairPos2: "'kern' Horizontal Kerning in Arabic lookup 2 per glyph data 2" uniFEC7 dx=-334 dy=0 dh=-334 dv=0 dx=0 dy=0 dh=0 dv=0
PairPos2: "'kern' Horizontal Kerning in Arabic lookup 2 per glyph data 2" uniFECB dx=-334 dy=0 dh=-334 dv=0 dx=0 dy=0 dh=0 dv=0
PairPos2: "'kern' Horizontal Kerning in Arabic lookup 2 per glyph data 2" uniFECF dx=-334 dy=0 dh=-334 dv=0 dx=0 dy=0 dh=0 dv=0
PairPos2: "'kern' Horizontal Kerning in Arabic lookup 2 per glyph data 2" uniFED3 dx=-334 dy=0 dh=-334 dv=0 dx=0 dy=0 dh=0 dv=0
PairPos2: "'kern' Horizontal Kerning in Arabic lookup 2 per glyph data 2" uniFED7 dx=-334 dy=0 dh=-334 dv=0 dx=0 dy=0 dh=0 dv=0
PairPos2: "'kern' Horizontal Kerning in Arabic lookup 2 per glyph data 2" uniFEDB dx=-601 dy=0 dh=-601 dv=0 dx=0 dy=0 dh=0 dv=0
PairPos2: "'kern' Horizontal Kerning in Arabic lookup 2 per glyph data 2" uniFEDF dx=-334 dy=0 dh=-334 dv=0 dx=0 dy=0 dh=0 dv=0
PairPos2: "'kern' Horizontal Kerning in Arabic lookup 2 per glyph data 2" uniFEE3 dx=-334 dy=0 dh=-334 dv=0 dx=0 dy=0 dh=0 dv=0
PairPos2: "'kern' Horizontal Kerning in Arabic lookup 2 per glyph data 2" uniFEE7 dx=-334 dy=0 dh=-334 dv=0 dx=0 dy=0 dh=0 dv=0
PairPos2: "'kern' Horizontal Kerning in Arabic lookup 2 per glyph data 2" uniFEEB dx=-334 dy=0 dh=-334 dv=0 dx=0 dy=0 dh=0 dv=0
PairPos2: "'kern' Horizontal Kerning in Arabic lookup 2 per glyph data 2" uniFEF5 dx=-334 dy=0 dh=-334 dv=0 dx=0 dy=0 dh=0 dv=0
PairPos2: "'kern' Horizontal Kerning in Arabic lookup 2 per glyph data 2" uniFEF7 dx=-334 dy=0 dh=-334 dv=0 dx=0 dy=0 dh=0 dv=0
PairPos2: "'kern' Horizontal Kerning in Arabic lookup 2 per glyph data 2" uniFEF9 dx=-334 dy=0 dh=-334 dv=0 dx=0 dy=0 dh=0 dv=0
PairPos2: "'kern' Horizontal Kerning in Arabic lookup 2 per glyph data 2" uniFEFB dx=-334 dy=0 dh=-334 dv=0 dx=0 dy=0 dh=0 dv=0
PairPos2: "'kern' Horizontal Kerning in Arabic lookup 2 per glyph data 1" uni0639 dx=-134 dy=0 dh=-134 dv=0 dx=0 dy=0 dh=0 dv=0
PairPos2: "'kern' Horizontal Kerning in Arabic lookup 2 per glyph data 1" uni063A dx=-134 dy=0 dh=-134 dv=0 dx=0 dy=0 dh=0 dv=0
Colour: ffff
EndChar

StartChar: uniFEBA
Encoding: 65210 65210 155
Width: 2443
VWidth: 1839
Flags: HMW
AnchorPoint: "Anchor-1" 720 -526 basechar 0
AnchorPoint: "Anchor-3" 2055 811 basechar 0
LayerCount: 2
Fore
SplineSet
1133 316 m 0
 1133 342 1153 367 1182 367 c 0
 1198 367 1213 359 1223 345 c 0
 1264 286 1314 234 1373 194 c 1
 1506 443 1731 700 2000 700 c 0
 2169 700 2298 570 2298 381 c 0
 2298 248.533200089 2219.6032399 156.116918926 2113.05512393 95 c 1
 2443 95 l 2
 2470 95 2493 72 2493 45 c 0
 2493 18 2470 -5 2443 -5 c 2
 1705 -5 l 2
 1543 -5 1399 49 1296 126 c 1
 1298 108 1299 91 1299 73 c 0
 1299 -274 1004 -492 666 -492 c 0
 398 -492 100 -348 100 -40 c 0
 100 270 420 433 616 511 c 0
 623 514 630 515 636 515 c 0
 665 515 684 488 684 462 c 0
 684 445 675 428 654 419 c 0
 455 339 200 192 200 -40 c 0
 200 -266 422 -392 666 -392 c 0
 964 -392 1199 -206 1199 73 c 0
 1199 149 1178 225 1139 291 c 0
 1135 298 1133 307 1133 316 c 0
1705 95 m 0
 1930 95 2198 200 2198 381 c 0
 2198 522 2113 600 2000 600 c 0
 1796 600 1588 387 1460 145 c 1
 1532 113 1614 95 1705 95 c 0
EndSplineSet
Colour: ffff
EndChar

StartChar: uniFEBB
Encoding: 65211 65211 156
Width: 1536
VWidth: 2370
Flags: HMW
AnchorPoint: "Anchor-3" 1211 811 basechar 0
AnchorPoint: "Anchor-1" 818 0 basechar 0
LayerCount: 2
Fore
SplineSet
506 158 m 1
 593 116 712 97 809 97 c 0
 1068 97 1336 220 1336 434 c 0
 1336 565 1230 660 1088 660 c 0
 848 660 625 415 506 158 c 1
433 -53 m 0
 428 -80 407 -91 386 -91 c 0
 360 -91 334 -74 334 -44 c 0
 334 -40 334 -37 335 -33 c 0
 345 16 361 68 381 120 c 1
 354 142 329 169 312 199 c 1
 255 88 159 -5 0 -5 c 0
 -27 -5 -50 18 -50 45 c 0
 -50 72 -27 95 0 95 c 0
 199 95 254 289 304 497 c 0
 310 523 330 534 351 534 c 0
 377 534 404 516 404 487 c 0
 404 483 403 478 402 474 c 0
 390 423 379 378 379 325 c 0
 379 281 395 247 423 217 c 1
 549 480 788 760 1088 760 c 0
 1276 760 1436 627 1436 434 c 0
 1436 124 1076 -3 809 -3 c 0
 702 -3 574 16 468 66 c 1
 453 24 441 -16 433 -53 c 0
EndSplineSet
Colour: ffff
EndChar

StartChar: uniFEBC
Encoding: 65212 65212 157
Width: 1601
VWidth: 1839
Flags: HMW
AnchorPoint: "Anchor-1" 818 0 basechar 0
AnchorPoint: "Anchor-3" 1211 811 basechar 0
LayerCount: 2
Fore
SplineSet
403 95 m 1
 385 101 377 115 364 127 c 0
 343 147 324 170 310 196 c 1
 253 85 157 -5 0 -5 c 0
 -27 -5 -50 18 -50 45 c 0
 -50 72 -27 95 0 95 c 0
 199 95 253 289 303 497 c 0
 309 523 329 534 350 534 c 0
 376 534 403 516 403 487 c 0
 403 483 402 478 401 474 c 0
 389 423 378 378 378 325 c 0
 378 291 386 263 400 239 c 1
 510 481 758 760 1060 760 c 0
 1248 760 1409 627 1409 434 c 0
 1409 276.614964196 1315.95121886 165.883195391 1189.26386595 95 c 1
 1601 95 l 2
 1628 95 1651 72 1651 45 c 0
 1651 18 1628 -5 1601 -5 c 2
 780 -5 l 2
 655 -5 508 21 403 95 c 1
780 95 m 0
 1038 95 1309 220 1309 434 c 0
 1309 565 1202 660 1060 660 c 0
 810 660 572 397 478 165 c 1
 557 117 676 95 780 95 c 0
EndSplineSet
Colour: ffff
EndChar

StartChar: uniFEC2
Encoding: 65218 65218 161
Width: 1565
VWidth: 2370
Flags: HMW
AnchorPoint: "Anchor-1" 440 0 basechar 0
AnchorPoint: "Anchor-3" 1178 811 basechar 0
LayerCount: 2
Fore
SplineSet
510 100 m 1
 563 102 617 105 669 109 c 0
 1053 140 1344 235 1344 469 c 0
 1344 587 1248 673 1120 673 c 0
 878 673 627 373 510 100 c 1
200 95 m 2
 263 95 329 95 398 96 c 1
 431 313 444 637 444 921 c 0
 444 1093 432 1248 432 1361 c 0
 432 1392 458 1409 483 1409 c 0
 507 1409 530 1394 532 1364 c 0
 539 1253 544 1100 544 933 c 0
 544 740 538 528 524 340 c 1
 663 560 874 773 1120 773 c 0
 1294 773 1444 649 1444 469 c 0
 1444 276 1305 160 1129 95 c 1
 1565 95 l 2
 1597 95 1613 70 1613 45 c 0
 1613 20 1597 -5 1565 -5 c 2
 150 -5 l 2
 118 -5 102 20 102 45 c 0
 102 70 118 95 150 95 c 2
 200 95 l 2
EndSplineSet
Colour: ffff
EndChar

StartChar: uniFEC3
Encoding: 65219 65219 162
Width: 1240
VWidth: 2370
Flags: HMW
AnchorPoint: "Anchor-3" 855 811 basechar 0
AnchorPoint: "Anchor-1" 596 0 basechar 0
LayerCount: 2
Fore
SplineSet
242 103 m 1
 658 133 1040 247 1040 466 c 0
 1040 584 944 669 816 669 c 0
 577 669 384 368 242 103 c 1
101 -108 m 0
 76 -108 52 -82 52 -60 c 0
 52 -40 64 -20 72 -4 c 1
 47 -4 23 -5 0 -5 c 0
 -27 -5 -50 18 -50 45 c 0
 -50 72 -27 95 0 95 c 0
 38 95 79 96 120 97 c 1
 193 294 221 564 221 811 c 0
 221 1025 203 1225 188 1355 c 0
 188 1357 188 1359 188 1361 c 0
 188 1392 213 1409 239 1409 c 0
 262 1409 285 1395 288 1366 c 0
 303 1234 321 1032 321 812 c 0
 321 674 314 530 294 391 c 1
 420 583 589 769 816 769 c 0
 990 769 1140 646 1140 466 c 0
 1140 113 591 21 188 -0 c 1
 173 -28 146 -108 101 -108 c 0
EndSplineSet
Colour: ffff
EndChar

StartChar: uniFEC4
Encoding: 65220 65220 163
Width: 1258
VWidth: 2370
Flags: HMW
AnchorPoint: "Anchor-1" 596 0 basechar 0
AnchorPoint: "Anchor-3" 855 811 basechar 0
LayerCount: 2
Fore
SplineSet
283 100 m 1
 335 102 387 105 438 110 c 0
 778 140 1027 227 1027 396 c 0
 1027 519 924 609 788 609 c 0
 486 609 361 355 283 100 c 1
0 95 m 1
 55 95 114 96 174 97 c 1
 207 292 220 537 220 774 c 0
 220 990 209 1199 192 1355 c 0
 192 1357 192 1359 192 1361 c 0
 192 1392 217 1409 243 1409 c 0
 266 1409 289 1395 292 1366 c 0
 309 1206 321 995 321 777 c 0
 321 658 317 537 310 421 c 1
 405 580 553 709 788 709 c 0
 968 709 1127 583 1127 396 c 0
 1127 243 1011 150 869 95 c 1
 1258 95 l 2
 1285 95 1308 72 1308 45 c 0
 1308 18 1285 -5 1258 -5 c 2
 0 -5 l 1
 0 95 l 1
EndSplineSet
Colour: ffff
EndChar

StartChar: uniFECA
Encoding: 65226 65226 167
Width: 1012
VWidth: 2370
Flags: HMW
AnchorPoint: "Anchor-3" 542 811 basechar 0
AnchorPoint: "Anchor-1" 666 -740 basechar 0
LayerCount: 2
Fore
SplineSet
526 322 m 1
 620 380 771 446 771 564 c 0
 771 673 693 716 565 716 c 0
 453 716 323 676 249 626 c 1
 320 532 416 419 526 322 c 1
1062 45 m 0
 1062 18 1039 -5 1012 -5 c 0
 830 -5 661 84 518 198 c 1
 367 96 200 -58 200 -257 c 0
 200 -524 463 -617 846 -623 c 0
 878 -623 893 -648 893 -673 c 0
 893 -698 877 -723 845 -723 c 2
 844 -723 l 1
 467 -717 100 -622 100 -257 c 0
 100 -12 288 160 439 266 c 1
 315 379 212 505 140 604 c 0
 134 613 131 623 131 633 c 0
 131 647 136 660 145 669 c 0
 231 755 407 816 565 816 c 0
 713 816 871 751 871 564 c 0
 871 403 721 322 646 278 c 0
 634 271 622 263 608 255 c 1
 735 160 874 95 1012 95 c 0
 1039 95 1062 72 1062 45 c 0
EndSplineSet
Colour: ffff
EndChar

StartChar: uniFECB
Encoding: 65227 65227 168
Width: 1010
VWidth: 2370
Flags: HMW
AnchorPoint: "Anchor-3" 565 973 basechar 0
AnchorPoint: "Anchor-1" 438 0 basechar 0
LayerCount: 2
Fore
SplineSet
783 714 m 0
 783 686 761 664 733 664 c 0
 721 664 708 668 699 677 c 0
 653 719 589 742 525 742 c 0
 371 742 227 603 227 437 c 0
 227 288 344 199 510 199 c 0
 635 199 733 233 860 233 c 0
 891 233 908 207 908 182 c 0
 908 158 893 134 862 133 c 0
 808 131 752 124 696 115 c 0
 643 103 586 85 531 69 c 0
 406 32 253 -5 0 -5 c 0
 -27 -5 -50 18 -50 45 c 0
 -50 72 -27 95 0 95 c 0
 149 95 259 108 349 126 c 1
 221 173 127 283 127 437 c 0
 127 659 315 842 525 842 c 0
 613 842 701 811 767 751 c 0
 778 742 783 728 783 714 c 0
EndSplineSet
Colour: ffff
EndChar

StartChar: uniFECC
Encoding: 65228 65228 169
Width: 990
VWidth: 2370
Flags: HMW
AnchorPoint: "Anchor-3" 486 811 basechar 0
AnchorPoint: "Anchor-1" 495 0 basechar 0
LayerCount: 2
Fore
SplineSet
202 551 m 1
 282 447 403 322 550 231 c 1
 688 302 772 393 772 483 c 0
 772 588 642 662 501 662 c 0
 409 662 286 615 202 551 c 1
545 117 m 1
 372 39 160 -5 0 -5 c 0
 -27 -5 -50 18 -50 45 c 0
 -50 72 -27 95 0 95 c 0
 124 95 293 127 441 183 c 1
 288 290 169 423 93 530 c 0
 87 539 84 549 84 559 c 0
 84 572 89 585 99 595 c 0
 198 689 362 762 501 762 c 0
 658 762 872 680 872 483 c 0
 872 350 773 248 653 174 c 1
 756 125 869 95 990 95 c 0
 1017 95 1040 72 1040 45 c 0
 1040 18 1017 -5 990 -5 c 0
 825 -5 674 45 545 117 c 1
EndSplineSet
Colour: ffff
EndChar

StartChar: uniFED2
Encoding: 65234 65234 173
Width: 1819
VWidth: 2189
Flags: HMW
AnchorPoint: "Anchor-3" 1474 1323 basechar 0
AnchorPoint: "Anchor-1" 770 0 basechar 0
LayerCount: 2
Fore
SplineSet
1382 173 m 1
 1517 230 1604 320 1604 484 c 0
 1604 644 1533 732 1389 732 c 0
 1270 732 1175 637 1175 472 c 0
 1175 325 1255 232 1382 173 c 1
209 657 m 0
 238 657 258 632 258 606 c 0
 258 596 255 586 249 578 c 0
 217 534 200 480 200 423 c 0
 200 144 497 95 830 95 c 0
 980 95 1128 104 1252 132 c 1
 1144 208 1075 322 1075 472 c 0
 1075 677 1206 832 1389 832 c 0
 1595 832 1704 680 1704 484 c 0
 1704 320 1629 202 1513 128 c 1
 1604 106 1709 95 1819 95 c 0
 1846 95 1869 72 1869 45 c 0
 1869 18 1846 -5 1819 -5 c 0
 1660 -5 1504 16 1380 65 c 1
 1223 10 1026 -5 830 -5 c 0
 517 -5 100 36 100 423 c 0
 100 500 124 574 168 636 c 0
 178 650 193 657 209 657 c 0
EndSplineSet
Refer: 223 57344 N 1 0 0 1 1243 1190 2
Colour: ffff
EndChar

StartChar: uniFED6
Encoding: 65238 65238 176
Width: 1395
VWidth: 2270
Flags: HMW
AnchorPoint: "Anchor-3" 989 1152 basechar 0
AnchorPoint: "Anchor-1" 702 -526 basechar 0
LayerCount: 2
Fore
SplineSet
1191 94 m 1
 1191 103 1191 112 1191 121 c 0
 1191 353 1120 620 947 620 c 0
 823 620 718 466 718 316 c 0
 718 154 849 94 1048 94 c 2
 1191 94 l 1
374 495 m 0
 400 495 422 476 422 446 c 0
 422 429 415 413 400 404 c 0
 286 333 200 177 200 -9 c 0
 200 -261 406 -422 676 -422 c 0
 964 -422 1138 -264 1181 -6 c 1
 1048 -6 l 2
 839 -6 618 68 618 316 c 0
 618 496 739 720 947 720 c 0
 1236 720 1291 335 1291 121 c 2
 1291 95 l 1
 1395 95 l 2
 1427 95 1443 70 1443 45 c 0
 1443 20 1427 -5 1395 -5 c 2
 1282 -5 l 1
 1237 -317 1015 -522 676 -522 c 0
 368 -522 100 -329 100 -9 c 0
 100 207 198 395 347 488 c 0
 355 493 365 495 374 495 c 0
EndSplineSet
Refer: 224 57345 N 1 0 0 1 649 1022 2
Colour: ffff
EndChar

StartChar: uniFEDA
Encoding: 65242 65242 179
Width: 1762
VWidth: 1424
Flags: HMW
AnchorPoint: "Anchor-3" 785 861 basechar 0
AnchorPoint: "Anchor-1" 706 0 basechar 0
LayerCount: 2
Fore
SplineSet
209 667 m 0
 238 667 258 642 258 616 c 0
 258 606 255 596 249 588 c 0
 218 543 200 490 200 433 c 0
 200 178 468 96 776 96 c 0
 1073 96 1330 182 1330 431 c 0
 1330 666 1313 1145 1286 1355 c 1
 1286 1362 l 2
 1286 1392 1311 1409 1337 1409 c 0
 1360 1409 1382 1396 1386 1367 c 0
 1415 1147 1430 670 1430 431 c 0
 1430 191 1568 95 1762 95 c 0
 1789 95 1812 72 1812 45 c 0
 1812 18 1789 -5 1762 -5 c 0
 1591.40817842 -5 1441.71665101 68.151029561 1371.84548167 220.496172162 c 1
 1258.34521734 46.2422715225 998.902691755 -4 776 -4 c 0
 474 -4 100 78 100 433 c 0
 100 510 124 585 167 646 c 0
 177 660 193 667 209 667 c 0
EndSplineSet
Refer: 240 1620 N 1 0 0 1 570 -618 2
Colour: ffff
EndChar

StartChar: uniFEDB
Encoding: 65243 65243 180
Width: 1041
VWidth: 2370
Flags: HMW
AnchorPoint: "Anchor-3" 412 1345 basechar 0
AnchorPoint: "Anchor-1" 268 0 basechar 0
LayerCount: 2
Fore
SplineSet
868 1405 m 2
 876 1409 884 1411 891 1411 c 0
 919 1411 940 1384 940 1358 c 0
 940 1342 932 1327 914 1317 c 2
 188 943 l 1
 356 812 594 589 594 366 c 0
 594 111 310 -5 0 -5 c 0
 -27 -5 -50 18 -50 45 c 0
 -50 72 -27 95 0 95 c 0
 306 95 494 207 494 366 c 0
 494 545 234 790 65 910 c 0
 52 919 45 935 45 951 c 0
 45 968 53 986 71 995 c 2
 868 1405 l 2
EndSplineSet
Colour: ffff
EndChar

StartChar: uniFEDC
Encoding: 65244 65244 181
Width: 987
VWidth: 2370
Flags: HMW
AnchorPoint: "Anchor-1" 268 0 basechar 0
AnchorPoint: "Anchor-3" 412 1345 basechar 0
LayerCount: 2
Fore
SplineSet
430 563 m 0
 430 590 450 613 480 613 c 0
 496 613 512 606 521 591 c 0
 560 529 591 463 618 402 c 0
 698 222 753 95 987 95 c 0
 1014 95 1037 72 1037 45 c 0
 1037 18 1014 -5 987 -5 c 0
 598 -5 576 315 437 537 c 0
 432 545 430 554 430 563 c 0
EndSplineSet
Refer: 180 65243 N 1 0 0 1 0 0 2
Colour: ffff
EndChar

StartChar: uniFEDE
Encoding: 65246 65246 182
Width: 1541
VWidth: 2370
Flags: HMW
AnchorPoint: "Anchor-1" 649 -526 basechar 0
AnchorPoint: "Anchor-3" 616 420 basechar 0
LayerCount: 2
Fore
SplineSet
1267.40653413 95.3626874325 m 1
 1242.47564599 -254.860471547 1038.00791758 -477 663 -477 c 0
 383 -477 100 -304 100 -5 c 0
 100 196 240 343 368 417 c 0
 377 422 385 424 393 424 c 0
 421 424 442 397 442 371 c 0
 442 356 435 341 418 331 c 0
 308 267 200 146 200 -5 c 0
 200 -228 415 -377 663 -377 c 0
 1008 -377 1170 -183 1170 170 c 0
 1170 227 1164 284 1164 342 c 2
 1164 348 l 1
 1152 609 1106 1110 1106 1362 c 0
 1106 1393 1132 1409 1157 1409 c 0
 1180 1409 1204 1395 1206 1365 c 0
 1225.95995819 1111.50853097 1251.89591535 614.993104021 1263.92775783 352.576477203 c 0
 1263.95877447 352.055661253 1263.98289645 351.5301705 1264 351 c 0
 1273 171 1386 95 1541 95 c 0
 1568 95 1591 72 1591 45 c 0
 1591 18 1568 -5 1541 -5 c 0
 1440.37832204 -5 1339.47018183 27.943159762 1267.40653413 95.3626874325 c 1
EndSplineSet
Colour: ffff
EndChar

StartChar: uniFEDF
Encoding: 65247 65247 183
Width: 524
VWidth: 2370
Flags: HMW
AnchorPoint: "Anchor-1" 253 0 basechar 0
AnchorPoint: "Anchor-3" 336 1459 basechar 0
LayerCount: 2
Fore
SplineSet
225 1354 m 1
 225 1361 l 2
 225 1392 251 1410 277 1410 c 0
 299 1410 321 1397 325 1368 c 0
 363 1076 374 761 374 444 c 0
 374 175 259 -5 0 -5 c 0
 -27 -5 -50 18 -50 45 c 0
 -50 72 -27 95 0 95 c 0
 193 95 274 203 274 444 c 0
 274 759 263 1068 225 1354 c 1
EndSplineSet
Colour: ffff
EndChar

StartChar: uniFEE0
Encoding: 65248 65248 184
Width: 734
VWidth: 2370
Flags: HMW
AnchorPoint: "Anchor-3" 412 1459 basechar 0
AnchorPoint: "Anchor-1" 277 0 basechar 0
LayerCount: 2
Fore
SplineSet
263 1356 m 1
 263 1361 l 2
 263 1392 288 1409 314 1409 c 0
 337 1409 360 1396 363 1366 c 0
 390 1077 417 682 417 369 c 0
 417 177 551 95 734 95 c 0
 761 95 784 72 784 45 c 0
 784 18 761 -5 734 -5 c 0
 586.208795098 -5 442.750508316 48.9207588355 368.76421217 169.456044484 c 1
 299.583539798 49.9584096888 162.456099088 -5 0 -5 c 0
 -27 -5 -50 18 -50 45 c 0
 -50 72 -27 95 0 95 c 0
 203 95 317 174 317 369 c 0
 317 676 290 1069 263 1356 c 1
EndSplineSet
Colour: ffff
EndChar

StartChar: uniFEE2
Encoding: 65250 65250 185
Width: 1311
VWidth: 1263
Flags: HMW
AnchorPoint: "Anchor-1" 690 -169 basechar 0
AnchorPoint: "Anchor-3" 768 753 basechar 0
LayerCount: 2
Fore
SplineSet
688 45 m 0
 688 72 711 95 738 95 c 2
 1311 95 l 2
 1338 95 1361 72 1361 45 c 0
 1361 18 1338 -5 1311 -5 c 2
 738 -5 l 2
 711 -5 688 18 688 45 c 0
EndSplineSet
Refer: 88 1605 N 1 0 0 1 0 0 2
Colour: ffff
EndChar

StartChar: uniFEE4
Encoding: 65252 65252 186
Width: 1219
VWidth: 1350
Flags: HMW
AnchorPoint: "Anchor-1" 671 0 basechar 0
AnchorPoint: "Anchor-3" 667 811 basechar 0
LayerCount: 2
Fore
SplineSet
832 380 m 0
 831 384 830 389 830 393 c 0
 830 423 858 441 884 441 c 0
 904 441 924 430 930 404 c 0
 973 226 1124 95 1219 95 c 0
 1246 95 1269 72 1269 45 c 0
 1269 18 1246 -5 1219 -5 c 0
 1054 -5 881 172 832 380 c 0
EndSplineSet
Refer: 222 65251 N 1 0 0 1 0 0 2
Colour: ffff
EndChar

StartChar: uniFEE6
Encoding: 65254 65254 187
Width: 1559
VWidth: 2286
Flags: HMW
AnchorPoint: "Anchor-3" 719 520 basechar 0
AnchorPoint: "Anchor-1" 704 -526 basechar 0
LayerCount: 2
Fore
SplineSet
1227 211 m 0
 1225 217 1224 222 1224 228 c 0
 1224 257 1251 277 1277 277 c 0
 1295 277 1313 268 1321 245 c 0
 1360 136 1395 95 1559 95 c 0
 1586 95 1609 72 1609 45 c 0
 1609 18 1586 -5 1559 -5 c 0
 1363 -5 1276 72 1227 211 c 0
EndSplineSet
Refer: 223 57344 N 1 0 0 1 515 145 2
Refer: 85 1722 N 1 0 0 1 0 0 2
Colour: ffff
EndChar

StartChar: uniFEEA
Encoding: 65258 65258 188
Width: 1061
VWidth: 2370
Flags: HMW
AnchorPoint: "Anchor-3" 649 1174 basechar 0
AnchorPoint: "Anchor-1" 395 2 basechar 0
LayerCount: 2
Fore
SplineSet
517 302 m 0
 521 303 524 303 527 303 c 0
 557 303 574 277 574 252 c 0
 574 231 562 209 535 204 c 0
 493 196 454 192 417 192 c 0
 227 192 100 299 100 458 c 0
 100 628 267 706 389 769 c 0
 520 836 600 886 600 952 c 2
 600 959 l 1
 591 1061 l 1
 591 1066 l 2
 591 1097 617 1114 642 1114 c 0
 665 1114 688 1100 691 1070 c 2
 732 621 l 2
 770 199 893 95 1061 95 c 0
 1088 95 1111 72 1111 45 c 0
 1111 18 1088 -5 1061 -5 c 0
 819 -5 672 177 632 611 c 2
 616 788 l 1
 565 745 499 711 435 679 c 0
 299 610 200 550 200 458 c 0
 200 364 264 292 417 292 c 0
 447 292 480 295 517 302 c 0
EndSplineSet
Colour: ffff
EndChar

StartChar: uniFEEB
Encoding: 65259 65259 189
Width: 1217
VWidth: 2370
Flags: HMW
AnchorPoint: "Anchor-3" 625 872 basechar 0
AnchorPoint: "Anchor-1" 585 0 basechar 0
LayerCount: 2
Fore
SplineSet
720 572 m 1
 731 537 737 499 737 460 c 0
 737 330 675 212 555 129 c 1
 623 107 690 95 743 95 c 0
 942 95 1017 172 1017 307 c 0
 1017 415 909 487 720 572 c 1
637 460 m 0
 637 588 558 678 420 678 c 0
 302 678 191 593 191 463 c 0
 191 356 298 247 438 177 c 1
 572 243 637 344 637 460 c 0
74 966 m 0
 74 994 98 1015 125 1015 c 0
 138 1015 150 1010 159 1001 c 0
 270 891 417 814 563 749 c 0
 817 635 1117 551 1117 307 c 0
 1117 108 974 -5 743 -5 c 0
 651 -5 534 25 437 67 c 1
 320 20 178 -5 0 -5 c 0
 -27 -5 -50 18 -50 45 c 0
 -50 72 -27 95 0 95 c 0
 124 95 230 109 316 132 c 1
 195 209 91 322 91 463 c 0
 91 614 194 723 315 762 c 1
 235 808 157 862 89 929 c 0
 79 939 74 953 74 966 c 0
EndSplineSet
Colour: ffff
EndChar

StartChar: uniFEEC
Encoding: 65260 65260 190
Width: 930
VWidth: 2370
Flags: HMW
AnchorPoint: "Anchor-3" 534 782 basechar 0
AnchorPoint: "Anchor-1" 418 -557 basechar 0
LayerCount: 2
Fore
SplineSet
230 121 m 1
 520 193 654 394 654 546 c 0
 654 632 618 687 534 687 c 0
 345 687 230 437 230 136 c 0
 230 131 230 126 230 121 c 1
980 45 m 0
 980 18 957 -5 930 -5 c 2
 736 -5 l 1
 758 -74 773 -154 773 -232 c 0
 773 -364 724 -522 554 -522 c 0
 334 -522 182 -244 141 4 c 1
 96 -2 49 -5 0 -5 c 0
 -27 -5 -50 18 -50 45 c 0
 -50 72 -27 95 0 95 c 0
 46 95 90 98 131 103 c 1
 131 114 130 125 130 136 c 0
 130 437 243 787 534 787 c 0
 686 787 754 664 754 546 c 0
 754 334 573 98 240 21 c 1
 279 -219 424 -422 554 -422 c 0
 636 -422 673 -354 673 -232 c 0
 673 -141 648 -40 618 23 c 0
 615 30 613 37 613 44 c 0
 613 71 635 95 663 95 c 2
 930 95 l 2
 957 95 980 72 980 45 c 0
EndSplineSet
Colour: ffff
EndChar

StartChar: uniFEEE
Encoding: 65262 65262 191
Width: 857
VWidth: 2370
Flags: HMW
AnchorPoint: "Anchor-1" 419 -408 basechar 0
AnchorPoint: "Anchor-3" 466 811 basechar 0
LayerCount: 2
Fore
SplineSet
659 95 m 1
 660 109 661 124 661 139 c 0
 661 419 590 621 432 621 c 0
 314 621 235 474 235 313 c 0
 235 117 352 95 566 95 c 2
 659 95 l 1
743 -5 m 1
 675 -272 426 -465 127 -507 c 0
 124 -507 122 -508 119 -508 c 0
 89 -508 71 -482 71 -456 c 0
 71 -434 84 -411 113 -407 c 0
 370 -371 574 -212 639 -5 c 1
 566 -5 l 2
 354 -5 135 31 135 313 c 0
 135 486 220 721 432 721 c 0
 700 721 761 405 761 139 c 0
 761 124 760 110 759 95 c 1
 857 95 l 2
 884 95 907 72 907 45 c 0
 907 18 884 -5 857 -5 c 2
 743 -5 l 1
EndSplineSet
PairPos2: "'kern' Horizontal Kerning in Arabic lookup 2 per glyph data 4" uni063A dx=178 dy=0 dh=178 dv=0 dx=0 dy=0 dh=0 dv=0
PairPos2: "'kern' Horizontal Kerning in Arabic lookup 2 per glyph data 4" uni0639 dx=178 dy=0 dh=178 dv=0 dx=0 dy=0 dh=0 dv=0
PairPos2: "'kern' Horizontal Kerning in Arabic lookup 2 per glyph data 4" uni0625 dx=178 dy=0 dh=178 dv=0 dx=0 dy=0 dh=0 dv=0
PairPos2: "'kern' Horizontal Kerning in Arabic lookup 2 per glyph data 4" uni06CC dx=89 dy=0 dh=89 dv=0 dx=0 dy=0 dh=0 dv=0
PairPos2: "'kern' Horizontal Kerning in Arabic lookup 2 per glyph data 4" uni0626 dx=89 dy=0 dh=89 dv=0 dx=0 dy=0 dh=0 dv=0
PairPos2: "'kern' Horizontal Kerning in Arabic lookup 2 per glyph data 4" uni064A dx=89 dy=0 dh=89 dv=0 dx=0 dy=0 dh=0 dv=0
PairPos2: "'kern' Horizontal Kerning in Arabic lookup 2 per glyph data 4" uni0649 dx=89 dy=0 dh=89 dv=0 dx=0 dy=0 dh=0 dv=0
PairPos2: "'kern' Horizontal Kerning in Arabic lookup 2 per glyph data 3" uni06A9 dx=-233 dy=0 dh=-233 dv=0 dx=0 dy=0 dh=0 dv=0
PairPos2: "'kern' Horizontal Kerning in Arabic lookup 2 per glyph data 3" uni06AF dx=-233 dy=0 dh=-233 dv=0 dx=0 dy=0 dh=0 dv=0
PairPos2: "'kern' Horizontal Kerning in Arabic lookup 2 per glyph data 3" uniFB90 dx=-233 dy=0 dh=-233 dv=0 dx=0 dy=0 dh=0 dv=0
PairPos2: "'kern' Horizontal Kerning in Arabic lookup 2 per glyph data 3" uniFB94 dx=-233 dy=0 dh=-233 dv=0 dx=0 dy=0 dh=0 dv=0
PairPos2: "'kern' Horizontal Kerning in Arabic lookup 2 per glyph data 3" uniFEDB dx=-233 dy=0 dh=-233 dv=0 dx=0 dy=0 dh=0 dv=0
Colour: ffff
EndChar

StartChar: uniFEFB
Encoding: 65275 65275 199
Width: 1117
VWidth: 1839
Flags: HMW
AnchorPoint: "Anchor-2" 215 1459 baselig 1
AnchorPoint: "Anchor-0" 236 0 baselig 1
AnchorPoint: "Anchor-2" 862 1467 baselig 0
AnchorPoint: "Anchor-0" 807 -3 baselig 0
LayerCount: 2
Fore
SplineSet
863 1360 m 1
 863 1367 l 2
 863 1397 888 1414 914 1414 c 0
 937 1414 959 1401 963 1372 c 0
 999 1080 1017 701 1017 386 c 0
 1017 121 761 -5 467 -5 c 0
 376 -5 234 11 131 53 c 0
 110 62 101 79 101 97 c 0
 101 123 121 149 149 149 c 0
 155 149 162 148 169 145 c 0
 250 111 388 95 467 95 c 0
 745 95 917 207 917 386 c 0
 917 697 899 1074 863 1360 c 1
229 1317 m 0
 226 1324 224 1331 224 1338 c 0
 224 1366 251 1387 277 1387 c 0
 294 1387 310 1379 319 1359 c 0
 415 1154 508 755 508 329 c 0
 508 297 483 281 458 281 c 0
 433 281 408 297 408 329 c 0
 408 741 315 1132 229 1317 c 0
EndSplineSet
Ligature2: "'rlig' Required Ligatures in Arabic lookup 7 subtable" uniFEDF uniFE8E
PairPos2: "'kern' Horizontal Kerning in Arabic lookup 2 per glyph data 0" uni062C dx=-134 dy=0 dh=-134 dv=0 dx=0 dy=0 dh=0 dv=0
PairPos2: "'kern' Horizontal Kerning in Arabic lookup 2 per glyph data 0" uni062D dx=-134 dy=0 dh=-134 dv=0 dx=0 dy=0 dh=0 dv=0
PairPos2: "'kern' Horizontal Kerning in Arabic lookup 2 per glyph data 0" uni062E dx=-134 dy=0 dh=-134 dv=0 dx=0 dy=0 dh=0 dv=0
PairPos2: "'kern' Horizontal Kerning in Arabic lookup 2 per glyph data 0" uni0639 dx=-401 dy=0 dh=-401 dv=0 dx=0 dy=0 dh=0 dv=0
PairPos2: "'kern' Horizontal Kerning in Arabic lookup 2 per glyph data 0" uni063A dx=-401 dy=0 dh=-401 dv=0 dx=0 dy=0 dh=0 dv=0
PairPos2: "'kern' Horizontal Kerning in Arabic lookup 2 per glyph data 0" uni0686 dx=-134 dy=0 dh=-134 dv=0 dx=0 dy=0 dh=0 dv=0
LCarets2: 1 0
Colour: ffff
EndChar

StartChar: uniFEFC
Encoding: 65276 65276 200
Width: 1340
VWidth: 1839
Flags: HMW
AnchorPoint: "Anchor-0" 427 0 baselig 1
AnchorPoint: "Anchor-2" 252 1459 baselig 1
AnchorPoint: "Anchor-2" 977 1457 baselig 0
AnchorPoint: "Anchor-0" 959 -1 baselig 0
LayerCount: 2
Fore
SplineSet
1024 1366 m 0
 1051 1366 1074 1343 1074 1316 c 2
 1074 637 l 2
 1074 178 1159 95 1340 95 c 0
 1367 95 1390 72 1390 45 c 0
 1390 18 1367 -5 1340 -5 c 0
 1156.45795275 -5 1050.84141111 83.1532282184 1003.77659681 293.108878486 c 1
 872.925327489 43.2361420709 566.82459953 -5 150 -5 c 0
 123 -5 100 18 100 45 c 0
 100 72 123 95 150 95 c 0
 713 95 974 163 974 637 c 2
 974 1316 l 2
 974 1343 997 1366 1024 1366 c 0
261 1289 m 0
 259 1294 259 1300 259 1305 c 0
 259 1334 286 1353 312 1353 c 0
 331 1353 350 1343 357 1319 c 0
 448 1025 544 686 544 357 c 0
 544 325 518 309 493 309 c 0
 470 309 446 323 444 353 c 0
 421 677 353 992 261 1289 c 0
EndSplineSet
Ligature2: "'rlig' Required Ligatures in Arabic lookup 7 subtable" uniFEE0 uniFE8E
PairPos2: "'kern' Horizontal Kerning in Arabic lookup 2 per glyph data 0" uni062C dx=-134 dy=0 dh=-134 dv=0 dx=0 dy=0 dh=0 dv=0
PairPos2: "'kern' Horizontal Kerning in Arabic lookup 2 per glyph data 0" uni062D dx=-134 dy=0 dh=-134 dv=0 dx=0 dy=0 dh=0 dv=0
PairPos2: "'kern' Horizontal Kerning in Arabic lookup 2 per glyph data 0" uni062E dx=-134 dy=0 dh=-134 dv=0 dx=0 dy=0 dh=0 dv=0
PairPos2: "'kern' Horizontal Kerning in Arabic lookup 2 per glyph data 0" uni0639 dx=-401 dy=0 dh=-401 dv=0 dx=0 dy=0 dh=0 dv=0
PairPos2: "'kern' Horizontal Kerning in Arabic lookup 2 per glyph data 0" uni063A dx=-401 dy=0 dh=-401 dv=0 dx=0 dy=0 dh=0 dv=0
PairPos2: "'kern' Horizontal Kerning in Arabic lookup 2 per glyph data 0" uni0686 dx=-134 dy=0 dh=-134 dv=0 dx=0 dy=0 dh=0 dv=0
LCarets2: 1 0
Colour: ffff
EndChar

StartChar: uni06CC
Encoding: 1740 1740 201
Width: 1385
VWidth: 2370
Flags: HMW
AnchorPoint: "Anchor-3" 424 624 basechar 0
AnchorPoint: "Anchor-1" 724 -563 basechar 0
LayerCount: 2
Fore
SplineSet
1268 736 m 0
 1268 708 1245 686 1218 686 c 0
 1206 686 1195 690 1185 698 c 0
 1143 734 1082 761 1010 761 c 0
 835 761 679 616 679 430 c 0
 679 225 800 208 944 192 c 0
 1107 173 1285 131 1285 -82 c 0
 1285 -358 1035 -503 730 -503 c 0
 388 -503 100 -304 100 74 c 0
 100 225 146 357 194 462 c 0
 203 482 219 490 236 490 c 0
 262 490 290 470 290 441 c 0
 290 434 288 427 285 420 c 0
 240 321 200 205 200 74 c 0
 200 -240 426 -403 730 -403 c 0
 1013 -403 1185 -280 1185 -82 c 0
 1185 47 1101 73 932 92 c 0
 788 108 579 149 579 430 c 0
 579 674 781 861 1010 861 c 0
 1106 861 1191 826 1251 774 c 0
 1262 764 1268 750 1268 736 c 0
EndSplineSet
Substitution2: "'init' Initial Forms in Arabic lookup 6 subtable" uniFBFE
Substitution2: "'medi' Medial Forms in Arabic lookup 5 subtable" uniFBFF
Substitution2: "'fina' Terminal Forms in Arabic lookup 4 subtable" uniFBFD
Colour: ffff
EndChar

StartChar: uniFBFD
Encoding: 64509 64509 202
Width: 1459
VWidth: 1839
Flags: HMW
AnchorPoint: "Anchor-3" 793 214 basechar 0
AnchorPoint: "Anchor-1" 647 -580 basechar 0
LayerCount: 2
Fore
SplineSet
353 468 m 0
 381 468 403 446 403 418 c 0
 403 406 399 393 390 384 c 0
 257 240 200 43 200 -72 c 0
 200 -364 456 -476 728 -476 c 0
 1064 -476 1199 -332 1199 -232 c 0
 1199 -147 1103 -29 833 -5 c 0
 804 -3 789 21 789 45 c 0
 789 70 805 95 837 95 c 2
 1459 95 l 2
 1486 95 1509 72 1509 45 c 0
 1509 18 1486 -5 1459 -5 c 2
 1162 -5 l 1
 1249 -64 1299 -145 1299 -232 c 0
 1299 -424 1078 -576 728 -576 c 0
 440 -576 100 -448 100 -72 c 0
 100 69 163 286 316 452 c 0
 325 463 339 468 353 468 c 0
EndSplineSet
Colour: ffff
EndChar

StartChar: uniFB8F
Encoding: 64399 64399 205
Width: 1884
VWidth: 1478
Flags: HMW
AnchorPoint: "Anchor-1" 696 0 basechar 0
AnchorPoint: "Anchor-3" 1242 1297 basechar 0
LayerCount: 2
Fore
SplineSet
1155 668 m 0
 1148 678 1144 688 1144 697 c 0
 1144 724 1170 748 1197 748 c 0
 1210 748 1224 742 1235 728 c 0
 1291 655 1335 575 1378 496 c 0
 1496 278 1597 95 1884 95 c 0
 1911 95 1934 72 1934 45 c 0
 1934 18 1911 -5 1884 -5 c 0
 1417 -5 1351 411 1155 668 c 0
EndSplineSet
Refer: 92 1705 N 1 0 0 1 0 0 2
Colour: ffff
EndChar

StartChar: uniFBE8
Encoding: 64488 64488 218
Width: 532
VWidth: 1437
Flags: HMW
AnchorPoint: "Anchor-3" 276 832 basechar 0
AnchorPoint: "Anchor-1" 294 89 basechar 0
LayerCount: 2
Fore
SplineSet
226 808 m 0
 223 815 222 822 222 828 c 0
 222 856 249 876 275 876 c 0
 292 876 309 867 318 846 c 0
 397 658 432 508 432 387 c 0
 432 108 209 -5 0 -5 c 0
 -27 -5 -50 18 -50 45 c 0
 -50 72 -27 95 0 95 c 0
 179 95 332 178 332 387 c 0
 332 488 301 628 226 808 c 0
EndSplineSet
Colour: ffff
EndChar

StartChar: uniFBE9
Encoding: 64489 64489 219
Width: 861
VWidth: 1437
Flags: HMW
AnchorPoint: "Anchor-3" 283 565 basechar 0
AnchorPoint: "Anchor-1" 261 0 basechar 0
LayerCount: 2
Fore
SplineSet
396 566 m 0
 396 600 405 632 445 632 c 0
 470 632 492 613 495 587 c 0
 502 523 509 458 518 406 c 0
 556 181 611 95 861 95 c 0
 888 95 911 72 911 45 c 0
 911 18 888 -5 861 -5 c 0
 632 -5 510 81 453 247 c 1
 374 85 207 -5 0 -5 c 0
 -27 -5 -50 18 -50 45 c 0
 -50 72 -27 95 0 95 c 0
 249 95 402 233 402 475 c 0
 402 503 396 537 396 566 c 0
EndSplineSet
Colour: ffff
EndChar

StartChar: uniFEE3
Encoding: 65251 65251 222
Width: 1039
VWidth: 2370
Flags: HMW
AnchorPoint: "Anchor-3" 605 811 basechar 0
AnchorPoint: "Anchor-1" 613 0 basechar 0
LayerCount: 2
Fore
SplineSet
320 137 m 0
 320 166 343 187 370 187 c 0
 381 187 393 183 402 176 c 0
 466 124 548 95 623 95 c 0
 740 95 839 157 839 326 c 0
 839 472 714 598 607 598 c 0
 485 598 417 514 374 383 c 0
 319 216 248 -5 0 -5 c 0
 -27 -5 -50 18 -50 45 c 0
 -50 72 -27 95 0 95 c 0
 168 95 219 236 278 415 c 0
 325 562 423 698 607 698 c 0
 782 698 939 520 939 326 c 0
 939 101 786 -5 623 -5 c 0
 524 -5 420 31 338 98 c 0
 326 108 320 122 320 137 c 0
EndSplineSet
Colour: ffff
EndChar

StartChar: uniE000
Encoding: 57344 57344 223
Width: 424
VWidth: 1823
Flags: HMW
LayerCount: 2
Fore
SplineSet
125 144 m 0
 125 187 168 221 217 221 c 0
 266 221 294 188 294 139 c 0
 294 90 261 48 212 48 c 0
 163 48 125 96 125 144 c 0
EndSplineSet
Colour: ff0000
EndChar

StartChar: uniE001
Encoding: 57345 57345 224
Width: 660
VWidth: 1823
Flags: HMW
LayerCount: 2
Fore
SplineSet
98 49 m 0
 72 49 48 71 48 99 c 0
 48 114 55 130 68 139 c 0
 149 199 285 233 400 233 c 0
 484 233 610 213 610 99 c 0
 610 62 590 34 559 34 c 0
 523 34 509 61 509 89 c 0
 509 93 510 96 510 100 c 0
 510 108 493 133 400 133 c 0
 305 133 183 99 128 59 c 0
 119 52 109 49 98 49 c 0
EndSplineSet
Colour: ffff
EndChar

StartChar: uniE002
Encoding: 57346 57346 225
Width: 696
VWidth: 1823
Flags: HMW
LayerCount: 2
Fore
SplineSet
85 331 m 0
 59 331 35 353 35 381 c 0
 35 396 42 412 55 421 c 0
 115 465 272 514 402 514 c 0
 486 514 599 485 599 370 c 0
 599 241 446 102 335 70 c 0
 330 68 325 68 320 68 c 0
 291 68 272 94 272 120 c 0
 272 139 283 159 307 166 c 0
 384 188 499 313 499 370 c 0
 499 393 482 414 402 414 c 0
 296 414 145 363 115 341 c 0
 106 334 96 331 85 331 c 0
EndSplineSet
Colour: ffff
EndChar

StartChar: uniE003
Encoding: 57347 57347 226
Width: 696
VWidth: 1823
Flags: HMW
LayerCount: 2
Fore
SplineSet
475 76 m 0
 446 76 425 100 425 126 c 0
 425 136 427 145 433 154 c 0
 445 172 453 194 453 230 c 0
 453 305 396 356 308 356 c 0
 234 356 172 297 172 234 c 0
 172 162 209 126 267 73 c 0
 278 64 283 50 283 36 c 0
 283 8 261 -14 233 -14 c 0
 221 -14 208 -10 199 -1 c 0
 143 50 72 116 72 234 c 0
 72 361 186 456 308 456 c 0
 438 456 553 369 553 230 c 0
 553 178 541 134 517 98 c 0
 508 84 491 76 475 76 c 0
EndSplineSet
Colour: ffff
EndChar

StartChar: uniE004
Encoding: 57348 57348 227
Width: 1937
VWidth: 2370
Flags: HMW
AnchorPoint: "Anchor-3" 839 577 basechar 0
AnchorPoint: "Anchor-1" 783 -1 basechar 0
LayerCount: 2
Fore
SplineSet
1987 45 m 0
 1987 18 1964 -5 1937 -5 c 0
 1691 -5 1573 124 1537 321 c 1
 1391 97 1107 -5 779 -5 c 0
 397 -5 100 127 100 414 c 0
 100 506 112 583 137 655 c 0
 145 678 163 687 181 687 c 0
 207 687 234 667 234 638 c 0
 234 633 233 627 231 621 c 0
 210 561 200 498 200 414 c 0
 200 221 403 95 779 95 c 0
 1172 95 1456 247 1522 542 c 0
 1528 567 1549 580 1571 580 c 0
 1596 580 1621 563 1621 531 c 0
 1621 236 1678 95 1937 95 c 0
 1964 95 1987 72 1987 45 c 0
EndSplineSet
Colour: ffff
EndChar

StartChar: uniE005
Encoding: 57349 57349 228
Width: 834
VWidth: 2370
Flags: HMW
AnchorPoint: "Anchor-3" 430 1141 basechar 0
AnchorPoint: "Anchor-1" 372 0 basechar 0
LayerCount: 2
Fore
SplineSet
632 502 m 1
 618 791 540 996 410 996 c 0
 271 996 192 825 192 665 c 0
 192 519 266 465 427 465 c 0
 490 465 549 479 600 500 c 0
 610 504 622 505 632 502 c 1
410 1096 m 0
 681 1096 734 703 734 399 c 0
 734 79 438 -5 0 -5 c 0
 -27 -5 -50 18 -50 45 c 0
 -50 72 -27 95 0 95 c 0
 448 95 634 177 634 399 c 2
 634 406 l 1
 574 382 504 365 427 365 c 0
 234 365 92 457 92 665 c 0
 92 835 175 1096 410 1096 c 0
EndSplineSet
Colour: ffff
EndChar

StartChar: uniE006
Encoding: 57350 57350 229
Width: 885
VWidth: 2370
Flags: HMW
AnchorPoint: "Anchor-3" 522 921 basechar 0
AnchorPoint: "Anchor-1" 337 0 basechar 0
LayerCount: 2
Fore
SplineSet
439 186 m 1
 579 254 672 359 672 503 c 0
 672 655 598 758 467 758 c 0
 328 758 213 644 213 504 c 0
 213 359 301 254 439 186 c 1
885 -5 m 0
 727 -5 568 22 439 76 c 1
 309 22 150 -5 0 -5 c 0
 -27 -5 -50 18 -50 45 c 0
 -50 72 -27 95 0 95 c 0
 108 95 219 110 319 140 c 1
 196 222 113 345 113 504 c 0
 113 700 272 858 467 858 c 0
 670 858 772 685 772 503 c 0
 772 343 683 220 559 139 c 1
 658 110 771 95 885 95 c 0
 912 95 935 72 935 45 c 0
 935 18 912 -5 885 -5 c 0
EndSplineSet
Colour: ffff
EndChar

StartChar: uni064E
Encoding: 1614 1614 230
Width: 0
VWidth: -1171
Flags: HMW
AnchorPoint: "Anchor-5" 206 944 mark 0
AnchorPoint: "Anchor-2" 206 944 mark 0
AnchorPoint: "Anchor-3" 206 944 mark 0
AnchorPoint: "Anchor-5" 206 1404 basemark 0
LayerCount: 2
Fore
SplineSet
27 1308 m 2
 23 1306 19 1306 15 1306 c 0
 -5 1306 -19 1325 -19 1343 c 0
 -19 1356 -13 1369 3 1374 c 2
 408 1518 l 2
 412 1520 416 1520 420 1520 c 0
 440 1520 454 1501 454 1483 c 0
 454 1470 448 1457 432 1452 c 2
 27 1308 l 2
EndSplineSet
Colour: ffff00
EndChar

StartChar: uni064F
Encoding: 1615 1615 234
Width: 0
VWidth: 2274
Flags: HMW
AnchorPoint: "Anchor-5" 162 858 mark 0
AnchorPoint: "Anchor-5" 171 1537 basemark 0
AnchorPoint: "Anchor-3" 162 858 mark 0
AnchorPoint: "Anchor-2" 162 858 mark 0
LayerCount: 2
Fore
SplineSet
289 1350 m 1
 238 1238 118 1201 -33 1193 c 1
 -35 1193 l 2
 -57 1193 -69 1211 -69 1229 c 0
 -69 1246 -59 1262 -37 1263 c 0
 95 1270 174 1299 213 1358 c 1
 131 1372 22 1406 22 1508 c 0
 22 1591 76 1713 191 1713 c 0
 316 1713 315 1559 315 1488 c 0
 315 1464 313 1440 309 1419 c 1
 325 1418 341 1418 355 1418 c 0
 374 1418 390 1402 390 1383 c 0
 390 1364 374 1348 355 1348 c 0
 335 1348 313 1349 289 1350 c 1
239 1425 m 1
 243 1443 245 1465 245 1488 c 0
 245 1583 232 1643 191 1643 c 0
 136 1643 92 1573 92 1508 c 0
 92 1469 145 1438 239 1425 c 1
EndSplineSet
Colour: ffff00
EndChar

StartChar: uni0651
Encoding: 1617 1617 235
Width: 0
VWidth: 2279
Flags: HMW
AnchorPoint: "Anchor-5" 239 858 mark 0
AnchorPoint: "Anchor-5" 239 1330 basemark 0
AnchorPoint: "Anchor-3" 239 858 mark 0
AnchorPoint: "Anchor-2" 239 858 mark 0
LayerCount: 2
Fore
SplineSet
274 1442 m 1
 274 1341 323 1298 364 1298 c 0
 404 1298 428 1313 428 1374 c 0
 428 1431 405 1504 386 1546 c 0
 384 1551 383 1556 383 1560 c 0
 383 1580 402 1594 420 1594 c 0
 432 1594 444 1588 450 1574 c 0
 471 1526 498 1447 498 1374 c 0
 498 1281 440 1228 364 1228 c 0
 311 1228 266 1259 238 1304 c 1
 208 1256 162 1229 110 1229 c 0
 41 1229 -19 1275 -19 1360 c 0
 -19 1424 11 1491 48 1539 c 0
 55 1549 65 1553 74 1553 c 0
 93 1553 112 1536 112 1517 c 0
 112 1510 109 1504 104 1497 c 0
 75 1459 51 1402 51 1360 c 0
 51 1313 73 1299 110 1299 c 0
 153 1299 204 1341 204 1442 c 1
 274 1442 l 1
EndSplineSet
Colour: ffff00
EndChar

StartChar: uni0670
Encoding: 1648 1648 236
Width: 0
VWidth: 1823
Flags: HMW
AnchorPoint: "Anchor-5" 33 861 mark 0
AnchorPoint: "Anchor-5" 33 1413 basemark 0
AnchorPoint: "Anchor-3" 33 861 mark 0
AnchorPoint: "Anchor-2" 33 861 mark 0
LayerCount: 2
Fore
SplineSet
-21 1623 m 0
 -21 1645 -3 1657 15 1657 c 0
 31 1657 47 1647 49 1626 c 0
 55 1549 61 1479 61 1409 c 0
 61 1336 53 1262 29 1188 c 0
 24 1172 11 1165 -2 1165 c 0
 -20 1165 -39 1178 -39 1198 c 0
 -39 1202 -38 1206 -37 1210 c 0
 -16 1274 -9 1340 -9 1409 c 0
 -9 1476 -21 1545 -21 1623 c 0
EndSplineSet
Colour: ffff00
EndChar

StartChar: uni064C
Encoding: 1612 1612 237
Width: 0
VWidth: 2274
Flags: HMW
AnchorPoint: "Anchor-5" 180 858 mark 0
AnchorPoint: "Anchor-5" 187 1497 basemark 0
AnchorPoint: "Anchor-3" 180 858 mark 0
AnchorPoint: "Anchor-2" 180 858 mark 0
LayerCount: 2
Fore
SplineSet
194 1926 m 1
 198 1926 l 2
 220 1926 231 1909 231 1891 c 0
 231 1875 221 1858 200 1856 c 0
 75 1846 -52 1698 -52 1559 c 0
 -52 1514 -40 1472 -10 1435 c 0
 -5 1428 -2 1421 -2 1414 c 0
 -2 1395 -20 1378 -39 1378 c 0
 -48 1378 -57 1382 -64 1391 c 0
 -104 1442 -122 1500 -122 1559 c 0
 -122 1732 25 1912 194 1926 c 1
EndSplineSet
Refer: 234 1615 N 1 0 0 1 0 0 2
Colour: ffff00
EndChar

StartChar: uni0652
Encoding: 1618 1618 238
Width: 0
VWidth: 2274
Flags: HMW
AnchorPoint: "Anchor-5" 183 944 mark 0
AnchorPoint: "Anchor-5" 167 1441 basemark 0
AnchorPoint: "Anchor-3" 183 944 mark 0
AnchorPoint: "Anchor-2" 183 944 mark 0
LayerCount: 2
Fore
SplineSet
176 1554 m 0
 126 1554 72 1506 72 1434 c 0
 72 1383 116 1332 175 1332 c 0
 228 1332 278 1377 278 1452 c 0
 278 1504 238 1554 176 1554 c 0
176 1624 m 0
 280 1624 348 1538 348 1452 c 0
 348 1343 270 1262 175 1262 c 0
 74 1262 2 1347 2 1434 c 0
 2 1540 82 1624 176 1624 c 0
EndSplineSet
Colour: ffff00
EndChar

StartChar: uni0653
Encoding: 1619 1619 239
Width: 0
VWidth: 1823
Flags: HMW
AnchorPoint: "Anchor-5" 308 858 mark 0
AnchorPoint: "Anchor-5" 316 1325 basemark 0
AnchorPoint: "Anchor-3" 308 858 mark 0
AnchorPoint: "Anchor-2" 308 858 mark 0
LayerCount: 2
Fore
SplineSet
539 1431 m 0
 545 1445 557 1451 569 1451 c 0
 588 1451 607 1436 607 1416 c 0
 607 1411 606 1406 603 1401 c 0
 569 1330 512 1253 419 1253 c 0
 378 1253 333 1268 286 1300 c 0
 251 1324 221 1334 194 1334 c 0
 143 1334 93 1300 59 1241 c 0
 52 1229 42 1224 31 1224 c 0
 13 1224 -6 1239 -6 1258 c 0
 -6 1264 -5 1269 -1 1275 c 0
 41 1348 109 1404 194 1404 c 0
 239 1404 283 1388 326 1358 c 0
 365 1332 396 1323 419 1323 c 0
 468 1323 507 1364 539 1431 c 0
EndSplineSet
Colour: ffff00
EndChar

StartChar: uni0654
Encoding: 1620 1620 240
Width: 0
VWidth: 2280
Flags: HMW
AnchorPoint: "Anchor-5" 236 858 mark 0
AnchorPoint: "Anchor-5" 236 1503 basemark 0
AnchorPoint: "Anchor-3" 236 858 mark 0
AnchorPoint: "Anchor-2" 236 858 mark 0
LayerCount: 2
Fore
SplineSet
380 1608 m 0
 385 1601 387 1595 387 1588 c 0
 387 1569 369 1552 350 1552 c 0
 341 1552 331 1556 324 1566 c 0
 295 1605 262 1619 228 1619 c 0
 159 1619 85 1552 85 1463 c 0
 85 1386 131 1358 221 1358 c 0
 277 1358 342 1371 408 1394 c 0
 412 1396 416 1396 420 1396 c 0
 440 1396 454 1377 454 1359 c 0
 454 1346 447 1334 431 1328 c 2
 26 1187 l 2
 22 1185 18 1185 14 1185 c 0
 -6 1185 -20 1204 -20 1222 c 0
 -20 1235 -14 1248 2 1253 c 2
 135 1299 l 1
 66 1320 15 1375 15 1463 c 0
 15 1590 117 1689 228 1689 c 0
 284 1689 339 1663 380 1608 c 0
EndSplineSet
Colour: ffff00
EndChar

StartChar: uni0615
Encoding: 1557 1557 244
Width: 0
VWidth: 1839
Flags: HMW
AnchorPoint: "Anchor-5" 256 768 mark 0
AnchorPoint: "Anchor-5" 247 1347 basemark 0
AnchorPoint: "Anchor-3" 256 768 mark 0
AnchorPoint: "Anchor-2" 256 768 mark 0
LayerCount: 2
Fore
SplineSet
198 1194 m 1
 218 1193 238 1192 258 1192 c 0
 376 1192 480 1228 480 1309 c 0
 480 1353 444 1387 393 1387 c 0
 303 1387 236 1299 198 1194 c 1
116 1713 m 0
 116 1715 116 1717 116 1719 c 0
 116 1740 135 1753 153 1753 c 0
 168 1753 183 1744 186 1725 c 0
 201 1633 209 1538 209 1441 c 0
 209 1413 208 1385 207 1357 c 1
 251 1413 313 1457 393 1457 c 0
 476 1457 550 1397 550 1309 c 0
 550 1154 370 1122 258 1122 c 0
 160 1122 80 1135 -1 1157 c 0
 -18 1162 -26 1176 -26 1190 c 0
 -26 1208 -13 1226 7 1226 c 0
 10 1226 13 1226 17 1225 c 0
 52 1216 87 1207 122 1202 c 1
 133 1284 139 1364 139 1441 c 0
 139 1534 131 1625 116 1713 c 0
EndSplineSet
Colour: ffff00
EndChar

StartChar: uniE007
Encoding: 57351 57351 251
Width: 1067
VWidth: 1839
Flags: HMW
LayerCount: 2
Fore
SplineSet
168 1288 m 0
 142 1288 117 1308 117 1337 c 0
 117 1354 126 1372 141 1381 c 2
 735 1748 l 2
 743 1753 751 1755 760 1755 c 0
 786 1755 811 1735 811 1706 c 0
 811 1689 802 1671 787 1662 c 2
 193 1295 l 2
 185 1290 177 1288 168 1288 c 0
EndSplineSet
Colour: ffff
EndChar

StartChar: uni0643
Encoding: 1603 1603 261
Width: 1550
VWidth: 1478
Flags: HMW
AnchorPoint: "Anchor-3" 791 873 basechar 0
AnchorPoint: "Anchor-1" 703 0 basechar 0
LayerCount: 2
Fore
SplineSet
214 729 m 0
 243 729 263 704 263 678 c 0
 263 668 260 658 254 650 c 0
 218 599 200 539 200 473 c 0
 200 183 503 95 845 95 c 0
 1167 95 1350 178 1350 471 c 0
 1350 732 1334 1073 1303 1309 c 1
 1303 1316 l 2
 1303 1347 1329 1365 1355 1365 c 0
 1377 1365 1399 1352 1403 1323 c 0
 1436 1079 1450 736 1450 471 c 0
 1450 102 1181 -5 845 -5 c 0
 509 -5 100 83 100 473 c 0
 100 557 124 639 172 708 c 0
 182 722 198 729 214 729 c 0
EndSplineSet
Refer: 240 1620 N 1 0 0 1 565 -617 2
Substitution2: "'init' Initial Forms in Arabic lookup 6 subtable" uniFEDB
Substitution2: "'medi' Medial Forms in Arabic lookup 5 subtable" uniFEDC
Substitution2: "'fina' Terminal Forms in Arabic lookup 4 subtable" uniFEDA
Colour: ffff
EndChar

StartChar: uni065A
Encoding: 1626 1626 265
Width: 0
VWidth: -365
Flags: HMW
AnchorPoint: "Anchor-5" 240 826 mark 0
AnchorPoint: "Anchor-5" 240 1381 basemark 0
AnchorPoint: "Anchor-3" 240 826 mark 0
AnchorPoint: "Anchor-2" 240 826 mark 0
LayerCount: 2
Fore
SplineSet
208 1004 m 1
 208 1123 123 1383 2 1499 c 0
 -6 1506 -9 1515 -9 1523 c 0
 -9 1542 8 1559 27 1559 c 0
 35 1559 43 1556 50 1549 c 0
 139 1463 205 1327 243 1201 c 1
 281 1325 346 1463 436 1549 c 0
 443 1556 451 1559 459 1559 c 0
 478 1559 495 1542 495 1523 c 0
 495 1515 492 1506 484 1499 c 0
 363 1383 278 1123 278 1004 c 1
 208 1004 l 1
EndSplineSet
Colour: ffff00
EndChar

StartChar: uni0621
Encoding: 1569 1569 266
Width: 857
VWidth: 2280
Flags: HMW
AnchorPoint: "Anchor-3" 428 736 basechar 0
AnchorPoint: "Anchor-1" 428 175 basechar 0
LayerCount: 2
Fore
SplineSet
655 679 m 0
 655 653 634 629 605 629 c 0
 589 629 572 637 563 651 c 0
 532 698 496 726 423 726 c 0
 293 726 192 586 192 451 c 0
 192 348 246 258 404 258 c 0
 512 258 636 280 743 280 c 0
 775 280 791 256 791 231 c 0
 791 209 778 186 752 181 c 0
 542 141 338 73 149 -56 c 0
 141 -62 132 -64 122 -64 c 0
 96 -64 72 -45 72 -16 c 0
 72 0 79 17 93 26 c 0
 174 81 255 125 341 162 c 1
 170 187 92 319 92 451 c 0
 92 624 219 826 423 826 c 0
 530 826 602 774 647 707 c 0
 653 698 655 689 655 679 c 0
EndSplineSet
Colour: ffff
EndChar

StartChar: uni0640
Encoding: 1600 1600 267
Width: 668
VWidth: 1437
Flags: HMW
AnchorPoint: "Anchor-1" 334 -169 basechar 0
AnchorPoint: "Anchor-3" 334 520 basechar 0
LayerCount: 2
Fore
SplineSet
-50 45 m 0
 -50 72 -27 95 0 95 c 2
 668 95 l 2
 695 95 718 72 718 45 c 0
 718 18 695 -5 668 -5 c 2
 0 -5 l 2
 -27 -5 -50 18 -50 45 c 0
EndSplineSet
Colour: ffff
EndChar

StartChar: uni0660
Encoding: 1632 1632 275
Width: 737
VWidth: 2694
Flags: HMW
LayerCount: 2
Fore
SplineSet
202 475 m 0
 202 385 283 302 380 302 c 0
 461 302 534 383 534 484 c 0
 534 574 475 636 392 636 c 0
 284 636 202 560 202 475 c 0
118 475 m 0
 118 618 248 722 392 722 c 0
 525 722 620 614 620 484 c 0
 620 347 519 218 380 218 c 0
 237 218 118 337 118 475 c 0
EndSplineSet
PairPos2: "'kern' Horizontal Kerning in Arabic lookup 3 per glyph data 0" uni0667 dx=-89 dy=0 dh=-89 dv=0 dx=0 dy=0 dh=0 dv=0
PairPos2: "'kern' Horizontal Kerning in Arabic lookup 3 per glyph data 0" uni0666 dx=-89 dy=0 dh=-89 dv=0 dx=0 dy=0 dh=0 dv=0
PairPos2: "'kern' Horizontal Kerning in Arabic lookup 3 per glyph data 0" uni0662 dx=-111 dy=0 dh=-111 dv=0 dx=0 dy=0 dh=0 dv=0
Colour: ff
EndChar

StartChar: uni0661
Encoding: 1633 1633 276
Width: 540
VWidth: 1823
Flags: HMW
LayerCount: 2
Fore
SplineSet
113 1345 m 0
 111 1351 110 1357 110 1362 c 0
 110 1391 136 1410 162 1410 c 0
 181 1410 199 1400 207 1377 c 0
 354 949 430 489 430 0 c 0
 430 -32 405 -48 380 -48 c 0
 355 -48 330 -32 330 -0 c 0
 330 479 256 927 113 1345 c 0
EndSplineSet
Colour: ffff
EndChar

StartChar: uni0662
Encoding: 1634 1634 277
Width: 1007
VWidth: 1823
Flags: HMW
LayerCount: 2
Fore
SplineSet
110 1316 m 0
 110 1340 129 1366 159 1366 c 0
 179 1366 199 1353 206 1336 c 0
 253 1231 296 1121 356 1025 c 0
 427 911 508 837 584 837 c 0
 736 837 797 1022 797 1225 c 0
 797 1251 793 1277 793 1301 c 0
 793 1335 801 1361 836 1366 c 0
 839 1366 842 1367 845 1367 c 0
 894 1367 897 1304 897 1250 c 2
 897 1225 l 2
 897 1030 840 737 584 737 c 0
 513 737 451 770 399 815 c 1
 465 587 513 339 513 98 c 0
 513 82 514 65 514 48 c 0
 514 -2 508 -50 462 -50 c 2
 458 -50 l 2
 418 -47 411 -14 411 26 c 0
 411 49 413 75 413 98 c 0
 413 461 295 857 174 1155 c 0
 150 1208 130 1257 114 1297 c 0
 112 1303 110 1310 110 1316 c 0
EndSplineSet
Colour: ffff
EndChar

StartChar: uni0663
Encoding: 1635 1635 278
Width: 1280
VWidth: 2315
Flags: HMW
LayerCount: 2
Fore
SplineSet
513 110 m 0
 513 91 514 69 514 48 c 0
 514 -2 507 -50 462 -50 c 2
 460 -50 l 2
 418 -49 410 -11 410 32 c 0
 410 58 413 86 413 110 c 0
 413 525 252 952 114 1270 c 0
 111 1277 110 1284 110 1290 c 0
 110 1319 137 1339 163 1339 c 0
 180 1339 197 1330 206 1310 c 0
 255 1200 277 1142 314 1045 c 0
 340 979 364 927 387 891 c 0
 422 837 452 818 504 818 c 0
 637 818 676 983 676 1183 c 0
 676 1224 672 1265 664 1307 c 0
 663 1310 663 1314 663 1317 c 0
 663 1347 690 1364 716 1364 c 0
 737 1364 757 1353 762 1326 c 0
 769 1294 774 1253 779 1208 c 0
 801 1011 840 819 932 818 c 1
 1026 822 1070 938 1070 1087 c 0
 1070 1120 1067 1209 1043 1303 c 0
 1042 1308 1041 1313 1041 1317 c 0
 1041 1347 1068 1365 1094 1365 c 0
 1114 1365 1133 1354 1139 1329 c 0
 1167 1223 1170 1126 1170 1087 c 0
 1170 944 1132 723 934 718 c 0
 824 718 767 809 736 895 c 1
 700 799 627 718 504 718 c 0
 474 718 445 723 418 734 c 1
 475 532 513 321 513 110 c 0
EndSplineSet
Colour: ffff
EndChar

StartChar: uni0664
Encoding: 1636 1636 279
Width: 1077
VWidth: 2315
Flags: HMW
LayerCount: 2
Fore
SplineSet
700 1382 m 0
 700 1355 677 1332 650 1332 c 0
 461 1332 234 1244 234 1105 c 0
 234 1048 291 994 347 961 c 0
 397 932 543 859 543 752 c 0
 543 644 399 541 345 500 c 0
 275 446 210 385 210 305 c 0
 210 161 405 95 602 95 c 0
 703 95 803 116 897 156 c 0
 904 159 911 160 917 160 c 0
 946 160 966 132 966 106 c 0
 966 89 957 73 937 64 c 0
 831 18 717 -5 602 -5 c 0
 413 -5 110 53 110 305 c 0
 110 443 216 527 285 580 c 0
 345 625 443 727 443 752 c 0
 442 768 360 838 297 875 c 0
 237 910 134 984 134 1105 c 0
 134 1354 465 1432 650 1432 c 0
 677 1432 700 1409 700 1382 c 0
EndSplineSet
Colour: ffff
EndChar

StartChar: uni0665
Encoding: 1637 1637 280
Width: 1150
VWidth: 2370
Flags: HMW
LayerCount: 2
Fore
SplineSet
587 1016 m 1
 420 865 210 613 210 398 c 0
 210 216 351 95 583 95 c 0
 801 95 940 201 940 382 c 0
 940 584 778 822 587 1016 c 1
262 1317 m 0
 262 1346 287 1366 313 1366 c 0
 323 1366 333 1363 341 1357 c 0
 417 1303 504 1232 591 1151 c 1
 600 1159 612 1162 622 1162 c 0
 649 1162 674 1140 674 1113 c 0
 674 1103 670 1092 662 1082 c 1
 857 884 1040 631 1040 382 c 0
 1040 131 833 -5 583 -5 c 0
 315 -5 110 148 110 398 c 0
 110 667 345 930 515 1085 c 1
 434 1160 352 1226 283 1275 c 0
 269 1285 262 1301 262 1317 c 0
EndSplineSet
PairPos2: "'kern' Horizontal Kerning in Arabic lookup 3 per glyph data 0" uni0667 dx=-89 dy=0 dh=-89 dv=0 dx=0 dy=0 dh=0 dv=0
PairPos2: "'kern' Horizontal Kerning in Arabic lookup 3 per glyph data 0" uni0666 dx=-45 dy=0 dh=-45 dv=0 dx=0 dy=0 dh=0 dv=0
Colour: ffff
EndChar

StartChar: uni0666
Encoding: 1638 1638 281
Width: 1116
VWidth: 2315
Flags: HMW
LayerCount: 2
Fore
SplineSet
168 1247 m 0
 165 1246 161 1246 158 1246 c 0
 128 1246 112 1272 112 1297 c 0
 112 1319 124 1340 152 1345 c 0
 239 1360 326 1366 412 1366 c 0
 663 1366 852 1281 852 996 c 0
 852 557 874 295 1001 21 c 0
 1004 14 1006 7 1006 -0 c 0
 1006 -28 979 -49 953 -49 c 0
 936 -49 920 -41 911 -21 c 0
 774 273 752 555 752 996 c 0
 752 1213 643 1266 412 1266 c 0
 330 1266 249 1260 168 1247 c 0
EndSplineSet
PairPos2: "'kern' Horizontal Kerning in Arabic lookup 3 per glyph data 0" uni0660 dx=-89 dy=0 dh=-89 dv=0 dx=0 dy=0 dh=0 dv=0
PairPos2: "'kern' Horizontal Kerning in Arabic lookup 3 per glyph data 0" uni066B dx=-134 dy=0 dh=-134 dv=0 dx=0 dy=0 dh=0 dv=0
PairPos2: "'kern' Horizontal Kerning in Arabic lookup 3 per glyph data 0" uni0668 dx=-89 dy=0 dh=-89 dv=0 dx=0 dy=0 dh=0 dv=0
Colour: ffff
EndChar

StartChar: uni0667
Encoding: 1639 1639 282
Width: 1188
VWidth: 2370
Flags: HMW
LayerCount: 2
Fore
SplineSet
116 1291 m 0
 111 1299 109 1307 109 1315 c 0
 109 1343 136 1365 163 1365 c 0
 178 1365 194 1358 204 1341 c 0
 374 1040 527 711 610 331 c 1
 684 722 813 1068 985 1372 c 0
 995 1389 1010 1396 1025 1396 c 0
 1052 1396 1079 1375 1079 1347 c 0
 1079 1339 1077 1330 1072 1322 c 0
 860 948 714 505 662 -5 c 0
 659 -34 635 -49 611 -49 c 0
 588 -49 565 -34 562 -5 c 0
 510 502 329 914 116 1291 c 0
EndSplineSet
PairPos2: "'kern' Horizontal Kerning in Arabic lookup 3 per glyph data 0" uni0660 dx=-89 dy=0 dh=-89 dv=0 dx=0 dy=0 dh=0 dv=0
PairPos2: "'kern' Horizontal Kerning in Arabic lookup 3 per glyph data 0" uni0665 dx=-89 dy=0 dh=-89 dv=0 dx=0 dy=0 dh=0 dv=0
PairPos2: "'kern' Horizontal Kerning in Arabic lookup 3 per glyph data 0" uni0668 dx=-134 dy=0 dh=-134 dv=0 dx=0 dy=0 dh=0 dv=0
PairPos2: "'kern' Horizontal Kerning in Arabic lookup 3 per glyph data 0" uni066B dx=-1002 dy=0 dh=-111 dv=0 dx=0 dy=0 dh=0 dv=0
Colour: ffff
EndChar

StartChar: uni0668
Encoding: 1640 1640 283
Width: 1198
VWidth: 1823
Flags: HMW
LayerCount: 2
Fore
SplineSet
1082 36 m 0
 1087 28 1089 20 1089 12 c 0
 1089 -16 1062 -38 1035 -38 c 0
 1020 -38 1004 -31 994 -14 c 0
 822 289 675 641 594 1032 c 1
 515 643 375 303 204 0 c 0
 194 -17 179 -24 164 -24 c 0
 137 -24 110 -3 110 25 c 0
 110 33 112 42 117 50 c 0
 329 425 491 858 543 1366 c 0
 546 1395 570 1410 594 1410 c 0
 617 1410 640 1395 643 1366 c 0
 695 858 870 411 1082 36 c 0
EndSplineSet
PairPos2: "'kern' Horizontal Kerning in Arabic lookup 3 per glyph data 0" uni0663 dx=-89 dy=0 dh=-89 dv=0 dx=0 dy=0 dh=0 dv=0
PairPos2: "'kern' Horizontal Kerning in Arabic lookup 3 per glyph data 0" uni0662 dx=-89 dy=0 dh=-89 dv=0 dx=0 dy=0 dh=0 dv=0
PairPos2: "'kern' Horizontal Kerning in Arabic lookup 3 per glyph data 0" uni0667 dx=-134 dy=0 dh=-134 dv=0 dx=0 dy=0 dh=0 dv=0
Colour: ffff
EndChar

StartChar: uni0669
Encoding: 1641 1641 284
Width: 1045
VWidth: 2315
Flags: HMW
LayerCount: 2
Fore
SplineSet
677 780 m 1
 667 1034 647 1266 450 1266 c 0
 317 1266 210 1114 210 956 c 0
 210 816 321 760 495 760 c 0
 539 760 613 769 677 780 c 1
827 750 m 0
 827 725 810 709 783 700 c 1
 802 482 862 200 932 18 c 0
 934 12 936 6 936 -0 c 0
 936 -29 908 -49 882 -49 c 0
 864 -49 846 -40 838 -18 c 0
 764 174 705 454 684 680 c 1
 618 669 547 660 495 660 c 0
 309 660 110 732 110 956 c 0
 110 1146 237 1366 450 1366 c 0
 753 1366 767 1019 776 801 c 1
 777 801 l 2
 808 801 827 775 827 750 c 0
EndSplineSet
PairPos2: "'kern' Horizontal Kerning in Arabic lookup 3 per glyph data 0" uni066B dx=-67 dy=0 dh=-67 dv=0 dx=0 dy=0 dh=0 dv=0
PairPos2: "'kern' Horizontal Kerning in Arabic lookup 3 per glyph data 0" uni0668 dx=-134 dy=0 dh=-134 dv=0 dx=0 dy=0 dh=0 dv=0
PairPos2: "'kern' Horizontal Kerning in Arabic lookup 3 per glyph data 0" uni0665 dx=-45 dy=0 dh=-45 dv=0 dx=0 dy=0 dh=0 dv=0
Colour: ffff
EndChar

StartChar: uni06F4
Encoding: 1780 1780 290
Width: 1026
VWidth: 2370
Flags: HMW
LayerCount: 2
Fore
SplineSet
916 741 m 0
 916 714 893 691 866 691 c 0
 658 691 454 783 349 880 c 1
 404 650 433 399 433 126 c 0
 433 97 432 27 431 -2 c 0
 430 -33 406 -48 382 -48 c 0
 357 -48 331 -32 331 0 c 0
 331 28 333 98 333 126 c 0
 333 572 251 956 114 1274 c 0
 111 1281 109 1289 109 1295 c 0
 109 1323 137 1343 163 1343 c 0
 180 1343 197 1334 206 1314 c 0
 242 1230 274 1161 304 1106 c 0
 313.490851772 1088.69315265 322.844563206 1072.57069913 332.244887998 1057.49204122 c 1
 331.422988975 1067.4854521 330.99999858 1077.65761207 331 1088 c 0
 331 1300 500 1454 709 1454 c 0
 768 1454 827 1443 883 1413 c 0
 901 1403 909 1388 909 1372 c 0
 909 1346 888 1319 860 1319 c 0
 853 1319 845 1321 837 1325 c 0
 799 1345 756 1354 709 1354 c 0
 550 1354 431 1242 431 1088 c 0
 431 984 489 905 560 866 c 0
 564.756801548 863.357332473 568.745397014 860.365480364 572.039609449 857.098267765 c 0
 597.881150634 846.268941459 626.346414805 835.713519096 658 825 c 0
 725 802 795 791 866 791 c 0
 893 791 916 768 916 741 c 0
EndSplineSet
PairPos2: "'kern' Horizontal Kerning in Arabic lookup 3 per glyph data 1" uni06F0 dx=-22 dy=0 dh=-22 dv=0 dx=0 dy=0 dh=0 dv=0
PairPos2: "'kern' Horizontal Kerning in Arabic lookup 3 per glyph data 1" uni06F8 dx=-111 dy=0 dh=-111 dv=0 dx=0 dy=0 dh=0 dv=0
Colour: ffff
EndChar

StartChar: uni06F5
Encoding: 1781 1781 291
Width: 1155
VWidth: 2370
Flags: HMW
LayerCount: 2
Fore
SplineSet
608 999 m 1
 418 836 210 577 210 317 c 0
 210 125 302 53 378 53 c 0
 427 53 484 81 530 152 c 0
 539 166 556 174 573 174 c 0
 587 174 601 169 611 156 c 0
 666 88 732 51 772 51 c 0
 851 51 945 148 945 342 c 0
 945 546 788 790 608 999 c 1
302 1338 m 0
 302 1365 325 1388 352 1388 c 0
 365 1388 377 1383 387 1374 c 0
 454 1309 536 1228 619 1137 c 1
 632 1147 647 1155 663 1155 c 0
 685 1155 710 1133 710 1107 c 0
 710 1090 700 1073 686 1062 c 1
 868 850 1045 592 1045 342 c 0
 1045 128 937 -49 772 -49 c 0
 700 -49 632 -8 575 47 c 1
 518 -15 449 -47 378 -47 c 0
 228 -47 110 95 110 317 c 0
 110 626 344 904 541 1074 c 1
 461 1161 382 1239 317 1302 c 0
 307 1312 302 1325 302 1338 c 0
EndSplineSet
PairPos2: "'kern' Horizontal Kerning in Arabic lookup 3 per glyph data 1" uni06F2 dx=-22 dy=0 dh=-22 dv=0 dx=0 dy=0 dh=0 dv=0
PairPos2: "'kern' Horizontal Kerning in Arabic lookup 3 per glyph data 1" uni06F3 dx=-22 dy=0 dh=-22 dv=0 dx=0 dy=0 dh=0 dv=0
PairPos2: "'kern' Horizontal Kerning in Arabic lookup 3 per glyph data 1" uni06F7 dx=-89 dy=0 dh=-89 dv=0 dx=0 dy=0 dh=0 dv=0
PairPos2: "'kern' Horizontal Kerning in Arabic lookup 3 per glyph data 1" uni06F9 dx=-67 dy=0 dh=-67 dv=0 dx=0 dy=0 dh=0 dv=0
Colour: ffff
EndChar

StartChar: uni06F6
Encoding: 1782 1782 292
Width: 992
VWidth: 2370
Flags: HMW
LayerCount: 2
Fore
SplineSet
832 783 m 0
 856 783 881 765 881 735 c 0
 881 715 869 695 854 688 c 0
 561 543 312 301 208 -16 c 0
 200 -39 183 -49 164 -49 c 0
 138 -49 110 -29 110 -0 c 0
 110 5 111 10 113 16 c 0
 194 264 354 465 553 618 c 1
 542 618 l 2
 343 618 143 726 143 950 c 0
 143 1179 322 1367 543 1367 c 0
 595 1367 649 1357 702 1334 c 0
 722 1325 731 1309 731 1292 c 0
 731 1266 711 1238 682 1238 c 0
 676 1238 669 1239 662 1242 c 0
 621 1259 581 1267 543 1267 c 0
 382 1267 243 1127 243 950 c 0
 243 802 371 718 542 718 c 0
 642 718 728 743 813 779 c 0
 819 782 826 783 832 783 c 0
EndSplineSet
Colour: ffff
EndChar

StartChar: uni066B
Encoding: 1643 1643 296
Width: 449
VWidth: 1823
Flags: HMW
LayerCount: 2
Fore
SplineSet
308 524 m 2
 317 544 334 553 351 553 c 0
 377 553 405 532 405 504 c 0
 405 498 403 491 400 484 c 2
 18 -403 l 2
 9 -423 -8 -432 -25 -432 c 0
 -51 -432 -79 -411 -79 -383 c 0
 -79 -377 -77 -370 -74 -363 c 2
 308 524 l 2
EndSplineSet
PairPos2: "'kern' Horizontal Kerning in Arabic lookup 3 per glyph data 1" uni06F7 dx=-89 dy=0 dh=-89 dv=0 dx=0 dy=0 dh=0 dv=0
PairPos2: "'kern' Horizontal Kerning in Arabic lookup 3 per glyph data 1" uni06F0 dx=-45 dy=0 dh=-45 dv=0 dx=0 dy=0 dh=0 dv=0
PairPos2: "'kern' Horizontal Kerning in Arabic lookup 3 per glyph data 1" uni06F3 dx=-67 dy=0 dh=-67 dv=0 dx=0 dy=0 dh=0 dv=0
PairPos2: "'kern' Horizontal Kerning in Arabic lookup 3 per glyph data 1" uni06F2 dx=-89 dy=0 dh=-89 dv=0 dx=0 dy=0 dh=0 dv=0
PairPos2: "'kern' Horizontal Kerning in Arabic lookup 3 per glyph data 0" uni0663 dx=-134 dy=0 dh=-134 dv=0 dx=0 dy=0 dh=0 dv=0
PairPos2: "'kern' Horizontal Kerning in Arabic lookup 3 per glyph data 0" uni0662 dx=-89 dy=0 dh=-89 dv=0 dx=0 dy=0 dh=0 dv=0
PairPos2: "'kern' Horizontal Kerning in Arabic lookup 3 per glyph data 1" uni066B dx=-45 dy=0 dh=-45 dv=0 dx=0 dy=0 dh=0 dv=0
PairPos2: "'kern' Horizontal Kerning in Arabic lookup 3 per glyph data 0" uni0667 dx=-89 dy=0 dh=-89 dv=0 dx=0 dy=0 dh=0 dv=0
Colour: ffff
EndChar

StartChar: uni060C
Encoding: 1548 1548 298
Width: 633
VWidth: 1839
Flags: HMW
LayerCount: 2
Fore
SplineSet
212 342 m 1
 241 379 288 392 321 392 c 0
 428 392 487 287 487 196 c 0
 487 111 441 10 333 10 c 0
 211 10 132 102 132 241 c 0
 132 270 134 298 138 326 c 0
 157 452 215 572 299 659 c 0
 306 667 315 670 323 670 c 0
 342 670 359 653 359 634 c 0
 359 626 356 618 349 611 c 0
 282 541 232 444 212 342 c 1
204 290 m 1
 202 274 202 257 202 241 c 0
 202 128 253 80 333 80 c 0
 385 80 417 127 417 196 c 0
 417 265 374 322 321 322 c 0
 300 322 271 309 264 295 c 0
 258 282 245 276 233 276 c 0
 222 276 211 281 204 290 c 1
EndSplineSet
Colour: ffff00
EndChar

StartChar: quoteleft
Encoding: 8216 8216 300
Width: 632
VWidth: 1424
Flags: HMW
LayerCount: 2
Fore
SplineSet
226 1113 m 1
 348 1129 419 1189 419 1263 c 0
 419 1340 388 1379 333 1379 c 0
 241 1379 212 1325 212 1229 c 0
 212 1194 217 1154 226 1113 c 1
243 1045 m 1
 277 929 333 818 354 795 c 0
 360 788 363 780 363 773 c 0
 363 754 345 737 326 737 c 0
 318 737 309 741 302 749 c 0
 246 811 142 1054 142 1229 c 0
 142 1341 191 1449 333 1449 c 0
 440 1449 489 1358 489 1263 c 0
 489 1138 374 1064 243 1045 c 1
EndSplineSet
Colour: ffff00
EndChar

StartChar: uni061F
Encoding: 1567 1567 311
Width: 900
VWidth: 0
Flags: HMW
LayerCount: 2
Fore
SplineSet
381 89 m 0
 381 140 421 184 475 184 c 0
 527 184 570 141 570 89 c 0
 570 35 526 -5 475 -5 c 0
 423 -5 381 37 381 89 c 0
709 939 m 0
 709 967 717 996 717 1020 c 0
 717 1176 602 1266 473 1266 c 0
 331 1266 184 1167 184 955 c 0
 184 834 255 763 347 686 c 0
 438 609 537 517 537 366 c 0
 537 334 512 318 487 318 c 0
 462 318 437 334 437 366 c 0
 437 467 374 533 283 610 c 0
 191 687 84 786 84 955 c 0
 84 1225 283 1366 473 1366 c 0
 650 1366 817 1234 817 1020 c 0
 817 990 813 961 808 931 c 0
 803 904 782 891 761 891 c 0
 735 891 709 909 709 939 c 0
EndSplineSet
Colour: ffff
EndChar

StartChar: section
Encoding: 167 167 313
Width: 920
VWidth: 2426
Flags: HMW
LayerCount: 2
Fore
SplineSet
448 546 m 1
 601 547 715 571 715 655 c 0
 715 721 604 798 467 822 c 1
 317 822 216 781 207 694 c 1
 208 602 308 560 448 546 c 1
100 154 m 0
 100 182 125 203 151 203 c 0
 162 203 172 199 181 192 c 0
 251 136 340 95 457 95 c 0
 609 95 716 121 716 209 c 0
 716 330 562 433 438 446 c 0
 305 460 107 507 107 696 c 2
 107 700 l 1
 115 793 170 849 242 881 c 1
 167 919 109 985 109 1104 c 2
 109 1108 l 1
 123 1285 312 1366 472 1366 c 0
 615 1366 774 1301 809 1140 c 0
 810 1136 810 1132 810 1128 c 0
 810 1098 784 1080 758 1080 c 0
 737 1080 717 1092 711 1118 c 0
 690 1213 593 1266 472 1266 c 0
 333 1266 218 1196 209 1102 c 1
 210 969 312 948 471 922 c 0
 475 922 478 921 482 920 c 0
 624 896 815 814 815 655 c 0
 815 546 743 494 658 469 c 1
 746 412 816 324 816 209 c 0
 816 9 585 -5 457 -5 c 0
 314 -5 203 48 119 114 c 0
 107 124 100 139 100 154 c 0
EndSplineSet
Colour: ffff
EndChar

StartChar: uni00B2
Encoding: 178 178 314
Width: 625
VWidth: 2426
Flags: HMW
LayerCount: 2
Fore
SplineSet
134 1263 m 0
 115 1263 99 1279 99 1298 c 0
 99 1408 175 1512 297 1512 c 0
 404 1512 477 1428 477 1327 c 0
 477 1197 402 1125 316 1042 c 2
 233 961 l 1
 490 975 l 1
 492 975 l 2
 514 975 526 957 526 939 c 0
 526 922 516 906 494 905 c 2
 143 886 l 1
 141 886 l 2
 122 886 106 903 106 922 c 0
 106 930 109 939 117 946 c 2
 268 1092 l 2
 356 1177 407 1229 407 1327 c 0
 407 1394 364 1442 297 1442 c 0
 221 1442 169 1378 169 1298 c 0
 169 1279 153 1263 134 1263 c 0
EndSplineSet
Colour: ffff00
EndChar

StartChar: uni00B3
Encoding: 179 179 315
Width: 573
VWidth: 2426
Flags: HMW
LayerCount: 2
Fore
SplineSet
210 1340 m 0
 206 1322 192 1314 178 1314 c 0
 160 1314 141 1326 141 1347 c 0
 141 1350 141 1353 142 1356 c 0
 158 1428 220 1494 310 1494 c 0
 402 1494 470 1414 470 1326 c 0
 470 1272 438 1231 400 1205 c 1
 448 1182 484 1138 486 1077 c 0
 486 955 385 885 277 885 c 0
 224 885 168 902 125 937 c 0
 116 944 112 953 112 962 c 0
 112 981 129 999 148 999 c 0
 155 999 162 996 169 991 c 0
 198 968 238 955 277 955 c 0
 357 955 416 1002 416 1075 c 0
 414 1123 376 1154 310 1154 c 0
 286 1154 253 1144 228 1144 c 0
 208 1144 193 1150 190 1173 c 0
 190 1175 190 1177 190 1179 c 0
 190 1205 217 1211 241 1216 c 0
 312 1233 400 1268 400 1326 c 0
 400 1380 358 1424 310 1424 c 0
 258 1424 220 1386 210 1340 c 0
EndSplineSet
Colour: ffff00
EndChar

StartChar: eth
Encoding: 240 240 316
Width: 1089
VWidth: 2426
Flags: HMW
LayerCount: 2
Fore
SplineSet
228 950 m 0
 200 950 178 972 178 1000 c 0
 178 1012 182 1025 191 1034 c 0
 244 1092 351 1177 468 1256 c 1
 402 1300 326 1340 239 1373 c 0
 217 1381 208 1399 208 1417 c 0
 208 1443 228 1471 257 1471 c 0
 263 1471 269 1469 275 1467 c 0
 385 1425 479 1373 560 1315 c 1
 663 1379 762 1433 827 1454 c 0
 833 1456 838 1457 843 1457 c 0
 872 1457 890 1430 890 1404 c 0
 890 1385 880 1366 857 1358 c 0
 811 1343 731 1300 645 1247 c 1
 905 1018 989 721 989 525 c 0
 989 171 775 -5 523 -5 c 0
 289 -5 100 177 100 427 c 0
 100 686 296 904 565 904 c 0
 592 904 615 881 615 854 c 0
 615 827 592 804 565 804 c 0
 354 804 200 636 200 427 c 0
 200 231 343 95 523 95 c 0
 721 95 889 219 889 525 c 0
 889 701 812 979 557 1190 c 1
 433 1108 312 1018 265 966 c 0
 256 955 242 950 228 950 c 0
EndSplineSet
Colour: ffff
EndChar

StartChar: uni06DD
Encoding: 1757 1757 327
Width: 2048
VWidth: 0
LayerCount: 2
Back
SplineSet
236 -240 m 0
 1971 -240 l 1032
933 -410 m 0
 933 -316 1009 -240 1103 -240 c 0
 1197 -240 1273 -316 1273 -410 c 0
 1273 -504 1197 -580 1103 -580 c 0
 1009 -580 933 -504 933 -410 c 0
1103 -580 m 1024
427 -580 m 0
 1779 -580 l 1024
933 -750 m 0
 933 -656 1009 -580 1103 -580 c 0
 1197 -580 1273 -656 1273 -750 c 0
 1273 -844 1197 -920 1103 -920 c 0
 1009 -920 933 -844 933 -750 c 0
156 213 m 0
 156 838 580 1346 1103 1346 c 0
 1626 1346 2050 838 2050 213 c 0
 2050 -412 1626 -920 1103 -920 c 0
 580 -920 156 -412 156 213 c 0
EndSplineSet
EndChar

StartChar: uni06DE
Encoding: 1758 1758 328
Width: 2048
VWidth: 0
LayerCount: 2
Back
SplineSet
888 716 m 4
 888 860 1004 976 1148 976 c 4
 1292 976 1408 860 1408 716 c 4
 1408 572 1292 456 1148 456 c 4
 1004 456 888 572 888 716 c 4
1136 1694 m 5
 2134 696 l 5
 1144 -294 l 5
 146 704 l 5
 1136 1694 l 5
434 1400 m 5
 1846 1400 l 5
 1846 0 l 5
 434 0 l 5
 434 1400 l 5
EndSplineSet
EndChar

StartChar: uniE008
Encoding: 57352 57352 329
Width: 214
VWidth: 1437
Flags: HMW
LayerCount: 2
Fore
SplineSet
-50 45 m 0
 -50 72 -27 95 0 95 c 2
 214 95 l 2
 241 95 264 72 264 45 c 0
 264 18 241 -5 214 -5 c 2
 0 -5 l 2
 -27 -5 -50 18 -50 45 c 0
EndSplineSet
Colour: ffff
EndChar

StartChar: uniE009
Encoding: 57353 57353 330
Width: 107
VWidth: 1437
Flags: HMW
LayerCount: 2
Fore
SplineSet
-50 45 m 0
 -50 72 -27 95 0 95 c 2
 107 95 l 2
 134 95 157 72 157 45 c 0
 157 18 134 -5 107 -5 c 2
 0 -5 l 2
 -27 -5 -50 18 -50 45 c 0
EndSplineSet
Colour: ffff
EndChar

StartChar: underscore
Encoding: 95 95 331
Width: 667
VWidth: 1823
Flags: HMW
LayerCount: 2
Fore
SplineSet
718 45 m 0
 718 18 695 -5 668 -5 c 2
 0 -5 l 2
 -27 -5 -50 18 -50 45 c 0
 -50 72 -27 95 0 95 c 2
 668 95 l 2
 695 95 718 72 718 45 c 0
EndSplineSet
Colour: ffff
EndChar

StartChar: seven
Encoding: 55 55 332
Width: 1080
VWidth: 2426
Flags: HMW
LayerCount: 2
Fore
SplineSet
870 1265 m 0
 870 1269 855 1270 843 1270 c 0
 826 1270 811 1267 796 1266 c 2
 164 1215 l 1
 159 1215 l 2
 128 1215 112 1241 112 1266 c 0
 112 1289 126 1313 156 1315 c 2
 786 1366 l 2
 806 1369 825 1370 843 1370 c 0
 874 1370 919 1367 949 1330 c 0
 964 1312 970 1288 970 1265 c 0
 970 1237 964 1209 950 1182 c 0
 770 822 664 443 591 -8 c 0
 587 -36 565 -48 543 -48 c 0
 518 -48 492 -31 492 -1 c 0
 492 2 493 5 493 8 c 0
 567 465 674 854 860 1226 c 0
 866 1239 870 1255 870 1265 c 0
EndSplineSet
Colour: ffff
EndChar

StartChar: nine
Encoding: 57 57 333
Width: 1112
VWidth: 2426
Flags: HMW
LayerCount: 2
Fore
SplineSet
641 502 m 0
 669 502 696 488 696 451 c 0
 696 396 606 393 547 393 c 0
 243 393 110 623 110 848 c 0
 110 1093 279 1366 552 1366 c 0
 777 1366 1002 1196 1002 872 c 0
 1002 490 756 -50 381 -50 c 0
 354 -50 331 -27 331 0 c 0
 331 27 354 50 381 50 c 0
 656 50 902 504 902 872 c 0
 902 1142 725 1266 552 1266 c 0
 355 1266 210 1059 210 848 c 0
 210 659 309 493 547 493 c 0
 578 493 613 502 641 502 c 0
EndSplineSet
Colour: ffff
EndChar

StartChar: uniFD3E
Encoding: 64830 64830 334
Width: 866
VWidth: 0
Flags: HMW
LayerCount: 2
Fore
SplineSet
523 1440 m 0
 532 1459 549 1467 565 1467 c 0
 591 1467 618 1446 618 1418 c 0
 618 1411 617 1404 613 1396 c 0
 528.363276126 1224.43907323 476.866100714 1041.25023472 457.17854338 855.299685879 c 1
 504.346810814 891.732966467 563.799482047 912.999999981 629 913 c 0
 708 913 766 852 766 774 c 0
 766 683 669 661 607 649 c 1
 645 624 684 582 684 524 c 0
 684 501 678 479 665 462 c 0
 634 419 586 417 562 417 c 2
 554 417 l 2
 521.173244315 417 492.061269057 425.048690925 467.353024448 438.734746993 c 1
 492.123568361 278.728024111 540.672560211 113.284968297 613 -34 c 0
 617 -42 618 -49 618 -56 c 0
 618 -84 591 -105 565 -105 c 0
 549 -105 533 -97 523 -78 c 0
 445.258962541 80.1173643224 393.994785411 254.728510489 368.063629443 424.386454019 c 1
 333.076613159 396.468606833 288.332027943 379.999999999 237 380 c 0
 184 380 140 422 140 476 c 0
 140 554 178 613 231 651 c 1
 168 677 100 728 100 819 c 0
 100 838 105 856 114 872 c 0
 143 923 199 929 234 929 c 0
 286.04306917 929 327.946914514 911.665197974 360.085641899 885.600028887 c 1
 382.640307249 1075.94246796 436.811844294 1263.94043407 523 1440 c 0
234 829 m 0
 214 829 200 824 200 819 c 0
 200 772 252 740 345 721 c 1
 329 786 299 829 234 829 c 0
554 517 m 0
 565 517 584 518 584 524 c 0
 584 544 543 581 467 600 c 1
 487 540 506 517 554 517 c 0
477 731 m 1
 489 733 500 735 512 736 c 0
 597 746 657 765 666 775 c 1
 666 802 654 813 629 813 c 0
 563 813 510 782 477 731 c 1
350.811417199 586.771456123 m 0
 350.552210468 591.178078439 350.310980789 595.576136831 350.08770635 599.965216841 c 1
 278.028888206 574.071247369 241.97358877 539.207663207 240 480 c 1
 300.039685999 480.938120094 338.077639241 517.079012598 350.811417199 586.771456123 c 0
EndSplineSet
Colour: ffff
EndChar

StartChar: uniFD3F
Encoding: 64831 64831 335
Width: 861
VWidth: 0
Flags: HMW
LayerCount: 2
Fore
SplineSet
245 1396 m 0
 241 1404 240 1411 240 1418 c 0
 240 1446 267 1467 293 1467 c 0
 309 1467 326 1459 335 1440 c 0
 423.761732936 1258.68329768 478.566268941 1064.70458972 499.850244235 868.543144776 c 1
 534.770832201 895.717416189 578.682005271 912.999999997 630 913 c 0
 686 913 761 875 761 792 c 0
 761 709 702 663 644 642 c 1
 687 608 717 557 717 493 c 0
 717 405 631 381 593 381 c 0
 553.082962059 381 517.983369071 393.846519873 489.481759303 414.706670034 c 1
 463.261611199 245.512805786 411.862197468 79.0091042302 335 -78 c 0
 326 -97 309 -105 293 -105 c 0
 267 -105 240 -84 240 -56 c 0
 240 -49 241 -42 245 -34 c 0
 314.343136533 107.838233818 361.829588593 257.6243529 387.459356194 410.348072761 c 1
 363.046808267 398.075373199 335.202632992 391.000000003 305 391 c 0
 251 391 180 442 180 526 c 0
 180 582 215 624 253 650 c 1
 188 665 100 694 100 781 c 0
 100 864 170 924 247 924 c 0
 307.682361576 924 358.817892394 903.087894531 399.180509416 870.152785627 c 1
 378.366990752 1051.00095791 327.382308367 1229.00883439 245 1396 c 0
306 491 m 0
 358 492 386 533 399 588 c 0
 399 592 398 597 398 601 c 1
 316 583 280 552 280 526 c 0
 280 509 296 494 306 491 c 0
385 730 m 1
 354 790 311 824 247 824 c 0
 220 824 200 804 200 781 c 0
 200 780 226 751 346 736 c 0
 359 734 372 732 385 730 c 1
512 717 m 1
 615 729 661 749 661 792 c 0
 661 801 652 813 630 813 c 0
 573 813 534 777 512 717 c 1
508.137668081 600.601265158 m 1
 507.570851533 588.368193722 506.874571606 576.136196693 506.048723244 563.907798295 c 1
 520.3509682 515.60397221 550.908155339 481.000000008 593 481 c 0
 611 481 617 491 617 493 c 0
 617 543.089244296 583.23889512 574.851031656 508.137668081 600.601265158 c 1
EndSplineSet
Colour: ffff
EndChar

StartChar: dollar
Encoding: 36 36 336
Width: 1182
VWidth: 1823
Flags: HMW
LayerCount: 2
Fore
SplineSet
575 1669 m 0
 602 1669 625 1646 625 1619 c 2
 625 -142 l 2
 625 -169 602 -192 575 -192 c 0
 548 -192 525 -169 525 -142 c 2
 525 1619 l 2
 525 1646 548 1669 575 1669 c 0
EndSplineSet
Refer: 31 83 N 1 0 0 1 0 0 2
Colour: ffff
EndChar

StartChar: ampersand
Encoding: 38 38 337
Width: 1194
VWidth: 2426
Flags: HMW
LayerCount: 2
Fore
SplineSet
913 1095 m 0
 913 805 643 733 451 646 c 1
 566 477 735 316 894 198 c 1
 933 226 963 258 981 293 c 0
 991 311 1006 319 1022 319 c 0
 1048 319 1075 298 1075 270 c 0
 1075 263 1073 255 1069 247 c 0
 1047 206 1016 169 979 138 c 1
 1006 120 1033 103 1059 88 c 0
 1076 78 1083 63 1083 48 c 0
 1083 22 1062 -5 1034 -5 c 0
 1026 -5 1018 -3 1009 2 c 0
 971 24 931 50 890 78 c 1
 789 24 667 -5 549 -5 c 0
 334 -5 110 101 110 364 c 0
 110 524 200 621 309 686 c 1
 247 798 207 916 207 1033 c 0
 207 1287 392 1411 569 1411 c 0
 736 1411 913 1301 913 1095 c 0
398 732 m 1
 428 746 458 758 488 771 c 0
 669 848 813 913 813 1095 c 0
 813 1231 698 1311 569 1311 c 0
 438 1311 307 1229 307 1033 c 0
 307 938 340 835 398 732 c 1
361 600 m 1
 267 545 210 482 210 364 c 0
 210 177 358 95 549 95 c 0
 633 95 722 113 798 145 c 1
 639 268 476 427 361 600 c 1
EndSplineSet
Colour: ffff
EndChar

StartChar: question
Encoding: 63 63 338
Width: 954
VWidth: 0
Flags: HMW
LayerCount: 2
Fore
SplineSet
545 89 m 0
 545 37 503 -5 451 -5 c 0
 400 -5 356 35 356 89 c 0
 356 141 399 184 451 184 c 0
 505 184 545 140 545 89 c 0
210 1017 m 0
 210 994 218 965 218 938 c 0
 218 908 192 890 166 890 c 0
 145 890 124 903 119 930 c 0
 114 959 110 988 110 1017 c 0
 110 1235 285 1366 465 1366 c 0
 652 1366 844 1228 844 954 c 0
 844 785 736 686 644 609 c 0
 554 532 489 466 489 366 c 0
 489 334 464 318 439 318 c 0
 414 318 389 334 389 366 c 0
 389 517 491 609 580 685 c 0
 672 762 744 833 744 954 c 0
 744 1174 602 1266 465 1266 c 0
 331 1266 210 1173 210 1017 c 0
EndSplineSet
Colour: ffff
EndChar

StartChar: at
Encoding: 64 64 339
Width: 2047
VWidth: 2426
Flags: HMW
LayerCount: 2
Fore
SplineSet
1352 787 m 1
 1261 846 1163 874 1069 874 c 0
 840 874 635 709 635 402 c 0
 635 222 755 95 938 95 c 0
 1176 95 1279 281 1305 461 c 2
 1352 787 l 1
1626 -152 m 0
 1652 -152 1677 -173 1677 -201 c 0
 1677 -215 1671 -230 1660 -240 c 0
 1495 -385 1280 -471 1045 -471 c 0
 533 -471 110 -117 110 403 c 0
 110 919 556 1401 1076 1401 c 0
 1541 1401 1937 1037 1937 559 c 0
 1937 345 1827 -3 1564 -3 c 0
 1439 -3 1358 94 1321 210 c 1
 1249 90 1128 -5 938 -5 c 0
 699 -5 535 172 535 402 c 0
 535 761 786 974 1069 974 c 0
 1193 974 1320 935 1435 852 c 0
 1450 841 1457 821 1455 804 c 2
 1403 447 l 1
 1403 443 l 2
 1403 418 1398 388 1398 362 c 0
 1398 211 1477 97 1564 97 c 0
 1723 97 1837 349 1837 559 c 0
 1837 979 1489 1301 1076 1301 c 0
 618 1301 210 865 210 403 c 0
 210 -55 579 -371 1045 -371 c 0
 1256 -371 1447 -293 1594 -164 c 0
 1603 -156 1614 -152 1626 -152 c 0
EndSplineSet
Colour: ffff
EndChar

StartChar: b
Encoding: 98 98 340
Width: 1123
VWidth: 1823
Flags: HMW
LayerCount: 2
Fore
SplineSet
152 1363 m 2
 153 1394 177 1409 201 1409 c 0
 227 1409 253 1392 252 1359 c 2
 233 773 l 1
 305 916 425 1021 611 1021 c 0
 893 1021 1013 758 1013 495 c 0
 1013 203 778 -5 475 -5 c 0
 424 -5 371 2 321 15 c 0
 296 21 286 40 286 60 c 0
 286 86 304 113 333 113 c 0
 337 113 342 112 347 111 c 0
 389 100 432 95 475 95 c 0
 732 95 913 263 913 495 c 0
 913 740 809 921 611 921 c 0
 260 921 223 426 210 43 c 0
 209 12 185 -3 161 -3 c 0
 135 -3 109 14 110 47 c 2
 152 1363 l 2
EndSplineSet
Colour: ffff
EndChar

StartChar: d
Encoding: 100 100 341
Width: 1177
VWidth: 2426
Flags: HMW
LayerCount: 2
Fore
SplineSet
885 842 m 0
 885 815 864 791 836 791 c 0
 822 791 808 796 798 807 c 0
 722 888 642 919 567 919 c 0
 350 919 210 705 210 465 c 0
 210 224 327 95 534 95 c 0
 785 95 893 339 900 611 c 0
 907 861 913 1112 920 1362 c 0
 921 1394 946 1409 970 1409 c 0
 995 1409 1021 1392 1020 1360 c 2
 1001 510 l 1
 1001 208 1011 132 1056 77 c 0
 1063 68 1067 56 1067 45 c 0
 1067 19 1046 -5 1018 -5 c 0
 1003 -5 989 1 979 13 c 0
 935 66 916 129 908 224 c 1
 836 93 713 -5 534 -5 c 0
 267 -5 110 184 110 465 c 0
 110 735 272 1019 567 1019 c 0
 672 1019 780 974 872 875 c 0
 881 866 885 854 885 842 c 0
EndSplineSet
Colour: ffff
EndChar

StartChar: h
Encoding: 104 104 342
Width: 1003
VWidth: 2426
Flags: HMW
LayerCount: 2
Fore
SplineSet
833 -49 m 0
 772 -49 771 50 771 113 c 0
 771 115 771 117 771 119 c 0
 771 254 793 471 793 609 c 0
 793 801 734 920 615 920 c 0
 372 920 236 377 210 -3 c 0
 208 -34 185 -48 161 -48 c 0
 135 -48 108 -30 110 3 c 2
 200 1374 l 2
 202 1405 225 1419 249 1419 c 0
 275 1419 302 1401 300 1368 c 2
 256 692 l 1
 330 868 441 1020 615 1020 c 0
 828 1020 893 803 893 609 c 0
 893 470 871 254 871 119 c 0
 871 70 875 35 882 20 c 0
 885 13 886 6 886 -0 c 0
 886 -29 859 -49 833 -49 c 0
EndSplineSet
Colour: ffff
EndChar

StartChar: j
Encoding: 106 106 344
Width: 630
VWidth: 2426
Flags: HMW
LayerCount: 2
Fore
SplineSet
159 -360 m 0
 174 -360 191 -364 208 -364 c 0
 332 -364 364 101 364 581 c 0
 364 693 361 861 361 972 c 0
 361 1003 386 1019 411 1019 c 0
 436 1019 460 1004 461 972 c 0
 464 860 464 692 464 581 c 2
 464 403 l 2
 464 11 448 -464 208 -464 c 0
 191 -464 171 -463 151 -459 c 0
 124 -454 112 -432 112 -411 c 0
 112 -386 129 -360 159 -360 c 0
EndSplineSet
Refer: 47 46 N 1 0 0 1 186 1286 2
Colour: ffff
EndChar

StartChar: k
Encoding: 107 107 345
Width: 979
VWidth: 2426
Flags: HMW
LayerCount: 2
Fore
SplineSet
734 1021 m 0
 763 1021 784 998 784 971 c 0
 784 960 780 948 773 939 c 0
 644 781 464 631 270 523 c 1
 431 348 648 159 844 43 c 0
 861 33 868 17 868 2 c 0
 868 -24 847 -50 819 -50 c 0
 811 -50 803 -48 794 -43 c 0
 598 72 390 249 228 420 c 1
 210 2 l 2
 209 -29 184 -44 160 -44 c 0
 134 -44 108 -27 110 6 c 2
 170 1363 l 2
 171 1394 196 1409 220 1409 c 0
 246 1409 272 1392 270 1359 c 2
 237 620 l 1
 412 721 579 861 695 1003 c 0
 705 1015 719 1021 734 1021 c 0
EndSplineSet
Colour: ffff
EndChar

StartChar: l
Encoding: 108 108 346
Width: 379
VWidth: 2426
Flags: HMW
LayerCount: 2
Fore
SplineSet
149 1352 m 0
 150 1383 175 1398 199 1398 c 0
 224 1398 249 1383 249 1351 c 0
 249 1009 230 395 230 0 c 0
 230 -32 205 -48 180 -48 c 0
 155 -48 130 -32 130 -0 c 0
 130 394 133 1007 149 1352 c 0
EndSplineSet
Colour: ffff
EndChar

StartChar: m
Encoding: 109 109 347
Width: 1482
VWidth: 2426
Flags: HMW
LayerCount: 2
Fore
SplineSet
1251 184 m 0
 1251 318 1267 516 1267 651 c 0
 1267 818 1208 921 1072 921 c 0
 790 921 799 313 771 -4 c 0
 768 -34 745 -48 722 -48 c 0
 697 -48 671 -32 671 -1 c 0
 671 168 697 372 697 549 c 0
 697 780 697 921 500 921 c 0
 374 921 317 838 282 699 c 0
 267 640 257 572 250 504 c 2
 210 4 l 2
 208 -26 184 -40 161 -40 c 0
 135 -40 110 -24 110 7 c 2
 110 12 l 1
 143 437 l 2
 155 559 168 687 168 824 c 0
 168 883 165 938 159 982 c 1
 159 989 l 2
 159 1019 184 1036 210 1036 c 0
 233 1036 255 1023 259 994 c 0
 262 967 264 938 266 907 c 1
 318 975 396 1021 500 1021 c 0
 678 1021 758 918 783 791 c 1
 835 917 925 1021 1072 1021 c 0
 1288 1021 1367 836 1367 651 c 0
 1367 515 1354 301 1352 168 c 0
 1352 164 1352 160 1352 156 c 0
 1352 104 1358 57 1370 13 c 0
 1371 8 1372 4 1372 -1 c 0
 1372 -30 1346 -48 1320 -48 c 0
 1300 -48 1281 -38 1274 -13 c 0
 1257 50 1251 116 1251 184 c 0
EndSplineSet
Colour: ffff
EndChar

StartChar: n
Encoding: 110 110 348
Width: 1003
VWidth: 2426
Flags: HMW
LayerCount: 2
Fore
SplineSet
833 -49 m 0
 772 -49 771 50 771 113 c 0
 771 115 771 117 771 119 c 0
 771 255 793 472 793 609 c 0
 793 808 756 920 641 920 c 0
 396 920 236 374 210 -3 c 0
 208 -33 184 -48 160 -48 c 0
 134 -48 108 -30 110 3 c 2
 168 969 l 2
 170 1000 193 1014 217 1014 c 0
 243 1014 270 996 268 963 c 2
 249 641 l 1
 329 841 451 1020 641 1020 c 0
 858 1020 893 796 893 609 c 0
 893 470 871 253 871 119 c 0
 871 70 875 35 882 20 c 0
 885 13 886 6 886 -0 c 0
 886 -29 859 -49 833 -49 c 0
EndSplineSet
Colour: ffff
EndChar

StartChar: p
Encoding: 112 112 349
Width: 1167
VWidth: 2426
Flags: HMW
LayerCount: 2
Fore
SplineSet
223 -435 m 2
 222 -466 197 -481 173 -481 c 0
 147 -481 121 -464 123 -431 c 2
 155 256 l 2
 163 385 170 500 170 603 c 0
 170 743 153 873 115 949 c 0
 111 957 110 964 110 971 c 0
 110 999 137 1020 163 1020 c 0
 179 1020 195 1012 205 993 c 0
 240 922 257 832 265 735 c 1
 363 922 518 1021 678 1021 c 0
 887 1021 1057 838 1057 538 c 0
 1057 277 886 -5 416 -5 c 0
 389 -5 366 18 366 45 c 0
 366 72 389 95 416 95 c 0
 836 95 957 325 957 538 c 0
 957 802 819 921 678 921 c 0
 495 921 275 732 258 289 c 0
 257 277 256 263 255 250 c 2
 223 -435 l 2
EndSplineSet
Colour: ffff
EndChar

StartChar: q
Encoding: 113 113 350
Width: 1123
VWidth: 2426
Flags: HMW
LayerCount: 2
Fore
SplineSet
830 865 m 0
 830 839 809 814 781 814 c 0
 766 814 751 821 741 833 c 0
 696 890 627 930 532 930 c 0
 322 930 210 723 210 484 c 0
 210 238 292 94 490 94 c 0
 760 95 863 439 897 738 c 1
 901 819 907 900 913 981 c 0
 915 1002 933 1026 960 1027 c 0
 961 1027 962 1027 963 1027 c 0
 997 1027 1013 998 1013 963 c 0
 1013 909 1008 828 997 729 c 1
 986 521 979 303 979 87 c 0
 979 -83 990 -255 990 -426 c 0
 990 -457 965 -473 940 -473 c 0
 916 -473 891 -458 890 -427 c 0
 883 -255 879 -84 879 87 c 0
 879 150 880 213 881 276 c 1
 807 123 683 -6 490 -6 c 0
 214 -6 110 220 110 484 c 0
 110 741 238 1030 532 1030 c 0
 657 1030 756 974 819 895 c 0
 826 886 830 876 830 865 c 0
EndSplineSet
Colour: ffff
EndChar

StartChar: r
Encoding: 114 114 351
Width: 865
VWidth: 2426
Flags: HMW
LayerCount: 2
Fore
SplineSet
151 532 m 0
 151 704 138 869 112 957 c 0
 110 962 110 967 110 972 c 0
 110 1001 136 1020 162 1020 c 0
 181 1020 201 1009 208 985 c 0
 231 906 243 797 248 675 c 1
 326 848 465 975 696 1020 c 0
 700 1021 703 1021 706 1021 c 0
 736 1021 753 995 753 970 c 0
 753 949 741 927 714 922 c 0
 342 850 275 546 237 150 c 0
 233 94 229 42 224 -5 c 0
 221 -34 198 -48 175 -48 c 0
 150 -48 124 -32 124 -1 c 0
 124 170 151 343 151 532 c 0
EndSplineSet
Colour: ffff
EndChar

StartChar: u
Encoding: 117 117 352
Width: 1003
VWidth: 2426
Flags: HMW
LayerCount: 2
Fore
SplineSet
864 639 m 0
 864 436 874 241 893 53 c 1
 893 48 l 2
 893 17 868 0 842 -0 c 0
 819 0 796 13 793 43 c 0
 786 116 780 191 775 267 c 1
 719 119 619 -5 450 -5 c 0
 115 -5 110 346 110 584 c 0
 110 746 134 867 159 982 c 0
 165 1008 185 1020 206 1020 c 0
 232 1020 258 1002 258 972 c 0
 258 968 258 964 257 960 c 0
 232 847 210 736 210 584 c 0
 210 318 225 95 450 95 c 0
 617 95 702 284 741 549 c 0
 762 690 765 825 773 974 c 0
 774 1004 799 1019 823 1019 c 0
 848 1019 873 1003 873 971 c 0
 873 868 864 750 864 639 c 0
EndSplineSet
Colour: ffff
EndChar

StartChar: asciitilde
Encoding: 126 126 353
Width: 870
VWidth: 2426
Flags: HMW
LayerCount: 2
Fore
SplineSet
164 1144 m 0
 160 1116 138 1104 116 1104 c 0
 91 1104 65 1121 65 1151 c 0
 65 1154 66 1157 66 1160 c 0
 84 1269 174 1341 279 1341 c 0
 364 1341 429 1303 480 1265 c 0
 523 1233 559 1214 602 1214 c 0
 636 1214 676 1229 715 1335 c 0
 723 1357 742 1367 760 1367 c 0
 786 1367 812 1348 812 1319 c 0
 812 1313 811 1307 809 1301 c 0
 763 1177 690 1114 602 1114 c 0
 525 1114 467 1151 420 1185 c 0
 373 1219 334 1241 279 1241 c 0
 220 1241 174 1205 164 1144 c 0
EndSplineSet
Colour: ffff
EndChar

StartChar: cent
Encoding: 162 162 356
Width: 1031
VWidth: 1823
Flags: HMW
LayerCount: 2
Fore
SplineSet
547 -415 m 0
 520 -415 497 -392 497 -365 c 2
 497 45 l 2
 497 72 520 95 547 95 c 0
 574 95 597 72 597 45 c 2
 597 -365 l 2
 597 -392 574 -415 547 -415 c 0
547 921 m 0
 520 921 497 944 497 971 c 2
 497 1316 l 2
 497 1343 520 1366 547 1366 c 0
 574 1366 597 1343 597 1316 c 2
 597 971 l 2
 597 944 574 921 547 921 c 0
EndSplineSet
Refer: 1 99 N 1 0 0 1 0 0 2
Colour: ffff
EndChar

StartChar: sterling
Encoding: 163 163 357
Width: 1360
VWidth: 2426
Flags: HMW
LayerCount: 2
Fore
SplineSet
169 17 m 0
 109 17 44 47 44 110 c 0
 44 177 114 194 163 194 c 0
 205 194 250 186 298 174 c 1
 364 253 387 420 392 610 c 1
 354 614 317 621 281 630 c 0
 256 637 245 657 245 677 c 0
 245 702 262 728 291 728 c 0
 295 728 300 727 305 726 c 0
 333 719 362 714 393 710 c 1
 393 939 l 2
 393 1130 394 1366 565 1366 c 0
 669 1366 720 1271 720 1166 c 0
 720 1139 697 1116 670 1116 c 0
 643 1116 620 1139 620 1166 c 0
 620 1249 591 1266 565 1266 c 0
 526 1266 493 1176 493 939 c 2
 493 703 l 1
 522 703 l 2
 632 703 744 717 834 734 c 0
 838 735 841 735 844 735 c 0
 874 735 892 709 892 683 c 0
 892 662 880 641 853 636 c 0
 757 617 640 603 522 603 c 0
 512 603 502 603 492 603 c 1
 489 428 473 260 400 144 c 1
 484 117 626 95 772 95 c 0
 994 95 1172 152 1199 294 c 0
 1204 321 1226 333 1247 333 c 0
 1272 333 1298 316 1298 286 c 0
 1298 283 1298 280 1297 276 c 0
 1254 46 992 -5 772 -5 c 0
 621 -5 474 16 377 46 c 0
 359 52 341 58 324 63 c 1
 281 33 228 17 169 17 c 0
EndSplineSet
Colour: ffff
EndChar

StartChar: currency
Encoding: 164 164 358
Width: 1109
VWidth: 1823
Flags: HMW
LayerCount: 2
Fore
SplineSet
1009 45 m 0
 1009 18 987 -5 959 -5 c 0
 945 -5 931 1 921 12 c 2
 791 162 l 2
 783 172 779 183 779 195 c 0
 779 222 801 245 829 245 c 0
 843 245 857 239 867 228 c 2
 997 78 l 2
 1005 68 1009 57 1009 45 c 0
320 835 m 0
 320 809 299 784 271 784 c 0
 257 784 242 790 232 801 c 2
 113 937 l 2
 105 946 101 957 101 969 c 0
 101 995 122 1020 150 1020 c 0
 164 1020 179 1014 189 1003 c 2
 308 867 l 2
 316 858 320 847 320 835 c 0
959 1020 m 0
 987 1020 1009 997 1009 970 c 0
 1009 958 1005 947 997 937 c 2
 886 809 l 2
 876 798 862 792 848 792 c 0
 820 792 798 815 798 842 c 0
 798 854 802 865 810 875 c 2
 921 1003 l 2
 931 1014 945 1020 959 1020 c 0
258 218 m 0
 286 218 308 195 308 168 c 0
 308 156 304 145 296 135 c 2
 189 12 l 2
 179 1 165 -5 151 -5 c 0
 123 -5 101 18 101 45 c 0
 101 57 105 68 113 78 c 2
 220 201 l 2
 230 212 244 218 258 218 c 0
EndSplineSet
Refer: 5 111 N 1 0 0 1 0 0 2
Colour: ffff
EndChar

StartChar: brokenbar
Encoding: 166 166 360
Width: 414
VWidth: 2426
Flags: HMW
LayerCount: 2
Fore
SplineSet
211 1411 m 0
 238 1411 261 1388 261 1361 c 0
 261 1216 260 1057 257 894 c 0
 257 862 232 847 207 847 c 0
 182 847 157 863 157 895 c 0
 157 1058 161 1216 161 1361 c 0
 161 1388 184 1411 211 1411 c 0
176 498 m 0
 176 530 201 545 226 545 c 0
 251 545 276 529 276 497 c 0
 276 317 266 144 258 -3 c 0
 257 -34 233 -48 209 -48 c 0
 184 -48 158 -32 158 0 c 0
 158 146 172 317 176 498 c 0
EndSplineSet
Colour: ffff
EndChar

StartChar: dieresis
Encoding: 168 168 361
Width: 667
VWidth: 1823
Flags: HMW
LayerCount: 2
Fore
SplineSet
562 1214 m 0
 562 1162 519 1119 467 1119 c 0
 413 1119 373 1163 373 1214 c 0
 373 1266 415 1308 467 1308 c 0
 518 1308 562 1268 562 1214 c 0
295 1214 m 0
 295 1162 252 1119 200 1119 c 0
 146 1119 106 1163 106 1214 c 0
 106 1266 148 1308 200 1308 c 0
 251 1308 295 1268 295 1214 c 0
EndSplineSet
Colour: ffff
EndChar

StartChar: copyright
Encoding: 169 169 362
Width: 1693
VWidth: 1823
Flags: HMW
LayerCount: 2
Fore
SplineSet
1094 1004 m 0
 1094 976 1069 955 1043 955 c 0
 1031 955 1020 959 1011 967 c 0
 971 1002 926 1022 868 1022 c 0
 700 1022 567 859 567 687 c 0
 567 540 641 440 809 440 c 0
 900 440 966 465 1030 504 c 0
 1038 509 1046 511 1055 511 c 0
 1081 511 1106 491 1106 462 c 0
 1106 445 1097 427 1082 418 c 0
 1007 373 920 340 809 340 c 0
 583 340 467 498 467 687 c 0
 467 903 632 1122 868 1122 c 0
 950 1122 1021 1092 1077 1043 c 0
 1088 1033 1094 1018 1094 1004 c 0
210 616 m 0
 210 347 495 95 752 95 c 0
 1204 95 1483 344 1483 760 c 0
 1483 1040 1227 1311 831 1311 c 0
 523 1311 210 1046 210 616 c 0
110 616 m 0
 110 1098 465 1411 831 1411 c 0
 1273 1411 1583 1104 1583 760 c 0
 1583 286 1246 -5 752 -5 c 0
 441 -5 110 283 110 616 c 0
EndSplineSet
Colour: ffff
EndChar

StartChar: ordfeminine
Encoding: 170 170 363
Width: 778
VWidth: 2426
Flags: HMW
LayerCount: 2
Fore
SplineSet
536 1247 m 0
 536 1379 470 1424 370 1424 c 0
 244 1424 148 1309 148 1156 c 0
 148 1019 225 931 327 931 c 0
 469 931 536 1088 536 1247 c 0
598 1474 m 0
 605 1487 616 1493 628 1493 c 0
 647 1493 666 1480 666 1460 c 0
 666 1455 665 1449 662 1444 c 0
 637 1392 600 1246 600 1134 c 0
 600 1019 635 931 689 931 c 0
 708 931 724 915 724 896 c 0
 724 877 708 861 689 861 c 0
 607 861 566 923 546 996 c 1
 503 919 434 861 327 861 c 0
 177 861 78 993 78 1156 c 0
 78 1335 196 1494 370 1494 c 0
 454 1494 527 1462 569 1395 c 1
 578 1427 588 1454 598 1474 c 0
EndSplineSet
Colour: ffff00
EndChar

StartChar: logicalnot
Encoding: 172 172 364
Width: 867
VWidth: 1823
Flags: HMW
LayerCount: 2
Fore
SplineSet
39 661 m 0
 39 688 62 711 89 711 c 2
 734 711 l 2
 764 711 784 682 784 661 c 2
 784 388 l 2
 784 361 761 338 734 338 c 0
 707 338 684 361 684 388 c 2
 684 611 l 1
 89 611 l 2
 62 611 39 634 39 661 c 0
EndSplineSet
Colour: ffff
EndChar

StartChar: registered
Encoding: 174 174 366
Width: 1667
VWidth: 1823
Flags: HMW
LayerCount: 2
Fore
SplineSet
210 685 m 0
 210 279 463 95 820 95 c 0
 1170 95 1457 392 1457 727 c 0
 1457 1089 1187 1266 825 1266 c 0
 526 1266 210 1030 210 685 c 0
110 685 m 0
 110 1096 480 1366 825 1366 c 0
 1219 1366 1557 1159 1557 727 c 0
 1557 336 1226 -5 820 -5 c 0
 421 -5 110 221 110 685 c 0
563 872 m 0
 535 872 513 896 513 922 c 0
 513 933 516 943 523 952 c 0
 586 1036 687 1085 791 1085 c 0
 942 1085 1108 980 1108 809 c 0
 1108 687 1026 595 907 563 c 1
 973 502 1050 450 1128 407 c 0
 1146 397 1153 382 1153 366 c 0
 1153 339 1132 312 1104 312 c 0
 1096 312 1088 314 1080 319 c 0
 967 382 849 463 764 568 c 0
 757 577 753 587 753 598 c 0
 753 624 774 650 803 650 c 0
 939 650 1008 720 1008 809 c 0
 1008 906 906 985 791 985 c 0
 719 985 646 950 603 892 c 0
 594 879 578 872 563 872 c 0
635 899 m 0
 636 930 661 945 685 945 c 0
 710 945 735 930 735 898 c 0
 735 718 712 524 694 351 c 0
 691 321 668 308 645 308 c 0
 620 308 594 325 594 355 c 0
 594 357 594 359 594 361 c 0
 612 532 627 721 635 899 c 0
EndSplineSet
Colour: ffff
EndChar

StartChar: degree
Encoding: 176 176 368
Width: 648
VWidth: 2426
Flags: HMW
LayerCount: 2
Fore
SplineSet
594 1398 m 0
 594 1253 461 1134 309 1134 c 0
 173 1134 54 1253 54 1391 c 0
 54 1539 183 1674 323 1674 c 0
 474 1674 594 1539 594 1398 c 0
524 1398 m 0
 524 1503 432 1604 323 1604 c 0
 227 1604 124 1501 124 1391 c 0
 124 1293 213 1204 309 1204 c 0
 427 1204 524 1297 524 1398 c 0
EndSplineSet
Colour: ffff00
EndChar

StartChar: acute
Encoding: 180 180 369
Width: 518
VWidth: 2426
Flags: HMW
LayerCount: 2
Fore
SplineSet
358 1531 m 0
 386 1531 407 1506 407 1480 c 0
 407 1469 403 1459 396 1450 c 0
 321 1356 256 1270 201 1148 c 0
 192 1128 176 1120 159 1120 c 0
 133 1120 105 1140 105 1169 c 0
 105 1176 107 1183 110 1190 c 0
 170 1324 243 1418 318 1512 c 0
 328 1524 343 1531 358 1531 c 0
EndSplineSet
Colour: ffff
EndChar

StartChar: mu
Encoding: 181 181 370
Width: 1019
VWidth: 1823
Flags: HMW
LayerCount: 2
Fore
SplineSet
895 1015 m 0
 895 895 887 727 887 587 c 0
 887 401 891 226 909 53 c 0
 909 51 909 49 909 47 c 0
 909 17 883 0 858 -0 c 0
 835 0 812 13 809 43 c 0
 803 106 798 168 795 232 c 1
 736 99 633 -5 471 -5 c 0
 358 -5 273 32 217 97 c 1
 226 -92 242 -280 258 -442 c 1
 258 -447 l 2
 258 -478 233 -495 207 -495 c 0
 184 -495 161 -482 158 -452 c 0
 134 -211 110 85 110 367 c 0
 110 421 112 476 115 532 c 0
 115 533 115 534 115 535 c 0
 115 657 136 788 157 893 c 0
 166 943 177 990 188 1029 c 0
 195 1053 214 1064 234 1064 c 0
 260 1064 286 1046 286 1017 c 0
 286 1013 285 1008 284 1003 c 0
 249 866 225 696 215 529 c 1
 215 452 218 378 229 315 c 0
 254 177 308 95 471 95 c 0
 635 95 719 244 761 471 c 0
 774 543 782 621 787 698 c 1
 787 803 789 922 795 1018 c 0
 796 1038 814 1063 841 1065 c 2
 845 1065 l 2
 872 1065 895 1043 895 1015 c 0
EndSplineSet
Colour: ffff
EndChar

StartChar: paragraph
Encoding: 182 182 371
Width: 1319
VWidth: 2426
Flags: HMW
LayerCount: 2
Fore
SplineSet
1209 1117 m 0
 1209 1090 1187 1067 1159 1067 c 0
 1145 1067 1131 1073 1121 1084 c 0
 1026 1192 893 1266 715 1266 c 0
 439 1266 210 1076 210 811 c 0
 210 582 407 410 640 368 c 1
 640 1090 l 2
 640 1117 663 1140 690 1140 c 0
 717 1140 740 1117 740 1090 c 2
 740 358 l 1
 750 358 l 2
 801 358 853 365 903 378 c 1
 903 1030 l 2
 903 1057 926 1080 953 1080 c 0
 980 1080 1003 1057 1003 1030 c 2
 1003 394 l 1
 1019 384 1029 366 1029 347 c 0
 1029 330 1021 314 1003 305 c 1
 1003 -442 l 2
 1003 -469 980 -492 953 -492 c 0
 926 -492 903 -469 903 -442 c 2
 903 275 l 1
 853 264 801 258 750 258 c 2
 740 258 l 1
 740 -382 l 2
 740 -409 717 -432 690 -432 c 0
 663 -432 640 -409 640 -382 c 2
 640 267 l 1
 365 310 110 513 110 811 c 0
 110 1142 395 1366 715 1366 c 0
 923 1366 1086 1278 1197 1150 c 0
 1205 1140 1209 1129 1209 1117 c 0
EndSplineSet
Colour: ffff
EndChar

StartChar: uni00B9
Encoding: 185 185 373
Width: 438
VWidth: 2426
Flags: HMW
LayerCount: 2
Fore
SplineSet
335 831 m 2
 334 809 317 799 300 799 c 0
 282 799 263 812 265 835 c 2
 300 1382 l 1
 254 1348 203 1318 147 1296 c 0
 142 1294 138 1293 134 1293 c 0
 114 1293 100 1312 100 1331 c 0
 100 1344 106 1356 121 1362 c 0
 194 1391 261 1434 317 1485 c 0
 324 1491 332 1494 340 1494 c 0
 359 1494 376 1478 375 1457 c 2
 335 831 l 2
EndSplineSet
Colour: ffff00
EndChar

StartChar: onequarter
Encoding: 188 188 375
Width: 1893
VWidth: 1839
Flags: HMW
LayerCount: 2
Fore
SplineSet
459 -5 m 0
 433 -5 409 19 409 45 c 0
 409 57 414 69 423 79 c 0
 780 457 1223 1044 1442 1438 c 0
 1452 1456 1467 1463 1483 1463 c 0
 1510 1463 1537 1442 1537 1414 c 0
 1537 1406 1535 1398 1530 1390 c 0
 1305 984 858 397 495 11 c 0
 485 1 472 -5 459 -5 c 0
1491 380 m 2
 1494 409 1516 422 1539 422 c 0
 1565 422 1591 405 1591 374 c 0
 1591 372 1591 370 1591 368 c 2
 1543 -54 l 1
 1613 -42 1682 -28 1748 -12 c 0
 1752 -11 1757 -10 1761 -10 c 0
 1791 -10 1809 -38 1809 -64 c 0
 1809 -84 1798 -104 1772 -110 c 0
 1694 -129 1613 -145 1531 -158 c 1
 1507 -371 l 2
 1504 -400 1482 -413 1459 -413 c 0
 1433 -413 1407 -396 1407 -365 c 0
 1407 -363 1407 -361 1407 -359 c 2
 1428 -172 l 1
 1342 -182 1255 -188 1169 -188 c 0
 1134 -188 1100 -188 1062 -182 c 0
 1035 -179 989 -169 964 -125 c 0
 956 -111 952 -95 952 -78 c 0
 952 -42 968 -16 979 -0 c 0
 1151 251 1275 495 1392 783 c 0
 1401 804 1418 813 1435 813 c 0
 1461 813 1488 794 1488 765 c 0
 1488 759 1487 752 1484 745 c 0
 1365 451 1239 202 1061 -58 c 0
 1056 -65 1053 -72 1052 -76 c 0
 1072 -87 1110 -88 1143 -88 c 2
 1169 -88 l 2
 1259 -88 1350 -81 1440 -69 c 1
 1491 380 l 2
410 517 m 2
 408 486 385 472 361 472 c 0
 335 472 308 490 310 523 c 2
 374 1501 l 1
 307 1443 235 1390 159 1346 c 0
 150 1341 142 1339 134 1339 c 0
 106 1339 85 1366 85 1392 c 0
 85 1407 92 1422 109 1432 c 0
 198 1483 286 1554 361 1624 c 0
 368 1631 382 1637 395 1637 c 2
 430 1637 l 2
 458 1637 482 1613 480 1584 c 2
 410 517 l 2
EndSplineSet
Colour: ffff
EndChar

StartChar: onehalf
Encoding: 189 189 376
Width: 1915
VWidth: 2426
Flags: HMW
LayerCount: 2
Fore
SplineSet
1237 320 m 0
 1210 320 1187 343 1187 370 c 0
 1187 569 1324 755 1541 755 c 0
 1736 755 1854 604 1854 424 c 0
 1854 185 1704 32 1512 -113 c 1
 1335 -274 l 1
 1407 -270 1476 -268 1548 -268 c 0
 1645 -268 1748 -272 1847 -277 c 0
 1878 -278 1893 -303 1893 -327 c 0
 1893 -352 1877 -377 1845 -377 c 0
 1844 -377 1843 -377 1842 -377 c 0
 1743 -372 1643 -368 1548 -368 c 0
 1429 -368 1314 -373 1198 -385 c 1
 1194 -385 l 2
 1167 -385 1143 -360 1143 -333 c 0
 1143 -321 1148 -308 1159 -298 c 2
 1446 -37 l 2
 1447 -36 1449 -35 1450 -34 c 0
 1639 109 1754 234 1754 424 c 0
 1754 560 1674 655 1541 655 c 0
 1390 655 1287 527 1287 370 c 0
 1287 343 1264 320 1237 320 c 0
459 -5 m 0
 433 -5 409 19 409 45 c 0
 409 57 414 69 423 79 c 0
 781 457 1223 1043 1442 1438 c 0
 1452 1456 1467 1463 1483 1463 c 0
 1510 1463 1537 1442 1537 1414 c 0
 1537 1406 1535 1398 1530 1390 c 0
 1305 983 859 397 495 11 c 0
 485 1 472 -5 459 -5 c 0
410 517 m 2
 408 486 385 472 361 472 c 0
 335 472 308 490 310 523 c 2
 374 1501 l 1
 307 1443 235 1390 159 1346 c 0
 150 1341 142 1339 134 1339 c 0
 106 1339 85 1366 85 1392 c 0
 85 1407 92 1422 109 1432 c 0
 198 1483 286 1554 361 1624 c 0
 368 1631 382 1637 395 1637 c 2
 430 1637 l 2
 458 1637 482 1613 480 1584 c 2
 410 517 l 2
EndSplineSet
Colour: ffff
EndChar

StartChar: threequarters
Encoding: 190 190 377
Width: 2014
VWidth: 2426
Flags: HMW
LayerCount: 2
Fore
SplineSet
1612 380 m 2
 1615 409 1637 422 1660 422 c 0
 1686 422 1712 405 1712 374 c 0
 1712 372 1712 370 1712 368 c 2
 1663 -54 l 1
 1733 -42 1802 -28 1869 -12 c 0
 1873 -11 1878 -10 1882 -10 c 0
 1912 -10 1930 -38 1930 -64 c 0
 1930 -84 1919 -104 1893 -110 c 0
 1815 -129 1734 -145 1651 -158 c 1
 1627 -371 l 2
 1624 -400 1602 -413 1579 -413 c 0
 1553 -413 1527 -396 1527 -365 c 0
 1527 -363 1527 -361 1527 -359 c 2
 1548 -172 l 1
 1462 -182 1375 -188 1289 -188 c 0
 1254 -188 1221 -188 1183 -182 c 0
 1156 -178 1106 -169 1082 -122 c 0
 1075 -109 1072 -93 1072 -78 c 0
 1072 -40 1090 -14 1098 -1 c 0
 1272 252 1395 494 1512 783 c 0
 1521 804 1538 813 1555 813 c 0
 1581 813 1608 794 1608 765 c 0
 1608 759 1607 752 1604 745 c 0
 1485 452 1358 200 1182 -57 c 0
 1177 -65 1173 -72 1172 -76 c 1
 1193 -87 1231 -88 1263 -88 c 2
 1289 -88 l 2
 1379 -88 1470 -82 1560 -70 c 1
 1612 380 l 2
579 -5 m 0
 553 -5 529 19 529 45 c 0
 529 57 534 69 543 79 c 0
 901 457 1343 1043 1562 1438 c 0
 1572 1456 1587 1463 1603 1463 c 0
 1630 1463 1657 1442 1657 1414 c 0
 1657 1406 1655 1398 1650 1390 c 0
 1425 983 979 397 615 11 c 0
 605 1 592 -5 579 -5 c 0
84 622 m 0
 84 651 107 672 134 672 c 0
 145 672 157 668 166 661 c 0
 223 614 301 588 376 588 c 0
 532 588 648 678 649 826 c 1
 645 928 563 990 438 990 c 0
 387 990 335 975 292 965 c 0
 288 964 284 964 280 964 c 0
 250 964 232 989 232 1015 c 0
 232 1035 243 1055 268 1062 c 0
 322 1076 382 1090 432 1109 c 0
 546 1152 619 1212 619 1307 c 0
 619 1460 538 1509 453 1509 c 0
 361 1509 260 1443 237 1340 c 0
 231 1314 211 1302 190 1302 c 0
 164 1302 138 1320 138 1350 c 0
 138 1354 138 1358 139 1362 c 0
 174 1517 319 1609 453 1609 c 0
 590 1609 719 1508 719 1307 c 0
 719 1195 653 1117 573 1067 c 1
 671 1030 745 947 749 828 c 1
 749 612 572 488 376 488 c 0
 279 488 179 520 102 583 c 0
 90 593 84 607 84 622 c 0
EndSplineSet
Colour: ffff
EndChar

StartChar: Eth
Encoding: 208 208 394
Width: 1341
VWidth: 1823
Flags: HMW
LayerCount: 2
Fore
SplineSet
93 679 m 1
 88 679 l 2
 57 679 41 705 41 730 c 0
 41 753 55 777 85 779 c 0
 188 787 283 790 371 790 c 0
 472 790 563 786 647 779 c 0
 677 777 691 753 691 730 c 0
 691 705 675 679 644 679 c 2
 639 679 l 1
 558 686 470 690 372 690 c 0
 286 690 193 687 93 679 c 1
EndSplineSet
Refer: 16 68 N 1 0 0 1 150 0 2
Colour: ffff
EndChar

StartChar: multiply
Encoding: 215 215 401
Width: 756
VWidth: 1823
Flags: HMW
LayerCount: 2
Fore
SplineSet
117 350 m 0
 89 350 68 375 68 401 c 0
 68 412 72 422 79 431 c 0
 151 523 225 607 302 688 c 1
 221 758 135 824 59 872 c 0
 43 882 36 897 36 911 c 0
 36 937 59 964 87 964 c 0
 95 964 104 962 113 956 c 0
 197 903 288 834 372 760 c 1
 437 826 505 890 575 955 c 0
 584 964 597 968 609 968 c 0
 637 968 659 946 659 918 c 0
 659 904 654 890 643 881 c 0
 575 818 509 756 446 692 c 1
 534 609 645 487 683 412 c 0
 687 404 689 397 689 390 c 0
 689 362 662 341 635 341 c 0
 619 341 603 349 593 368 c 0
 571 413 511 489 431 569 c 0
 414 586 396 603 377 621 c 1
 301 542 228 459 157 369 c 0
 147 357 132 350 117 350 c 0
EndSplineSet
Colour: ffff
EndChar

StartChar: germandbls
Encoding: 223 223 408
Width: 1032
VWidth: 2426
Flags: HMW
LayerCount: 2
Fore
SplineSet
184 1 m 0
 182 -30 159 -44 135 -44 c 0
 110 -44 84 -28 84 3 c 0
 84 372 133 724 170 1017 c 0
 204 1282 335 1366 495 1366 c 0
 698 1366 816 1216 816 1060 c 0
 816 917 780 856 689 783 c 0
 635 740 595 678 595 619 c 0
 595 566 627 536 695 501 c 0
 800 448 948 358 948 182 c 0
 948 23 750 -36 606 -36 c 0
 536 -36 464 -25 403 9 c 0
 386 19 378 34 378 50 c 0
 378 77 400 104 428 104 c 0
 436 104 444 102 452 97 c 0
 491 75 546 64 606 64 c 0
 750 64 848 127 848 182 c 0
 848 292 754 358 649 411 c 0
 573 450 495 510 495 619 c 0
 495 722 559 807 627 861 c 0
 706 924 716 933 716 1060 c 0
 716 1166 642 1266 495 1266 c 0
 381 1266 300 1235 270 1005 c 0
 232 712 209 373 184 1 c 0
EndSplineSet
Colour: ffff
EndChar

StartChar: ae
Encoding: 230 230 415
Width: 1832
VWidth: 2426
Flags: HMW
LayerCount: 2
Fore
SplineSet
1000 517 m 1
 1044 512 1086 510 1127 510 c 0
 1320 510 1617 617 1617 784 c 0
 1617 868 1536 929 1431 929 c 0
 1213 929 1041 742 1000 517 c 1
857 875 m 0
 857 847 833 827 807 827 c 0
 795 827 783 831 774 839 c 0
 722 885 648 913 578 913 c 0
 356 913 184 661 184 419 c 0
 184 229 310 95 503 95 c 0
 750 95 852 282 891 483 c 0
 916 610 946 830 963 961 c 0
 967 990 989 1003 1012 1003 c 0
 1037 1003 1062 986 1062 956 c 2
 1062 949 l 1
 1058 919 1053 884 1048 847 c 1
 1142 956 1275 1029 1431 1029 c 0
 1568 1029 1717 944 1717 784 c 0
 1717 505 1316 410 1127 410 c 0
 1082 410 1037 413 991 418 c 1
 997 224 1143 95 1346 95 c 0
 1462 95 1578 140 1665 218 c 0
 1674 227 1687 231 1699 231 c 0
 1727 231 1749 209 1749 181 c 0
 1749 167 1744 153 1733 144 c 0
 1628 48 1488 -5 1346 -5 c 0
 1151 -5 989 98 923 261 c 1
 852 118 720 -5 503 -5 c 0
 254 -5 84 179 84 419 c 0
 84 693 276 1013 578 1013 c 0
 674 1013 770 975 840 913 c 0
 851 903 857 889 857 875 c 0
EndSplineSet
Colour: ffff
EndChar

StartChar: oslash
Encoding: 248 248 432
Width: 1083
VWidth: 1823
Flags: HMW
LayerCount: 2
Fore
SplineSet
176 18 m 0
 166 2 151 -4 137 -4 c 0
 110 -4 84 17 84 45 c 0
 84 54 86 63 92 72 c 0
 332 443 604 738 888 1007 c 0
 898 1017 909 1021 920 1021 c 0
 947 1021 972 995 972 968 c 0
 972 957 968 945 957 935 c 0
 676 668 410 381 176 18 c 0
EndSplineSet
Refer: 5 111 N 1 0 0 1 0 0 2
Colour: ffff
EndChar

StartChar: thorn
Encoding: 254 254 438
Width: 1069
VWidth: 1823
Flags: HMW
LayerCount: 2
Fore
SplineSet
100 1362 m 2
 100 1394 125 1409 150 1409 c 0
 175 1409 201 1393 200 1360 c 2
 166 -366 l 2
 166 -398 141 -413 116 -413 c 0
 91 -413 65 -397 66 -364 c 2
 100 1362 l 2
EndSplineSet
Refer: 5 111 N 1 0 0 1 0 0 2
Colour: ffff
EndChar

StartChar: OE
Encoding: 338 338 440
Width: 2275
VWidth: 2426
Flags: HMW
LayerCount: 2
Fore
SplineSet
1037 1151 m 0
 1037 1125 1015 1101 987 1101 c 0
 972 1101 956 1108 947 1121 c 0
 885 1205 794 1266 673 1266 c 0
 394 1266 184 975 184 643 c 0
 184 309 400 95 670 95 c 0
 1010 95 1151 334 1196 714 c 1
 1191 728 1193 746 1201 759 c 1
 1210 854 1214 956 1214 1065 c 0
 1214 1152 1207 1242 1207 1330 c 0
 1207 1359 1235 1379 1259 1379 c 2
 1264 1379 l 1
 1496 1348 1691 1322 1863 1322 c 0
 1951 1322 2033 1329 2111 1347 c 0
 2115 1348 2119 1348 2123 1348 c 0
 2153 1348 2171 1322 2171 1296 c 0
 2171 1275 2159 1255 2133 1249 c 0
 2045 1229 1957 1222 1863 1222 c 0
 1696 1222 1517 1244 1309 1272 c 1
 1312 1205 1314 1133 1314 1065 c 0
 1314 965 1311 867 1302 774 c 1
 1405 762 1541 754 1675 754 c 0
 1778 754 1881 759 1970 771 c 1
 1977 771 l 2
 2008 771 2025 745 2025 719 c 0
 2025 696 2012 675 1983 671 c 0
 1888 659 1782 654 1675 654 c 0
 1536 654 1399 663 1291 676 c 1
 1237 286 1076 -5 670 -5 c 0
 340 -5 84 263 84 643 c 0
 84 1007 316 1366 673 1366 c 0
 830 1366 951 1285 1027 1181 c 0
 1034 1172 1037 1162 1037 1151 c 0
1282 57 m 0
 1256 63 1244 83 1244 104 c 0
 1244 130 1262 156 1292 156 c 0
 1296 156 1300 156 1304 155 c 0
 1474 117 1652 98 1823 98 c 0
 1931 98 2035 105 2134 120 c 0
 2137 120 2139 121 2142 121 c 0
 2172 121 2190 95 2190 70 c 0
 2190 48 2177 26 2148 22 c 0
 2044 7 1935 -2 1823 -2 c 0
 1644 -2 1460 17 1282 57 c 0
EndSplineSet
Colour: ffff
EndChar

StartChar: dotlessi
Encoding: 305 305 442
Width: 390
VWidth: 2426
Flags: HMW
LayerCount: 2
Fore
SplineSet
161 973 m 0
 162 1004 187 1019 211 1019 c 0
 236 1019 261 1004 261 972 c 0
 261 738 246 210 246 0 c 0
 246 -32 221 -48 196 -48 c 0
 171 -48 146 -32 146 -0 c 0
 146 211 150 736 161 973 c 0
EndSplineSet
Colour: ffff
EndChar

StartChar: uniE00A
Encoding: 57354 57354 443
Width: 600
VWidth: 1823
Flags: HMW
AnchorPoint: "Anchor-1" 342 0 basechar 0
AnchorPoint: "Anchor-3" 508 1856 basechar 0
LayerCount: 2
Fore
SplineSet
878 1956 m 0
 888 1973 903 1980 918 1980 c 0
 945 1980 973 1958 973 1930 c 0
 973 1922 971 1914 966 1906 c 0
 909 1804 833 1735 727 1735 c 0
 663 1735 595 1760 521 1802 c 0
 448 1844 391 1859 346 1859 c 0
 266 1859 156 1771 134 1674 c 0
 128 1648 108 1636 87 1636 c 0
 61 1636 35 1654 35 1684 c 0
 35 1688 35 1692 36 1696 c 0
 68 1837 210 1959 346 1959 c 0
 413 1959 488 1936 571 1888 c 0
 637 1850 689 1835 727 1835 c 0
 783 1835 827 1866 878 1956 c 0
EndSplineSet
Refer: 80 1575 N 1 0 0 1 200 0 2
Colour: ffff
EndChar

StartChar: uniE00C
Encoding: 57356 57356 445
Width: 1069
VWidth: 1823
Flags: HMW
LayerCount: 2
Fore
SplineSet
541 1021 m 0
 846 1021 986 771 986 508 c 0
 986 245 846 -5 541 -5 c 0
 236 -5 97 245 97 508 c 0
 97 771 236 1021 541 1021 c 0
541 921 m 0
 308 921 197 741 197 508 c 0
 197 275 308 95 541 95 c 0
 774 95 886 275 886 508 c 0
 886 741 774 921 541 921 c 0
EndSplineSet
Colour: ffff
EndChar

StartChar: uniE00D
Encoding: 57357 57357 446
Width: 950
VWidth: 1823
Flags: HMW
LayerCount: 2
Fore
SplineSet
147 -50 m 0
 120 -50 97 -27 97 0 c 2
 97 584 l 2
 97 811 217 1021 482 1021 c 0
 747 1021 867 811 867 584 c 2
 867 0 l 2
 867 -27 844 -50 817 -50 c 0
 790 -50 767 -27 767 0 c 2
 767 584 l 2
 767 781 677 921 482 921 c 0
 287 921 197 781 197 584 c 2
 197 0 l 2
 197 -27 174 -50 147 -50 c 0
EndSplineSet
Colour: ffff
EndChar

StartChar: uniE00E
Encoding: 57358 57358 447
Width: 850
VWidth: 1823
Flags: HMW
LayerCount: 2
Fore
SplineSet
147 -50 m 0
 120 -50 97 -27 97 0 c 2
 97 598 l 2
 97 821 199 1021 432 1021 c 0
 665 1021 767 821 767 598 c 2
 767 0 l 2
 767 -27 744 -50 717 -50 c 0
 690 -50 667 -27 667 0 c 2
 667 598 l 2
 667 799 587 921 432 921 c 0
 277 921 197 799 197 598 c 2
 197 0 l 2
 197 -27 174 -50 147 -50 c 0
EndSplineSet
Colour: ffff
EndChar

StartChar: uniE00F
Encoding: 57359 57359 448
Width: 1089
VWidth: 1437
Flags: HW
AnchorPoint: "Anchor-3" 608 1160 basechar 0
AnchorPoint: "Anchor-1" 469 -164 basechar 0
LayerCount: 2
Fore
SplineSet
811 861 m 0
 840 861 860 836 860 811 c 0
 860 808 859 806 859 803 c 2
 818 543 l 2
 812 506 803 461 803 420 c 0
 803 241 900 95 1089 95 c 0
 1116 95 1139 72 1139 45 c 0
 1139 18 1116 -5 1089 -5 c 0
 898 -5 776 115 728 259 c 1
 616 39 412 -110 134 -110 c 0
 107 -110 84 -87 84 -60 c 0
 84 -33 107 -10 134 -10 c 0
 452 -10 649 211 712 515 c 0
 712 517 713 519 713 521 c 2
 761 819 l 2
 765 843 787 861 811 861 c 0
EndSplineSet
Colour: ffff
EndChar

StartChar: uniE010
Encoding: 57360 57360 451
Width: 435
VWidth: 2296
Flags: HW
AnchorPoint: "Anchor-1" 83 -394 basechar 0
AnchorPoint: "Anchor-3" 205 1361 basechar 0
LayerCount: 2
Fore
SplineSet
343 641 m 0
 314 641 293 665 293 691 c 0
 293 701 295 710 301 719 c 0
 313 737 321 759 321 795 c 0
 321 870 264 921 176 921 c 0
 102 921 40 862 40 799 c 0
 40 727 77 691 135 638 c 0
 146 629 151 615 151 601 c 0
 151 573 129 551 101 551 c 0
 89 551 76 555 67 564 c 0
 11 615 -60 681 -60 799 c 0
 -60 926 54 1021 176 1021 c 0
 306 1021 421 934 421 795 c 0
 421 743 409 699 385 663 c 0
 376 649 359 641 343 641 c 0
-243 -507 m 0
 -246 -507 -248 -508 -251 -508 c 0
 -281 -508 -299 -482 -299 -456 c 0
 -299 -434 -286 -411 -257 -407 c 0
 61 -363 235 -192 235 181 c 0
 235 238 230 298 220 355 c 0
 219 358 219 362 219 365 c 0
 219 395 245 413 271 413 c 0
 292 413 313 400 318 373 c 0
 329 310 335 244 335 181 c 0
 335 -236 117 -457 -243 -507 c 0
EndSplineSet
Colour: ffff
EndChar

StartChar: uniE011
Encoding: 57361 57361 452
Width: 593
VWidth: 2234
Flags: HW
AnchorPoint: "Anchor-1" 99 -394 basechar 0
AnchorPoint: "Anchor-3" 209 1361 basechar 0
LayerCount: 2
Fore
SplineSet
301 641 m 0
 272 641 251 665 251 691 c 0
 251 701 253 710 259 719 c 0
 271 737 279 759 279 795 c 0
 279 870 222 921 134 921 c 0
 60 921 -2 862 -2 799 c 0
 -2 727 35 691 93 638 c 0
 104 629 109 615 109 601 c 0
 109 573 87 551 59 551 c 0
 47 551 34 555 25 564 c 0
 -31 615 -102 681 -102 799 c 0
 -102 926 12 1021 134 1021 c 0
 264 1021 379 934 379 795 c 0
 379 743 367 699 343 663 c 0
 334 649 317 641 301 641 c 0
127 382 m 0
 127 407 146 434 177 434 c 0
 198 434 218 420 225 399 c 0
 283 221 335 95 593 95 c 0
 620 95 643 72 643 45 c 0
 643 18 620 -5 593 -5 c 0
 442 -5 338 38 267 109 c 1
 258 -209 99 -423 -238 -506 c 0
 -242 -507 -247 -508 -251 -508 c 0
 -281 -508 -299 -480 -299 -454 c 0
 -299 -434 -288 -414 -262 -408 c 0
 46 -332 167 -157 167 137 c 0
 167 233 160 263 129 370 c 0
 128 374 127 378 127 382 c 0
EndSplineSet
Colour: ffff
EndChar
